<svg width="132" height="132" viewBox="0 0 132 132" fill="none" xmlns="http://www.w3.org/2000/svg">
<path d="M130.813 47.1579C129.423 46.224 128.263 44.989 127.421 43.5455C126.257 41.7256 124.509 40.3491 122.461 39.638C122.473 37.6264 121.91 35.6529 120.84 33.9462C119.77 32.2396 118.235 30.8698 116.413 29.9955C116.53 28.0118 116.464 26.0215 116.215 24.0498L116.102 23.0519L115.127 22.7708C113.219 22.1893 111.26 21.7846 109.277 21.5619C108.53 18.9538 106.812 16.7269 104.472 15.3351C103.334 14.6366 102.073 14.1596 100.756 13.9295C100.408 11.7991 99.3474 9.84778 97.7459 8.39144C96.4595 7.32313 95.4349 5.97712 94.7501 4.45575L94.1989 3.12044L92.7858 3.58429C91.1837 4.08738 89.4877 4.22195 87.8257 3.97785C85.6711 3.73621 83.4979 4.23198 81.6645 5.38345C80.0933 4.1325 78.1998 3.34651 76.2006 3.11535C74.2015 2.88419 72.1774 3.21719 70.3595 4.07626C68.8724 2.75132 67.2691 1.5612 65.569 0.520087L64.7212 0L63.8874 0.562253C62.2457 1.6884 60.7087 2.95851 59.2947 4.35737C57.4223 3.58081 55.3672 3.34692 53.3668 3.68269C51.3664 4.01846 49.5023 4.91021 47.9897 6.25494C46.103 5.19626 43.9111 4.80482 41.772 5.14451C40.126 5.48101 38.4244 5.43774 36.7978 5.01801L35.3847 4.62444L34.89 6.03004C34.2825 7.59861 33.3147 9.00414 32.0638 10.1344C30.551 11.6528 29.5955 13.633 29.3506 15.7568C27.3731 16.1878 25.5599 17.1703 24.1233 18.5892C22.6868 20.0081 21.6864 21.8047 21.2393 23.7687C19.2687 24.1061 17.3304 24.6092 15.4454 25.2727L14.4987 25.6241L14.428 26.6221C14.2932 28.5991 14.3358 30.5842 14.5553 32.5537C12.7883 33.5367 11.3395 35.0001 10.3785 36.7725C9.41747 38.545 8.98398 40.553 9.12881 42.5616C7.10881 43.3929 5.43059 44.8789 4.36659 46.7784C3.6092 48.2667 2.51619 49.5608 1.17292 50.5595L0 51.4028L0.748997 52.6257C1.59986 54.0665 2.10743 55.6822 2.23276 57.3485C2.5191 59.4834 3.51375 61.4622 5.05901 62.971C4.18563 64.7728 3.83914 66.7825 4.05902 68.7708C4.27891 70.7591 5.05631 72.6459 6.30257 74.2158C5.34308 75.9574 4.53464 77.7772 3.88609 79.6554L3.47632 80.6534L4.21117 81.3281C5.6845 82.6682 7.27328 83.8769 8.95925 84.9405C8.50369 87.6155 9.08442 90.363 10.5844 92.6291C11.3195 93.7236 12.2483 94.6761 13.3258 95.4403C12.718 97.509 12.8225 99.7204 13.6225 101.723C14.318 103.244 14.6563 104.903 14.6117 106.573L14.527 107.978L15.9401 108.147C17.6028 108.387 19.1881 109.003 20.5751 109.946C22.1105 110.902 23.8936 111.391 25.7047 111.352C26.058 111.352 26.3972 111.352 26.7504 111.352C27.3218 112.542 28.1073 113.619 29.068 114.528C31.0547 116.384 33.6766 117.419 36.4021 117.424C37.1879 119.259 38.1336 121.023 39.2283 122.695L39.7795 123.538L40.7687 123.384C42.7386 123.09 44.6777 122.619 46.5625 121.978C48.3839 124.003 50.9079 125.269 53.6281 125.52C53.9672 125.52 54.2923 125.52 54.6314 125.52C55.6266 125.522 56.6167 125.38 57.5708 125.098C58.818 126.856 60.6176 128.152 62.6863 128.781C64.3171 129.184 65.8313 129.959 67.1094 131.044L68.1974 132L69.229 130.988C70.4353 129.851 71.8846 129 73.4684 128.5C75.5084 127.773 77.2447 126.388 78.4002 124.564C80.3719 125.018 82.4323 124.909 84.3447 124.251C86.257 123.592 87.9436 122.409 89.2106 120.84C91.1289 121.386 93.091 121.767 95.0751 121.978L96.0784 122.076L96.573 121.205C97.5594 119.477 98.3916 117.666 99.0601 115.793C101.779 115.645 104.34 114.474 106.225 112.518C107.151 111.565 107.885 110.443 108.387 109.215H108.782C110.798 109.261 112.777 108.671 114.435 107.528C115.772 106.515 117.323 105.818 118.971 105.49L120.384 105.251L120.229 103.846C120.1 102.181 120.351 100.509 120.964 98.9543C121.671 96.9142 121.671 94.6973 120.964 92.6572C122.01 91.8405 122.893 90.8342 123.564 89.6914C124.943 87.3519 125.377 84.5785 124.779 81.9325C126.408 80.7861 127.931 79.4972 129.329 78.0812L130.036 77.3643L129.654 76.4366C128.917 74.5928 128.014 72.8192 126.955 71.1375C128.139 69.5024 128.829 67.565 128.945 65.5531C129.06 63.5412 128.595 61.5384 127.605 59.7802C129.064 58.1834 129.936 56.142 130.078 53.9891C130.12 52.3198 130.541 50.6815 131.308 49.196L132 47.931L130.813 47.1579ZM106.79 56.6317L108.203 53.9751L105.688 52.3305C108.986 49.333 111.635 45.6982 113.474 41.648C115.309 41.4933 117.155 41.5688 118.971 41.8729C118.835 42.3606 118.645 42.8319 118.406 43.2785L113.304 52.71L122.334 58.5573C122.751 58.8273 123.139 59.1381 123.493 59.485C122.05 60.616 120.469 61.5606 118.787 62.2962C115.231 59.6283 111.169 57.7016 106.846 56.6317H106.79ZM113.855 86.9786C115.108 88.3124 116.19 89.7948 117.077 91.3922C116.62 91.5715 116.147 91.7079 115.664 91.7998L105.066 93.7114L106.097 104.38C106.147 104.871 106.147 105.365 106.097 105.856C104.304 105.443 102.571 104.805 100.939 103.958C100.811 99.5155 99.777 95.1451 97.9013 91.1111L100.869 90.5488L100.6 87.569C102.321 87.8368 104.059 87.9731 105.801 87.9766C108.521 87.9765 111.232 87.6413 113.87 86.9786H113.855ZM97.5197 88.0469L89.1258 89.6211L87.9529 87.0629C89.5931 86.5723 91.1201 85.7651 92.4467 84.6875L92.7434 84.4485L92.8847 84.1112C93.5655 82.5479 93.9304 80.8668 93.9587 79.1635L96.785 79.5992L97.5197 88.0469ZM78.5839 100.163L74.4293 92.8962C75.1412 92.0057 75.7349 91.0279 76.1957 89.9866L77.6089 86.5288L81.3112 87.33C82.4294 87.5699 83.5742 87.6645 84.7168 87.6111L88.2355 95.2014C88.746 96.3003 89.6184 97.1929 90.7085 97.7314C90.9883 97.8719 91.2357 98.0686 91.4349 98.3092C91.6342 98.5498 91.781 98.8289 91.866 99.129C91.9511 99.429 91.9725 99.7434 91.9289 100.052C91.8853 100.361 91.7777 100.657 91.6129 100.922L88.0094 106.657L81.2264 106.221C80.9145 106.203 80.61 106.12 80.3325 105.977C80.055 105.834 79.8107 105.635 79.6155 105.392C79.4199 105.147 79.2775 104.864 79.1972 104.562C79.117 104.26 79.1006 103.944 79.1491 103.635C79.3713 102.449 79.1767 101.223 78.598 100.163H78.5839ZM75.7577 119.842L67.6463 112.814L59.9165 120.263C59.5553 120.608 59.1626 120.918 58.7436 121.191C57.9532 119.534 57.3695 117.788 57.0055 115.99C60.4226 113.123 63.2163 109.594 65.2157 105.617L67.505 107.585L69.6812 105.504C71.8923 109.371 74.8679 112.751 78.4284 115.442C78.1767 117.255 77.7021 119.03 77.0153 120.727C76.568 120.49 76.1466 120.207 75.7577 119.884V119.842ZM67.3919 103.41L60.9339 97.872L62.2058 95.356C63.6152 96.3313 65.205 97.0192 66.8832 97.38L67.2365 97.4503L67.6039 97.3519C69.257 96.9022 70.8069 96.1385 72.1683 95.103L73.5814 97.5487L67.3919 103.41ZM55.5782 104.197C55.6501 104.504 55.6546 104.822 55.5911 105.13C55.5277 105.438 55.3979 105.729 55.2108 105.982C55.0277 106.235 54.7937 106.447 54.5235 106.604C54.2534 106.761 53.9532 106.861 53.6422 106.896L46.8875 107.669L43.0438 102.173C42.8627 101.919 42.7376 101.63 42.6767 101.325C42.6158 101.02 42.6205 100.705 42.6905 100.402C42.7666 100.107 42.9023 99.8297 43.0893 99.588C43.2764 99.3464 43.5109 99.1451 43.7787 98.9965C44.8426 98.4033 45.6703 97.4658 46.1244 96.3399L49.2333 88.581C50.379 88.5837 51.5199 88.4324 52.6248 88.1312L56.2706 87.1332L57.9381 90.5067C58.4487 91.5221 59.0901 92.4671 59.8459 93.3179L56.0728 100.782C55.5272 101.848 55.3533 103.064 55.5782 104.239V104.197ZM33.9291 105.603C32.3432 106.53 30.6425 107.249 28.8701 107.739C28.8028 107.274 28.7745 106.804 28.7853 106.334L29.28 95.6371L18.5968 94.2315C18.1165 94.1614 17.6436 94.0485 17.1836 93.8942C17.985 92.2521 18.9916 90.7172 20.1795 89.326C24.5688 90.1826 29.0868 90.1491 33.4628 89.2276L33.3498 92.2215L36.3315 92.6291C34.6437 96.7782 33.8262 101.227 33.9291 105.701V105.603ZM13.8769 64.8404C12.1629 64.1744 10.5356 63.3061 9.02989 62.2541C9.36774 61.8853 9.74168 61.551 10.1462 61.2561L18.8511 54.9731L13.1986 45.8086C12.9369 45.3866 12.719 44.9391 12.5486 44.4732C14.3481 44.0783 16.1894 43.9036 18.0315 43.9532C20.0807 47.9015 22.9177 51.3928 26.3689 54.214L23.9383 55.9992L25.4928 58.5714C21.224 59.9093 17.2723 62.0945 13.8769 64.995V64.8404ZM28.1071 56.8144L34.9748 51.7824L37.1652 53.5815C35.8946 54.7267 34.8665 56.1125 34.1411 57.6578L33.9857 57.9951V58.3606C34.0578 60.0675 34.4658 61.7436 35.1868 63.2942L32.4737 64.1095L28.1071 56.8144ZM33.3498 23.8671C32.7972 22.1209 32.4696 20.3119 32.3747 18.4837C32.8529 18.5225 33.3261 18.6073 33.7879 18.7367L44.1743 21.5479L47.8767 11.4838C48.0508 10.9946 48.2734 10.5237 48.5409 10.0782C49.9689 11.2308 51.2502 12.5525 52.3563 14.0138C50.5477 18.076 49.5862 22.4609 49.5301 26.9032L46.619 26.1301L45.5592 28.9413C41.863 26.5022 37.7105 24.829 33.3498 24.0217V23.8671ZM48.5409 30.0518L56.7793 32.2445V35.0557C55.0826 34.7845 53.3485 34.8514 51.678 35.2525L51.3247 35.3368L51.042 35.5758C49.7417 36.6894 48.6797 38.0517 47.9191 39.5817L45.5874 37.9793L48.5409 30.0518ZM81.3394 9.47376C81.6165 9.88103 81.8531 10.3141 82.046 10.7669L86.2854 20.6061L96.5023 17.2327C96.9599 17.0733 97.4338 16.9648 97.9155 16.9094C97.9015 18.7397 97.6643 20.5616 97.2089 22.335C92.8783 23.4447 88.8203 25.4199 85.2821 28.1401L84.0809 25.3289L81.2547 26.2566C80.9502 21.8168 79.7437 17.4846 77.7078 13.5219C78.7418 12.0381 79.9622 10.6918 81.3394 9.51593V9.47376ZM82.4134 29.1522L85.8191 36.9251L83.5722 38.64C82.7275 37.1616 81.5993 35.8626 80.2514 34.8167L79.9546 34.5778L79.5872 34.5075C77.8978 34.2071 76.1662 34.2309 74.4858 34.5778L74.288 31.7666L82.4134 29.1522ZM92.3053 50.447C91.2664 49.9597 90.1695 49.6055 89.041 49.3928L85.3386 48.7181V44.9652C85.3258 43.8238 85.1595 42.6892 84.844 41.5918L91.514 36.4894C92.4781 35.7498 93.1567 34.7025 93.4358 33.5236C93.5143 33.2254 93.6541 32.9466 93.8462 32.7047C94.0384 32.4628 94.2787 32.263 94.5522 32.118C94.8261 31.9674 95.1293 31.8769 95.4413 31.8527C95.7533 31.8284 96.0669 31.871 96.361 31.9774L102.791 34.1842L103.879 40.8608C103.928 41.1676 103.912 41.4813 103.832 41.7815C103.751 42.0817 103.608 42.3618 103.412 42.6038C103.22 42.8503 102.976 43.0531 102.699 43.1986C102.421 43.344 102.115 43.4288 101.802 43.4471C100.585 43.5343 99.4338 44.0299 98.5372 44.8527L92.3053 50.447ZM95.3153 57.208C95.2762 58.527 94.9786 59.8257 94.4391 61.0312L87.2322 59.2601L92.701 54.2703C93.7743 55.0841 94.6687 56.1077 95.3294 57.2782L95.3153 57.208ZM89.6628 74.1736C89.8679 74.5694 90.0473 74.9778 90.1998 75.3965L81.9895 74.1174L79.0643 67.0894L84.4908 61.748L92.5597 63.7299C92.259 64.0592 91.933 64.3647 91.5846 64.6436L86.6669 68.6074L89.6628 74.1736ZM90.1574 82.4666C89.1016 83.2643 87.8954 83.8426 86.6105 84.1674L83.5016 77.4627L90.8357 78.6012C90.8935 79.9424 90.6772 81.2813 90.1998 82.5369L90.1574 82.4666ZM72.7194 89.9444L68.6073 82.7477L72.2955 76.1133L79.8698 76.9988L83.3461 84.5188C82.8997 84.4808 82.456 84.415 82.0178 84.322L75.8425 82.9164L73.3412 88.7075C73.1585 89.1316 72.9509 89.5446 72.7194 89.9444ZM60.6514 89.087L57.8251 83.4646L51.7063 85.1373C51.279 85.2499 50.8447 85.3344 50.4062 85.3903L53.4868 77.7016L61.0046 76.4366L65.032 82.8742L61.4144 90.2396C61.144 89.8721 60.8984 89.487 60.6796 89.087H60.6514ZM41.1502 66.0351C40.8248 65.7703 40.5135 65.4888 40.2176 65.1918L48.1735 62.7882L53.8259 67.8484L51.2541 75.031L43.1144 76.7318C43.2537 76.3117 43.4141 75.8989 43.5949 75.4948L46.294 69.8022L41.1502 66.0351ZM37.0805 58.7682C37.6867 57.5981 38.5228 56.5609 39.5393 55.718L45.2624 60.4127L38.1968 62.5492C37.5848 61.3734 37.2149 60.088 37.1087 58.7682H37.0805ZM49.5441 45.8929C49.5159 45.4529 49.5159 45.0116 49.5441 44.5716L56.3837 49.2663L55.9598 56.8425L48.7528 59.3164L42.3372 54.0454C42.7514 53.8847 43.1764 53.7532 43.6091 53.6518L49.7703 52.2462L49.5441 45.8929ZM72.9879 54.6076L70.4443 55.5915L69.5116 53.0474L72.4934 50.939V51.1358L72.5922 51.0514L72.9879 54.6076ZM80.9721 60.975L78.3719 63.5332L76.012 62.1276L77.4251 59.7943L80.9438 60.8063L80.8449 60.8906L80.9721 60.975ZM78.3719 73.7238L74.7402 73.3021L74.3304 70.6034L77.0436 70.266L78.4567 73.6254H78.3295L78.3719 73.7238ZM78.2588 67.005L70.7976 67.9467L71.9139 75.3402L66.5299 70.1255L61.4144 75.6073L62.1634 68.1716L54.6596 67.6094L60.9764 63.5472L56.737 57.3626L63.8732 59.738L66.0777 52.5414L68.6496 59.5694L75.7152 56.7582L71.8008 63.1396L78.2588 67.005ZM66.8409 79.6554L66.7701 79.543V79.6695L64.8342 76.5772L66.6995 74.5812L68.6638 76.4788L66.8409 79.6554ZM51.6215 61.6637L55.0836 60.469L56.6239 62.7179L54.3488 64.1516L51.6215 61.734H51.7486L51.6215 61.6637ZM54.8152 74.3141L56.0304 70.8845L58.7577 71.0953L58.4892 73.7941L54.8858 74.4125V74.286L54.8152 74.3141ZM59.436 51.4028L59.5491 51.4731V51.3466L62.6438 53.3004L61.8383 55.9008L59.2382 55.0433L59.436 51.4028ZM74.6978 37.8388C75.9848 37.5079 77.3252 37.4363 78.6404 37.6279C79.6544 38.4843 80.4898 39.5301 81.0992 40.7062L75.2207 45.2041L74.6978 37.8388ZM72.2672 47.4109L66.0495 51.8105L59.6056 47.7483L59.7611 39.4693C60.1456 39.6915 60.5139 39.9405 60.8633 40.2142L65.8517 44.0937L70.628 39.9612C70.9656 39.6743 71.3195 39.4068 71.6879 39.16L72.2672 47.4109ZM56.5533 45.682L50.4486 41.4652C50.9888 40.2597 51.7673 39.1746 52.7378 38.2745C54.039 38.0144 55.3793 38.0144 56.6805 38.2745L56.5533 45.682ZM49.9116 78.4888L47.1701 85.334C45.8705 85.0796 44.6355 84.5682 43.5384 83.8301C42.985 82.6292 42.6867 81.3276 42.6622 80.0068L49.9116 78.4888ZM66.8691 86.1071L70.5432 92.5167C70.1609 93.0927 69.6445 93.5683 69.0377 93.9033C68.431 94.2382 67.752 94.4225 67.0583 94.4404C66.3646 94.4583 65.6769 94.3094 65.0535 94.0063C64.4301 93.7032 63.8895 93.2549 63.4776 92.6994L66.8691 86.1071ZM83.5722 58.5011L76.2522 56.4068L75.4326 48.8728L82.0178 43.8267C82.0911 44.2633 82.1289 44.7052 82.1308 45.1479V51.445L88.3627 52.5835C88.798 52.6631 89.2276 52.7711 89.6486 52.9068L83.5722 58.5011ZM71.7585 24.0217C71.0572 25.018 70.7228 26.2244 70.8117 27.4373L71.3911 35.7726C70.3682 36.2655 69.4174 36.8944 68.5648 37.642L65.7386 40.1018L62.771 37.7826C61.8687 37.0813 60.8752 36.5045 59.8176 36.0677L59.9589 27.7185C59.979 26.5054 59.5855 25.3212 58.8425 24.3591C58.648 24.1141 58.5083 23.8307 58.4327 23.5276C58.3572 23.2246 58.3475 22.9091 58.4045 22.6021C58.453 22.2943 58.5679 22.0007 58.741 21.7411C58.9142 21.4815 59.1416 21.2622 59.4078 21.0981L65.1592 17.4857L71.0802 20.8029C71.3506 20.9482 71.5872 21.1484 71.7746 21.3905C71.9621 21.6327 72.0962 21.9114 72.1683 22.2085C72.2316 22.5045 72.2342 22.8103 72.1759 23.1074C72.1177 23.4044 71.9997 23.6867 71.8291 23.9374L71.7585 24.0217ZM46.7886 42.7022C46.5357 43.8176 46.4311 44.9612 46.4777 46.1037L46.6331 49.8567L42.959 50.7282C41.8457 50.9965 40.7722 51.4076 39.7653 51.951L33.2932 46.6238C32.3503 45.8584 31.1751 45.4325 29.9583 45.415C29.6448 45.4089 29.336 45.3381 29.0515 45.207C28.767 45.0759 28.513 44.8874 28.3057 44.6534C28.0984 44.4195 27.9423 44.1452 27.8473 43.848C27.7523 43.5508 27.7204 43.2372 27.7538 42.9271L28.4886 36.2083L34.7911 33.6642C35.0786 33.5392 35.3889 33.4746 35.7026 33.4746C36.0163 33.4746 36.3267 33.5392 36.6141 33.6642C36.8981 33.8031 37.1493 34.0001 37.3515 34.2423C37.5536 34.4845 37.7021 34.7665 37.787 35.0698C38.1482 36.2132 38.8846 37.2031 39.8784 37.881L46.7886 42.7022ZM36.8967 66.2319C37.614 67.123 38.4454 67.9169 39.3697 68.5934L42.422 70.8001L40.811 74.2017C40.3237 75.2336 39.9768 76.3255 39.7795 77.4486L31.5692 79.1635C30.3734 79.4106 29.3001 80.0611 28.531 81.0048C28.3311 81.2446 28.0836 81.4408 27.804 81.5811C27.5243 81.7214 27.2186 81.8027 26.9059 81.82C26.5913 81.8376 26.2764 81.789 25.9819 81.6777C25.6873 81.5663 25.4195 81.3945 25.196 81.1735L20.4338 76.3382L22.3698 69.8443C22.4547 69.5411 22.6031 69.2591 22.8053 69.0169C23.0074 68.7747 23.2587 68.5776 23.5427 68.4387C23.8301 68.3137 24.1404 68.2492 24.4541 68.2492C24.7678 68.2492 25.0782 68.3137 25.3656 68.4387C26.4959 68.8869 27.7444 68.9462 28.9126 68.6074L36.8967 66.2319ZM36.5152 89.6914L36.8402 81.2578L39.6664 80.6675C39.7791 82.3739 40.2306 84.0411 40.9948 85.573L41.1643 85.8963L41.4611 86.1212C42.848 87.1239 44.4173 87.8495 46.0821 88.2577L45.0222 90.8721L36.5152 89.6914ZM93.6478 76.0571C93.3909 74.9454 92.9871 73.8724 92.4467 72.8663L90.6661 69.5492L93.5913 67.1878C94.4796 66.4644 95.2682 65.6279 95.937 64.6998L104.091 66.7098C105.279 66.9967 106.53 66.8727 107.638 66.3584C107.922 66.2303 108.23 66.1641 108.542 66.1641C108.854 66.1641 109.162 66.2303 109.447 66.3584C109.737 66.4755 109.999 66.6526 110.216 66.8779C110.433 67.1032 110.599 67.3717 110.704 67.6657L112.965 74.0471L108.401 79.051C108.191 79.284 107.934 79.4698 107.647 79.5958C107.359 79.7219 107.048 79.7854 106.733 79.7819C106.419 79.7836 106.109 79.7193 105.821 79.5934C105.534 79.4674 105.277 79.2826 105.066 79.051C104.247 78.155 103.145 77.5647 101.943 77.3784L93.6478 76.0571ZM97.4915 61.9168C98.1289 60.3305 98.4458 58.6349 98.4241 56.9268V56.5614L98.2404 56.224C97.4313 54.722 96.3372 53.3902 95.0186 52.3024L97.11 50.4049L104.176 55.0855L100.191 62.5914L97.4915 61.9168ZM118.886 36.9533C119.121 37.5726 119.273 38.2201 119.338 38.8789C117.839 38.6353 116.321 38.5318 114.802 38.5697C115.364 36.8877 115.785 35.1622 116.06 33.4111C117.321 34.2668 118.3 35.4748 118.872 36.883L118.886 36.9533ZM103.073 50.6298L99.4557 48.2543L100.6 47.2142C100.989 46.8628 101.489 46.6587 102.013 46.6379C102.757 46.5885 103.481 46.3855 104.141 46.0419C104.801 45.6983 105.381 45.2216 105.845 44.6422C106.309 44.0629 106.647 43.3936 106.836 42.6771C107.026 41.9607 107.063 41.2128 106.945 40.4813L105.532 32.0477L97.3643 29.2365C96.6679 28.9878 95.9271 28.8853 95.1889 28.9355C94.4507 28.9857 93.731 29.1876 93.0751 29.5283C92.4192 29.869 91.8414 30.3413 91.3781 30.9152C90.9149 31.4891 90.5762 32.1523 90.3835 32.863C90.2641 33.3582 89.9803 33.799 89.578 34.1139L88.3486 35.0416L86.6105 31.0919C90.2843 28.1212 94.6157 26.0621 99.2472 25.0845C103.879 24.1069 108.678 24.2389 113.248 25.4695C113.676 30.156 112.975 34.8764 111.203 39.2396C109.431 43.6028 106.639 47.4833 103.059 50.5595L103.073 50.6298ZM105.9 21.4214C104.117 21.3862 102.335 21.499 100.572 21.7587C100.875 20.2779 101.036 18.7718 101.053 17.2608C101.693 17.4408 102.306 17.7056 102.876 18.0479C104.194 18.8223 105.247 19.9732 105.9 21.3511V21.4214ZM87.5289 7.14046C89.2028 7.36699 90.903 7.31474 92.5597 6.98584C93.4046 8.43507 94.4891 9.73234 95.7675 10.8231C96.6852 11.6688 97.3337 12.7634 97.6328 13.9717C96.9361 14.0513 96.2494 14.202 95.5838 14.4215L88.0659 16.9094L84.957 9.65649C84.6761 9.02878 84.3404 8.42675 83.9538 7.85733C85.0242 7.25885 86.2474 6.98519 87.4724 7.07017L87.5289 7.14046ZM77.3545 6.59227C77.9862 6.7905 78.5894 7.06925 79.1491 7.42157C78.022 8.43174 76.9952 9.54731 76.0827 10.7529C75.1048 9.26244 74.0085 7.85233 72.8042 6.53606C74.2662 6.07932 75.8331 6.07441 77.2979 6.52199L77.3545 6.59227ZM64.8483 3.78107C68.8093 6.37059 72.0922 9.86251 74.4246 13.967C76.7569 18.0714 78.0714 22.6701 78.2588 27.3811L74.1325 28.6462L74.0195 27.1C73.9938 26.6011 74.1328 26.1075 74.4152 25.6944C74.8378 25.0861 75.1299 24.3978 75.2734 23.6723C75.4168 22.9468 75.4085 22.1997 75.2489 21.4776C75.0812 20.7548 74.7632 20.075 74.3154 19.4819C73.8676 18.8888 73.2998 18.3955 72.6488 18.0339L65.1168 13.8171L57.811 18.4134C57.1779 18.8067 56.6345 19.3274 56.2156 19.9419C55.7967 20.5564 55.5116 21.2513 55.3785 21.9818C55.2455 22.7124 55.2674 23.4626 55.443 24.1842C55.6185 24.9059 55.9438 25.583 56.3978 26.1723C56.7124 26.5729 56.8772 27.0698 56.8642 27.5779V29.11L52.6248 27.9996C52.5646 23.2843 53.6371 18.6229 55.7534 14.4031C57.8696 10.1833 60.9684 6.52719 64.7918 3.7389L64.8483 3.78107ZM52.5259 7.19669C53.9803 6.6695 55.5597 6.5863 57.062 6.95774C55.9276 8.32063 54.9068 9.77321 54.0097 11.301C53.0289 10.1474 51.9406 9.08844 50.7595 8.13844C51.2855 7.7401 51.8599 7.40951 52.4693 7.15453L52.5259 7.19669ZM37.363 8.37739C39.029 8.62405 40.7248 8.59078 42.3797 8.27899C43.6139 8.08673 44.8777 8.26282 46.0113 8.78501C45.6406 9.37962 45.3328 10.0108 45.0928 10.6685L42.3514 18.062L34.7205 15.9536C34.0493 15.7788 33.3634 15.6659 32.6714 15.6162C32.8932 14.3952 33.4792 13.2688 34.3531 12.3833C35.5564 11.2062 36.5545 9.83816 37.3065 8.33523L37.363 8.37739ZM27.4994 19.9174C28.0523 19.5475 28.6508 19.2499 29.28 19.0319C29.3728 20.5407 29.6094 22.0373 29.9865 23.5017C28.2138 23.354 26.4318 23.354 24.659 23.5017C25.2161 22.0467 26.2073 20.796 27.4994 19.9174ZM17.6076 27.9012C22.1039 26.446 26.8839 26.0758 31.5525 26.8213C36.2211 27.5667 40.6444 29.4064 44.4569 32.1883L42.9307 36.2364L41.659 35.3649C41.2359 35.0711 40.9228 34.6459 40.7687 34.1561C40.556 33.453 40.1992 32.8014 39.7207 32.2424C39.2421 31.6833 38.6523 31.229 37.9884 30.9081C37.3245 30.5871 36.601 30.4066 35.8634 30.3777C35.1258 30.3489 34.3902 30.4724 33.7031 30.7405L25.6906 33.9734L24.7438 42.5335C24.6652 43.2695 24.7417 44.0136 24.9682 44.7186C25.1948 45.4235 25.5666 46.0738 26.0598 46.6279C26.5531 47.182 27.157 47.6278 27.833 47.9369C28.5091 48.2459 29.2426 48.4115 29.9865 48.423C30.502 48.4254 31.0009 48.6041 31.3997 48.929L32.5866 49.9129L29.0256 52.5414C25.2898 49.6332 22.3052 45.8807 20.3194 41.5954C18.3337 37.3101 17.404 32.6155 17.6076 27.9012ZM12.6051 39.6239C13.0869 38.1603 14.0033 36.8763 15.2335 35.9412C15.6046 37.6752 16.115 39.3767 16.7597 41.0295C15.2386 41.0623 13.7242 41.2412 12.2377 41.5636C12.2536 40.9072 12.3532 40.2553 12.5344 39.6239H12.6051ZM5.34165 56.9831C5.20245 55.3102 4.77208 53.6741 4.06981 52.1478C5.30846 51.0106 6.34105 49.6698 7.1222 48.184C7.74265 47.1045 8.67244 46.2334 9.79294 45.682C10.0287 46.3366 10.3269 46.9673 10.6832 47.5656L14.7955 54.2984L8.39396 58.9228C7.82864 59.3422 7.30356 59.8128 6.82542 60.3284C5.98347 59.3924 5.44217 58.2274 5.27101 56.9831H5.34165ZM7.06562 66.9769C7.12726 66.3143 7.27449 65.6624 7.50369 65.0372C8.74349 65.9091 10.0637 66.6621 11.4464 67.2861C10.2105 68.5608 9.08095 69.9335 8.06897 71.3905C7.26824 70.0621 6.89359 68.5225 6.99498 66.9769H7.06562ZM27.2734 61.481L29.506 65.1777L28.0929 65.6275C27.5992 65.7667 27.0734 65.742 26.595 65.5573C25.9078 65.2892 25.1723 65.1656 24.4347 65.1944C23.6971 65.2233 22.9736 65.4039 22.3097 65.7248C21.6458 66.0458 21.0559 66.5001 20.5774 67.0591C20.0989 67.6181 19.742 68.2698 19.5294 68.9729L17.0706 77.2237L23.2036 83.2819C23.7301 83.8067 24.3616 84.2159 25.0571 84.4828C25.7526 84.7497 26.4966 84.8684 27.2411 84.8313C27.9856 84.7942 28.7141 84.6021 29.3793 84.2674C30.0445 83.9327 30.6317 83.4629 31.1029 82.8883C31.4281 82.4897 31.8829 82.2163 32.3889 82.1152L33.9009 81.7919L33.7313 86.1071C29.1262 87.2135 24.3222 87.2104 19.7186 86.098C15.115 84.9856 10.845 82.7961 7.26348 79.7116C8.90032 75.3207 11.5612 71.3787 15.0274 68.2095C18.4936 65.0403 22.6663 62.7343 27.2026 61.481H27.2734ZM13.2269 90.9143C12.3762 89.6366 11.9375 88.1313 11.9692 86.5991C13.5624 87.3815 15.2164 88.0349 16.9151 88.5529C16.0035 89.767 15.2042 91.0608 14.527 92.4183C14.006 91.9786 13.5452 91.4729 13.1562 90.9143H13.2269ZM22.2709 107.36C20.8691 106.426 19.3152 105.741 17.6782 105.336C17.5524 103.662 17.1415 102.023 16.4629 100.486C16.0076 99.3332 15.8995 98.0732 16.152 96.86C16.8187 97.0789 17.5048 97.2342 18.201 97.3238L26.058 98.3358L25.7047 106.207C25.6715 106.893 25.7094 107.581 25.8178 108.259C24.5717 108.319 23.3363 108.005 22.2709 107.36ZM31.2018 112.251C30.725 111.79 30.303 111.276 29.9441 110.719C31.4051 110.29 32.824 109.73 34.1835 109.047C34.4135 110.799 34.7918 112.53 35.3141 114.219C33.7763 114.005 32.3413 113.328 31.2018 112.279V112.251ZM39.4827 93.107L43.7221 93.6833L43.1427 95.0889C42.9553 95.5593 42.6111 95.9513 42.1677 96.1993C41.5191 96.5638 40.9541 97.0588 40.5087 97.6527C40.0634 98.2467 39.7475 98.9265 39.5813 99.6488C39.415 100.371 39.4021 101.12 39.5432 101.847C39.6844 102.575 39.9767 103.265 40.4013 103.874L45.3613 110.902L53.939 109.918C54.6799 109.831 55.3942 109.591 56.0366 109.213C56.679 108.836 57.2354 108.33 57.6701 107.727C58.1049 107.124 58.4086 106.437 58.5618 105.711C58.715 104.984 58.7143 104.234 58.5599 103.508C58.463 103.033 58.5276 102.538 58.7436 102.103L59.436 100.697L62.7286 103.508C60.723 107.78 57.7236 111.514 53.9786 114.404C50.2336 117.293 45.8507 119.253 41.1926 120.123C38.7752 116.082 37.3594 111.527 37.0621 106.834C36.7648 102.141 37.5945 97.4458 39.4827 93.1351V93.107ZM53.8542 122.386C52.2964 122.255 50.8166 121.651 49.6149 120.657C51.226 119.912 52.7757 119.043 54.2499 118.056C54.6343 119.505 55.1499 120.917 55.7902 122.273C55.1533 122.4 54.5029 122.447 53.8542 122.414V122.386ZM72.4934 125.633C70.8855 126.153 69.3762 126.937 68.0278 127.952C66.6372 127.004 65.0933 126.3 63.4635 125.872C62.273 125.508 61.2163 124.804 60.4252 123.848C61.0116 123.469 61.5605 123.036 62.0645 122.554L67.717 117.073L73.6803 122.245C74.2094 122.702 74.7821 123.107 75.3902 123.454C74.6629 124.45 73.6546 125.208 72.4934 125.633ZM81.9047 121.739C81.2437 121.831 80.5732 121.831 79.9123 121.739C80.4882 120.341 80.9283 118.891 81.2264 117.41C82.7497 118.328 84.3474 119.118 86.0028 119.771C84.8644 120.811 83.4353 121.483 81.9047 121.697V121.739ZM94.3685 118.844C89.6746 118.22 85.1977 116.493 81.3097 113.804C77.4216 111.115 74.2345 107.542 72.0129 103.382L75.1499 100.402L75.9131 101.737C76.155 102.164 76.2494 102.658 76.1816 103.143C76.064 103.875 76.1011 104.622 76.2904 105.339C76.4798 106.055 76.8173 106.725 77.2814 107.304C77.7456 107.883 78.326 108.36 78.9858 108.704C79.6456 109.047 80.3703 109.25 81.1134 109.3L89.7475 109.848L94.3261 102.553C94.7128 101.929 94.9663 101.233 95.0708 100.507C95.1754 99.7817 95.1287 99.0426 94.9337 98.3358C94.7261 97.6152 94.3667 96.9467 93.8795 96.3747C93.3922 95.8028 92.7881 95.3406 92.1074 95.0186C91.6515 94.7895 91.2877 94.4127 91.0759 93.9504L90.4259 92.5448L94.6653 91.7436C96.7816 95.9525 97.8586 100.603 97.807 105.308C97.7554 110.014 96.5767 114.639 94.3685 118.801V118.844ZM103.992 110.41C102.922 111.521 101.537 112.281 100.021 112.589C100.45 110.868 100.734 109.114 100.869 107.346C102.236 107.942 103.655 108.413 105.108 108.751C104.812 109.351 104.436 109.909 103.992 110.41ZM118.123 97.8861C117.524 99.4597 117.199 101.123 117.162 102.806C115.549 103.292 114.034 104.053 112.683 105.055C111.656 105.761 110.441 106.148 109.192 106.165C109.256 105.468 109.256 104.767 109.192 104.071L108.415 96.2415L116.215 94.8359C116.902 94.7034 117.574 94.5058 118.222 94.2456C118.553 95.4427 118.514 96.7115 118.109 97.8861H118.123ZM120.949 88.1452C120.608 88.7153 120.195 89.2396 119.72 89.7055C118.981 88.3834 118.115 87.1359 117.134 85.9806C118.804 85.3682 120.42 84.6208 121.967 83.7457C122.075 85.2838 121.71 86.8181 120.921 88.1452H120.949ZM100.332 84.3782L99.9503 80.1614L101.476 80.4004C101.984 80.4721 102.45 80.7212 102.791 81.1032C103.295 81.6469 103.907 82.0811 104.588 82.3787C105.268 82.6762 106.004 82.8305 106.747 82.8321C107.493 82.8339 108.231 82.6797 108.912 82.3794C109.594 82.0791 110.205 81.6395 110.704 81.0891L116.512 74.7218L113.686 66.6115C113.437 65.9139 113.044 65.2758 112.532 64.7381C112.021 64.2004 111.402 63.7751 110.715 63.4892C110.029 63.2034 109.29 63.0634 108.546 63.0782C107.801 63.093 107.069 63.2624 106.394 63.5753C105.949 63.7672 105.455 63.8164 104.981 63.7159L103.469 63.3504L105.504 59.5272C110.101 60.5359 114.393 62.6131 118.028 65.5888C121.663 68.5645 124.538 72.3541 126.418 76.6474C122.997 79.9082 118.843 82.3105 114.301 83.655C109.759 84.9995 104.961 85.2474 100.304 84.3782H100.332ZM121.529 64.4468C122.881 63.7554 124.163 62.9364 125.358 62.0011C125.785 63.0163 125.984 64.1116 125.942 65.211C125.901 66.3105 125.62 67.3879 125.118 68.3685C124.008 66.9639 122.784 65.6523 121.458 64.4468H121.529ZM127.096 53.8486C126.997 55.0847 126.541 56.2659 125.782 57.2501C125.278 56.7647 124.729 56.3271 124.143 55.9429L117.501 51.6418L121.26 44.7122C121.59 44.0973 121.86 43.4525 122.066 42.7865C123.225 43.2725 124.211 44.0956 124.892 45.1479C125.753 46.5937 126.857 47.8821 128.156 48.9571C127.487 50.5069 127.105 52.1638 127.026 53.8486H127.096Z" fill="#98A2B3"/>
</svg>
