<svg width="24" height="24" viewBox="0 0 24 24" fill="none" xmlns="http://www.w3.org/2000/svg">
<g clip-path="url(#clip0_269_16233)">
<path d="M6.00005 8.26048C5.16161 8.26048 4.35071 8.25188 3.53981 8.2651C3.26951 8.26906 3.02739 8.21751 2.81922 8.04369C2.42658 7.71324 1.99359 7.42243 1.66628 7.0358C1.07956 6.34581 0.852813 5.52165 1.10198 4.60892C1.35114 3.6962 2.16268 3.02272 3.08759 3.01678C5.26537 2.99893 7.44314 3.00554 9.62092 3.00422C10.4241 3.00422 11.2286 2.99034 12.0318 3.01611C12.9977 3.04784 13.7651 3.47281 14.3095 4.31614C14.8959 5.22542 15.231 6.28245 15.2787 7.37353C15.3113 7.95976 15.319 8.54731 15.3376 9.13486C15.3376 9.18774 15.3446 9.24127 15.3523 9.36685C15.4529 9.22871 15.5137 9.14147 15.5784 9.05753C16.4047 7.97826 17.2015 6.87189 18.0707 5.83029C18.5831 5.21829 19.1794 4.67501 19.7866 4.16215C20.6264 3.45232 21.6442 3.38226 22.6741 3.48074C23.0078 3.51246 23.109 3.80723 22.8913 4.07556C22.4896 4.5686 22.0803 5.05504 21.6743 5.54147C21.2387 6.06029 20.6987 6.43833 20.1178 6.76086C20.0124 6.81146 19.9189 6.88495 19.8437 6.97632C19.9231 6.97632 20.0102 6.95516 20.08 6.98094C20.1953 7.02456 20.3573 7.07479 20.3939 7.16666C20.4123 7.23201 20.416 7.30082 20.4049 7.3679C20.3938 7.43499 20.3682 7.4986 20.3298 7.55395C19.6893 8.32326 19.0206 9.07406 18.1181 9.5367C18.0777 9.55785 18.0399 9.5856 18.0015 9.6094C18.015 9.63385 18.0214 9.65633 18.029 9.65699C18.1956 9.6669 18.3596 9.67681 18.4403 9.86782C18.5248 10.0701 18.4018 10.1983 18.2987 10.343C17.6415 11.2524 16.7967 11.803 15.6726 11.8221C15.5713 11.8274 15.4704 11.838 15.3702 11.8539C15.3437 11.8609 15.3176 11.8697 15.2921 11.8803V12.101C15.2921 13.2847 15.2921 14.4684 15.2921 15.6515C15.2855 15.7218 15.2995 15.7926 15.3322 15.8547C15.365 15.9168 15.4151 15.9673 15.4759 15.9998C15.9345 16.2952 16.3624 16.6316 16.6833 17.0903C17.1432 17.7512 17.345 18.4723 17.1675 19.2773C16.953 20.2534 16.1293 20.9778 15.1569 20.9877C13.1833 21.0075 11.2094 21.0075 9.23532 20.9877C8.27902 20.9758 7.51745 20.5343 6.97364 19.7035C6.33772 18.7377 5.99479 17.5984 5.98852 16.4307C5.96546 14.6205 5.99492 12.8095 6.00453 10.9986C6.00902 10.1533 6.01926 9.30802 6.02631 8.46271C6.01286 8.40257 6.00582 8.34838 6.00005 8.26048ZM14.6151 11.9319L14.551 11.8658C14.4479 11.9418 14.3204 11.9979 14.2468 12.0971C13.8548 12.6258 13.4781 13.1704 13.0938 13.7084C13.0147 13.8288 12.9291 13.9446 12.8376 14.0554C12.7095 14.1975 12.5513 14.2252 12.3963 14.1076C12.2413 13.9899 12.2182 13.8307 12.306 13.6575C12.3416 13.5953 12.3817 13.5359 12.4258 13.4797C13.1303 12.4883 13.8413 11.497 14.5395 10.4983C14.6147 10.3897 14.6569 10.2604 14.6605 10.1269C14.6573 9.25713 14.6535 8.38737 14.6189 7.51959C14.5889 6.60656 14.3409 5.71529 13.897 4.92484C13.4243 4.08283 12.7383 3.68298 11.8025 3.68628C9.67216 3.69355 7.54178 3.68628 5.41141 3.68628C5.33903 3.68628 5.26665 3.69553 5.16289 3.70214C6.14673 4.80918 6.581 6.10457 6.62264 7.53545C6.65851 8.774 6.6425 10.0139 6.64057 11.2531C6.64057 12.9278 6.60662 14.6019 6.62519 16.276C6.63672 17.3289 6.88653 18.3249 7.45019 19.229C7.83066 19.8397 8.35077 20.188 9.04125 20.2957C10.1455 20.4689 11.0269 19.6573 10.9173 18.5489C10.8613 17.988 10.5929 17.4726 10.1705 17.1147C9.86766 16.8624 9.55162 16.6274 9.2238 16.4109C9.07455 16.3058 8.97207 16.1888 9.02267 15.9938C9.07327 15.7989 9.21482 15.7334 9.39673 15.7295C9.46719 15.7295 9.53765 15.7295 9.60747 15.7295H14.6144L14.6151 11.9319ZM11.0583 20.303C12.4475 20.303 13.8125 20.3109 15.1749 20.2944C15.3849 20.2815 15.5888 20.2172 15.7699 20.1067C16.5623 19.65 16.7768 18.6692 16.3003 17.7737C16.012 17.2324 15.5579 16.8695 15.0628 16.5556C14.9508 16.4871 14.8234 16.4502 14.6932 16.4485C13.3833 16.4406 12.0735 16.4433 10.7636 16.4446C10.6919 16.4446 10.6195 16.4538 10.5279 16.4604C11.8179 18.0823 11.9005 18.6824 11.0583 20.303ZM5.95585 7.54338C5.9219 7.25324 5.89885 6.99746 5.86106 6.74433C5.72847 5.85012 5.40437 5.03323 4.81316 4.36504C4.25591 3.73387 3.51739 3.56005 2.73659 3.77022C1.763 4.03062 1.3915 5.2163 1.92185 6.22353C2.20368 6.75887 2.64884 7.1204 3.13884 7.43169C3.26335 7.50865 3.40497 7.55121 3.55006 7.55528C4.2668 7.56717 4.98418 7.56122 5.70093 7.56056C5.77459 7.55726 5.85081 7.54933 5.95585 7.54338ZM17.4141 10.3093C17.2406 10.2545 17.0997 10.2102 16.9594 10.1646C16.7909 10.1104 16.6334 10.0033 16.6622 9.81626C16.6959 9.66647 16.7836 9.53555 16.9075 9.45012C17.336 9.17122 17.7856 8.92866 18.2206 8.65702C18.6555 8.38539 19.0052 8.03444 19.344 7.63128C19.1128 7.56519 18.9104 7.51364 18.7093 7.45614C18.5447 7.40855 18.4038 7.29818 18.4294 7.12171C18.4589 6.97974 18.5389 6.85433 18.6536 6.77011C18.8707 6.62808 19.0986 6.50431 19.3351 6.4C20.2642 5.96793 21.0732 5.30181 21.6877 4.46286C21.7594 4.36372 21.8389 4.27053 21.9439 4.13901C21.2861 4.16412 20.6975 4.26459 20.226 4.67369C19.6771 5.13619 19.1569 5.63373 18.6683 6.16339C17.3065 7.6868 16.1703 9.39394 14.9846 11.0621C14.9668 11.0962 14.9522 11.1321 14.9411 11.1692C15.8526 11.1321 16.7454 11.1216 17.4141 10.3093Z" fill="#1C1C1C"/>
<path d="M10.1241 6.22418H7.97071C7.90066 6.22607 7.83058 6.22165 7.76127 6.21096C7.68828 6.1973 7.62198 6.15837 7.57333 6.10059C7.52467 6.04281 7.49657 5.96964 7.49366 5.89315C7.49075 5.81667 7.5132 5.74145 7.55731 5.67991C7.60142 5.61837 7.66456 5.57419 7.73629 5.55467C7.82044 5.53616 7.90656 5.52905 7.9925 5.53352L12.2994 5.53881C12.3696 5.53645 12.4399 5.54044 12.5095 5.55071C12.6933 5.5864 12.8041 5.69941 12.7996 5.899C12.7951 6.0867 12.6869 6.19377 12.5127 6.22484C12.4354 6.23555 12.3574 6.23931 12.2795 6.23608C11.5613 6.23608 10.8432 6.23608 10.1254 6.23608L10.1241 6.22418Z" fill="#1C1C1C"/>
<path d="M10.513 11.3211C9.75587 11.3211 8.99876 11.329 8.24231 11.3125C8.10835 11.2983 7.98532 11.2298 7.90027 11.1221C7.8761 11.0707 7.86506 11.0138 7.8682 10.9568C7.87134 10.8998 7.88855 10.8445 7.91821 10.7963C8.01704 10.7018 8.14548 10.6472 8.2801 10.6423C9.39589 10.633 10.5123 10.6423 11.6281 10.6423C11.9945 10.6423 12.3615 10.6423 12.7285 10.6423C12.9995 10.6423 13.1506 10.7672 13.1538 10.98C13.157 11.1928 13.0039 11.325 12.7369 11.3257C11.9951 11.3257 11.254 11.3257 10.513 11.3257V11.3211Z" fill="#1C1C1C"/>
<path d="M10.4771 8.76979C9.74495 8.76979 9.01283 8.76979 8.28072 8.76979C8.0085 8.76979 7.85669 8.64686 7.85028 8.43933C7.84388 8.2318 8.00465 8.08772 8.28584 8.08838C9.75007 8.08838 11.2143 8.08971 12.6785 8.09235C12.8854 8.09235 13.052 8.14919 13.1 8.38315C13.148 8.61712 12.986 8.7797 12.7202 8.7797C11.972 8.78433 11.2246 8.7797 10.4783 8.7797L10.4771 8.76979Z" fill="#1C1C1C"/>
<path d="M9.59379 13.8692C9.15759 13.8692 8.72139 13.8692 8.28584 13.8692C8.00465 13.8692 7.84388 13.7311 7.85028 13.513C7.85669 13.2949 8.01042 13.1772 8.28072 13.1772C9.16848 13.1772 10.056 13.181 10.9434 13.1885C11.2297 13.1885 11.386 13.3207 11.3789 13.5401C11.3719 13.7595 11.2137 13.8758 10.9248 13.8772C10.4809 13.8772 10.0377 13.8772 9.59379 13.8772V13.8692Z" fill="#1C1C1C"/>
</g>
<defs>
<clipPath id="clip0_269_16233">
<rect width="22" height="18" fill="white" transform="translate(1 3)"/>
</clipPath>
</defs>
</svg>
