<svg width="109" height="68" viewBox="0 0 109 68" fill="none" xmlns="http://www.w3.org/2000/svg">
<path d="M108.501 28.4007C108.345 27.8636 108.557 27.5693 108.9 27.3265C108.408 27.0543 107.934 26.7673 107.392 26.6717C107.217 26.6422 107.217 26.3626 107.398 26.3406C107.803 26.2964 108.208 26.2596 108.607 26.2008C108.37 25.5607 108.14 24.9205 107.915 24.2657C107.915 24.2878 107.915 24.3025 107.915 24.3172C107.878 24.2804 107.841 24.251 107.803 24.2142C107.784 24.1627 107.766 24.1112 107.747 24.0671C107.685 23.7507 107.616 23.4343 107.529 23.1253C107.398 22.728 107.261 22.3307 107.13 21.9407C106.793 21.0504 106.388 20.1675 106.033 19.314C105.627 18.3281 105.172 17.3716 104.692 16.4151C104.038 15.2452 103.34 14.1048 102.71 12.9055C102.043 11.8754 101.226 10.963 100.491 10.0065C100.379 9.85939 100.266 9.71224 100.154 9.55773C100.036 9.41057 99.9111 9.26342 99.7864 9.11627C98.9261 8.07148 98.0097 7.16649 97.0372 6.26885C95.9401 5.26085 94.8055 4.6428 93.5712 3.92911C93.1348 3.67895 92.686 3.48765 92.2247 3.33314C91.6138 3.14184 90.9842 2.97997 90.3608 2.85489C90.0865 2.82546 89.806 2.8181 89.5442 2.84753C89.4257 2.87696 89.3073 2.90639 89.1888 2.92847C89.1826 2.92847 89.1764 2.92111 89.1701 2.92847C89.1265 2.94318 89.033 2.92846 89.0392 2.90639C89.0143 2.89903 89.008 1.26563 88.821 0.860962C88.6215 0.448932 88.26 0.522507 87.9608 0.206127C87.7363 0.0810468 87.4995 0.00746646 87.2501 0.000108791C86.1218 -0.00724888 85.0246 0.360633 83.9212 0.485713C83.3913 0.603436 82.8677 0.706444 82.3378 0.816809C80.6297 1.14055 78.8905 1.29506 77.1762 1.58936C75.5616 1.8616 73.3985 2.45757 71.7652 2.03082C70.3626 1.65558 68.8104 1.45693 67.3703 1.35392C66.8093 1.30978 66.3231 1.26563 65.8742 1.27299C65.6997 1.29506 65.5251 1.33185 65.3568 1.376C64.6835 1.54523 63.9292 1.75124 63.6238 2.56794C63.5427 2.79603 63.4742 3.03147 63.3994 3.25956C63.3557 3.93647 62.9568 5.44479 62.9256 5.29028C62.7448 4.56187 62.2773 3.39936 61.6726 2.74452C61.1676 3.08298 60.6502 3.41407 60.0954 3.42143C58.9484 3.45086 57.8076 3.2522 56.6606 3.24484C55.5509 3.23748 54.5224 2.88432 53.4252 2.81075C53.126 2.78867 52.7706 2.79603 52.4777 2.67095C52.3592 2.8181 52.2283 2.96525 52.0912 3.08298C51.6361 3.46557 51.1623 3.8261 50.7197 4.23813C50.6636 4.29699 50.5639 4.25285 50.5265 4.17927C50.4891 4.10569 50.4579 4.03212 50.4267 3.95854C49.8033 3.24485 49.1051 2.46493 48.2573 2.20741C47.4469 1.94989 46.6241 2.25156 45.8386 2.56058C45.103 2.87696 44.3487 3.17863 43.6007 3.43615C42.3975 3.9144 41.1882 4.35585 39.9289 4.53243C38.1149 4.78995 36.3195 4.66488 34.5553 4.09834C33.9756 3.9144 33.2712 3.75988 32.6228 3.495C32.3298 3.24484 32.0493 2.88432 31.7376 2.70774C31.6691 2.67095 31.588 2.74453 31.5568 2.81075C31.3449 3.21542 30.9896 3.47293 30.6966 3.78195C30.4348 4.05419 30.2477 4.38528 30.0296 4.70902C29.7927 5.04747 29.5745 5.37857 29.4623 5.76853C29.456 5.74645 29.4498 5.73174 29.4498 5.71703C29.4311 5.17992 29.3625 4.59129 29.2503 4.0174C29.2441 4.01004 29.2441 4.01004 29.2441 4.01004C28.976 3.26692 28.7204 2.51643 28.4524 1.76595C28.3589 1.58201 28.2841 1.39807 28.1968 1.20677C26.8004 0.971323 24.9552 1.25091 23.5713 1.18469C22.0066 1.11112 20.6414 1.0964 19.2575 1.20677C18.871 1.26563 18.4907 1.33185 18.1104 1.40542C17.5182 1.52315 16.9198 1.6703 16.3151 1.72181C15.7291 1.77331 15.193 1.64823 14.6132 1.53786C13.0797 1.2362 11.6522 1.72181 10.2682 2.49436C9.07757 3.16391 7.88067 3.8261 6.69001 4.50301C5.437 5.22406 4.2214 6.00397 3.07437 6.92368C2.1954 7.63001 1.76526 8.29221 1.80267 9.60187C1.83384 10.4848 1.89617 11.3971 1.7902 12.2801C1.7528 12.6038 1.70916 13.0526 1.50344 13.3175C1.52214 13.3469 1.52838 13.369 1.54708 13.3911C1.62189 13.5014 1.76526 13.5162 1.91488 13.5088C3.7601 13.3984 5.64272 13.6412 7.48794 13.7222C5.96688 13.6559 4.47076 14.0312 3.01827 14.274C1.73409 14.4947 -0.603599 14.1783 0.144463 15.672C1.54708 18.4826 0.537195 21.7052 0.911227 24.6189C1.02344 25.4797 0.674341 27.275 1.17305 28.0328C1.24786 28.1432 1.50344 28.2609 1.65306 28.2609C2.63177 28.283 3.51074 28.1873 4.42712 28.3713C3.0245 28.673 1.32889 28.7539 0.493558 29.6442C0.904992 30.8067 1.26656 31.9324 1.28526 33.2274C1.30396 34.7504 1.04837 36.2808 1.21045 37.7965C1.39747 37.8112 1.58448 37.8038 1.77773 37.8333C2.22034 37.8995 2.6567 38.0025 3.09931 38.054C3.94088 38.157 5.74246 38.2821 5.63649 38.3704C5.31856 38.65 4.90712 38.6426 4.53309 38.7015C3.89101 38.7898 3.24892 39.0178 2.638 39.2533C2.158 39.4299 1.69046 39.6432 1.22292 39.864C1.71539 41.2178 1.52214 42.9836 1.3663 44.3374C1.17305 46.015 1.01097 47.7073 1.15435 49.3701C2.27021 50.9741 3.33619 52.6295 4.53309 54.1599C5.94194 55.9552 7.37573 57.7358 8.85939 59.4501C10.2745 61.0835 11.6896 62.739 13.273 64.159C13.753 64.5931 14.2579 64.9978 14.7628 65.4025C15.6543 65.9249 16.5333 66.1603 17.4247 66.256C18.4097 66.5208 19.4445 66.6533 20.3484 66.6459C21.8258 66.6459 23.2721 66.2854 24.7495 66.175C24.843 66.1677 24.9303 66.1677 25.0238 66.1603C26.3516 66.1309 28.3402 66.359 29.7864 65.7188C29.9921 65.7041 30.1854 65.7262 30.3724 65.7703C30.4659 65.7924 30.5594 65.7556 30.6155 65.6673C30.8836 65.2627 31.0706 64.7771 31.2639 64.2988C31.3013 64.2252 31.3324 64.1517 31.3636 64.0707C31.4509 63.8721 31.5381 63.6808 31.6441 63.5042C31.7065 63.4968 31.7626 63.5483 31.7813 63.6219C31.9683 64.5858 32.3922 65.4025 32.8597 66.2045C33.2649 65.5202 34.0379 65.7703 34.7049 65.7924C35.9642 65.8366 37.2359 65.9322 38.4951 65.8366C39.717 65.7336 40.9637 65.3289 42.1918 65.3583C42.7279 65.373 43.264 65.4098 43.8064 65.454C44.4547 65.4613 45.1092 65.4981 45.7763 65.5864C48.3758 65.6673 50.9753 65.5864 53.5748 65.557C53.6122 65.557 53.6559 65.557 53.687 65.557C54.3229 65.6453 54.9463 65.7483 55.5821 65.7924C57.4211 65.9249 59.2601 66.0205 61.1053 66.1824C62.5017 66.3001 63.7048 66.4031 64.8145 65.4319C65.1698 65.2627 65.5002 64.9978 65.8056 64.7035C66.0238 64.549 66.3106 64.343 66.5288 64.2915C66.5475 64.4239 66.5786 64.5563 66.6223 64.674C66.7033 64.9021 66.9776 64.6814 67.015 64.5343C67.1335 64.0634 67.3329 63.6513 67.6384 63.3129C67.682 63.3202 67.7381 63.3497 67.7568 63.4012C67.7693 63.46 67.7755 63.5189 67.788 63.5704C67.9314 64.6299 68.0311 65.7041 68.1745 66.7636C68.4924 66.9549 68.9974 67.0064 69.8015 66.8298C69.9761 66.8225 70.1132 66.8151 70.1382 66.8078C71.4597 66.8298 72.9185 67.2345 74.1091 67.5803C75.7798 68.0659 77.5564 67.882 79.3144 67.7496C81.8017 67.5656 84.2703 67.676 86.7389 67.7643C87.0568 66.9549 87.4808 66.2045 87.7987 65.3877C87.8423 65.2774 87.9982 65.2847 88.0418 65.3951C88.2413 65.866 88.235 66.4031 88.2724 66.9181C88.3036 67.2419 88.3286 67.5877 88.3784 67.9335C88.8273 68.1027 89.4694 67.8894 89.9369 67.9409C91.2148 68.0807 92.5738 67.7348 93.858 67.7496C95.3666 67.7643 96.6694 66.9181 98.1469 66.874C98.6394 66.8593 99.1318 66.9549 99.6243 67.08C99.6555 67.1021 99.6929 67.1094 99.724 67.1315C99.7801 67.1609 99.8487 67.1904 99.9235 67.2124C100.123 67.3302 100.31 67.4773 100.453 67.676C100.497 67.7348 100.603 67.7054 100.647 67.6539C101.289 66.9696 102.18 66.6312 102.891 66.0647C102.959 66.0131 103.016 65.9616 103.078 65.9101C103.171 65.8439 103.259 65.7777 103.346 65.7115C103.969 65.2112 104.543 64.6593 105.029 64.1075C105.889 63.151 106.65 62.0842 107.329 60.9437C107.703 60.3183 108.096 59.634 108.283 58.8909C108.37 58.5525 108.57 58.1257 108.532 57.7652C108.52 57.6254 108.514 57.493 108.514 57.3679C108.383 57.206 108.19 57.1104 107.99 57.0368C108.289 56.9117 108.557 56.7645 108.726 56.5144C108.545 55.1017 108.402 53.689 108.327 52.269C108.277 51.2095 108.233 50.1353 108.271 49.0758C108.296 48.3915 108.364 47.6852 108.314 47.0009C107.934 46.92 107.541 46.8538 107.155 46.7949C106.588 46.714 106.026 46.4712 105.459 46.5374C105.291 46.5595 105.285 46.2652 105.428 46.2063C106.095 45.9561 106.799 45.8605 107.466 45.603C107.803 45.4705 108.121 45.2939 108.451 45.1321C108.358 43.7856 108.576 42.3435 108.726 41.0265C108.825 40.1509 108.863 39.2312 108.963 38.3189C108.963 35.4715 108.925 32.624 109 29.7766C108.838 29.3572 108.645 28.901 108.501 28.4007Z" fill="#98A2B3"/>
<path d="M94.8867 6.21733C94.7994 5.76115 94.8243 5.34913 94.656 4.94446C94.6809 4.94446 94.6996 4.95181 94.7246 4.96653C94.9615 5.15783 95.1983 5.34913 95.4352 5.54778C95.4415 5.5625 95.4352 5.56986 95.4415 5.57722C95.8654 6.40863 95.9776 7.3872 95.9589 8.35106C95.9402 9.62393 95.1672 10.2567 94.363 10.9262C94.3505 10.9336 94.3568 10.963 94.3692 10.9557C95.2295 10.4186 96.1147 9.91089 96.3454 8.70423C96.4638 8.10826 96.495 7.02667 96.2394 6.25412C96.6134 6.59257 96.9812 6.94574 97.3428 7.30627C97.4301 7.62265 97.5298 7.93167 97.5984 8.27012C97.7729 9.17512 97.4425 9.84467 97.0249 10.5436C96.9501 10.6614 97.0872 10.6982 97.1495 10.6025C97.5111 10.0286 97.8851 9.42528 97.8415 8.67479C97.829 8.35106 97.8041 8.01261 97.7106 7.70359C97.7106 7.69623 97.7043 7.68151 97.7043 7.67415C97.854 7.82131 98.0036 7.97581 98.147 8.13032C98.2467 8.85138 98.2779 9.6313 98.2592 10.3523C98.2218 11.2868 97.0436 12.0814 96.4638 12.5523C96.4451 12.567 96.4451 12.6038 96.47 12.5891C97.162 12.155 98.147 11.6179 98.4711 10.7055C98.6644 10.1684 98.7205 9.34434 98.6145 8.63065C99.0883 9.1604 99.5496 9.71959 99.9922 10.2788C99.9672 10.5804 100.03 10.8968 100.048 11.2058C100.086 12.0446 99.693 12.7215 99.2503 13.3175C99.2254 13.3469 99.2503 13.3837 99.2753 13.3616C99.6805 12.9349 100.023 12.4861 100.254 11.8975C100.354 11.6399 100.41 11.2132 100.397 10.8012C100.51 10.9483 100.628 11.0881 100.734 11.2426C100.69 11.7871 100.653 12.3389 100.603 12.8907C100.535 13.5456 100.198 13.9944 99.7989 14.4064C99.6867 14.5241 99.4561 14.8479 99.3127 14.8773C99.269 14.8847 99.2192 15.0024 99.2878 15.0024C99.4748 15.0098 99.5745 14.8773 99.7179 14.7449C100.036 14.4579 100.366 14.2666 100.603 13.862C100.946 13.2881 101.139 12.464 101.083 11.7062C101.407 12.155 101.731 12.6185 102.037 13.082C102.13 13.2145 102.211 13.3469 102.299 13.4867C102.18 13.8914 102.186 14.3991 102.087 14.8111C101.925 15.488 101.544 16.5107 100.952 16.8197C100.94 16.8271 100.933 16.8565 100.952 16.8492C101.476 16.7094 101.981 15.9442 102.224 15.4144C102.386 15.0686 102.573 14.5315 102.617 14.0238C102.885 14.4653 103.14 14.9215 103.39 15.3776C103.296 15.8044 103.252 16.2164 102.997 16.6137C102.816 16.8933 102.542 17.114 102.299 17.3201C102.006 17.5702 101.806 17.8792 101.413 17.9455C101.401 17.9455 101.389 17.9749 101.401 17.9749C101.725 17.997 101.956 17.8204 102.23 17.6291C102.536 17.4231 102.841 17.2686 103.097 16.9669C103.334 16.6799 103.552 16.3047 103.676 15.9074C103.969 16.4666 104.25 17.0331 104.53 17.6144C104.505 17.8204 104.4 18.0338 104.318 18.2177C104.206 18.4899 104.007 18.9093 103.751 19.0197C103.726 19.0344 103.701 19.1153 103.745 19.1153C104.032 19.0859 104.3 18.7769 104.462 18.5194C104.518 18.4164 104.63 18.2398 104.73 18.0411C105.01 18.6224 105.297 19.2183 105.553 19.829C105.441 19.9762 105.422 20.1896 105.328 20.3661C105.254 20.4986 105.073 20.5722 104.961 20.6604C104.792 20.7782 104.668 20.9695 104.462 20.9989C104.406 21.0063 104.35 21.146 104.431 21.1534C104.58 21.1755 104.699 21.1166 104.83 21.043C104.992 20.9474 105.154 20.8812 105.316 20.7929C105.515 20.6825 105.628 20.4618 105.709 20.2263C105.827 20.528 105.933 20.837 106.02 21.146C105.989 21.1976 105.964 21.2417 105.927 21.2858C105.871 21.3668 105.746 21.6022 105.653 21.5949C105.596 21.5875 105.534 21.6979 105.596 21.7347C105.721 21.8156 105.821 21.6979 105.927 21.6317C105.989 21.5949 106.045 21.5286 106.108 21.4551C106.157 21.6611 106.207 21.8745 106.251 22.0805C106.419 22.5219 106.588 22.9634 106.768 23.3975C106.444 23.1841 106.101 23.0075 105.758 22.8383C105.403 22.5219 105.042 22.2129 104.705 21.8965C103.028 20.2999 101.308 18.7916 99.562 17.2906C98.0036 15.9589 96.389 14.7743 94.8056 13.4941C94.7308 13.4352 94.6124 13.3469 94.469 13.2439C94.6809 13.0894 94.8742 12.8981 95.0425 12.6994C95.3106 12.3757 95.6472 12.052 95.8342 11.6547C95.8467 11.6252 95.8217 11.6105 95.8093 11.6326C95.5973 11.9416 95.2731 12.177 95.0051 12.4051C94.7495 12.6185 94.4565 12.8539 94.1698 13.0305C93.8768 12.8172 93.5214 12.5596 93.1599 12.2727C93.1723 12.258 93.1848 12.2433 93.1973 12.2359C93.3032 12.1255 93.4155 11.971 93.5464 11.8975C93.5775 11.8827 93.59 11.8165 93.5464 11.8239C93.4155 11.846 93.3282 11.9563 93.2098 12.0005C93.1349 12.0299 93.0477 12.0667 92.9666 12.1255C92.8793 12.0593 92.7983 11.9931 92.711 11.9195C92.3744 11.662 92.0502 11.4045 91.7199 11.1543C91.6637 11.1102 91.6451 11.0366 91.6638 10.9704C91.9505 10.963 92.3619 10.757 92.524 10.7055C93.2035 10.4995 93.7833 10.161 94.3194 9.646C94.843 9.14568 95.0799 8.35842 95.1235 7.59322C95.1609 7.15176 94.9677 6.66615 94.8867 6.21733Z" fill="white"/>
<path d="M66.828 2.16325C66.9901 2.41341 67.146 2.69301 67.2706 2.88431C67.5449 3.32577 67.6135 4.14982 67.6073 4.66486C67.6073 4.73108 67.6821 4.69429 67.6883 4.64279C67.7818 4.01738 67.8691 3.33312 67.6509 2.72979C67.5699 2.52378 67.4078 2.36191 67.2457 2.22947C67.5636 2.28833 67.8753 2.35455 68.187 2.42813C68.2805 2.67829 68.3803 2.92109 68.4301 3.20804C68.5361 3.75251 68.4239 4.59864 68.187 5.07689C68.1683 5.12104 68.212 5.1284 68.2307 5.09897C68.5922 4.49564 68.8229 3.34784 68.6047 2.51642C69.2779 2.66358 69.945 2.80337 70.587 2.89166C71.2229 2.97996 71.8525 2.98731 72.4821 2.95052C72.5071 3.00938 72.5258 3.06824 72.5382 3.13446C72.5632 3.23011 72.557 3.33313 72.557 3.43613C72.557 3.50971 72.5881 3.58329 72.6068 3.65686C72.6131 3.69365 72.6567 3.6495 72.6629 3.63479C72.7128 3.41406 72.7689 3.20068 72.7377 2.9726C72.7377 2.95788 72.7315 2.95052 72.7315 2.94316C73.1118 2.91373 73.4858 2.86224 73.8661 2.81073C73.9222 2.91374 73.972 3.0241 74.0219 3.14183C74.1029 3.36991 74.1279 3.63479 74.1528 3.88495C74.1591 3.93645 74.2152 3.89231 74.2152 3.85552C74.2401 3.51706 74.265 3.09767 74.159 2.76658C74.1965 2.75186 74.2401 2.75187 74.2775 2.74451C74.3648 2.90638 74.4333 3.0756 74.4707 3.27426C74.5144 3.50235 74.5767 3.83345 74.5331 4.06154C74.5206 4.10568 74.5767 4.0836 74.583 4.05417C74.6765 3.80401 74.664 3.44349 74.6578 3.17862C74.6515 3.00939 74.6391 2.84016 74.583 2.693C75.4245 2.54585 76.2723 2.36191 77.1139 2.21475C78.2734 2.00874 79.4329 1.8248 80.5924 1.65557C80.8604 2.28097 81.2095 2.7813 81.2719 3.51707C81.2781 3.60536 81.3903 3.53178 81.3903 3.46556C81.3966 3.05353 81.3405 2.67093 81.222 2.28097C81.1597 2.07496 81.0911 1.79537 80.9727 1.59672C81.6895 1.48635 82.4064 1.38334 83.1233 1.27298C83.3852 1.1994 83.6407 1.11847 83.8963 1.04489C84.0397 1.24355 84.233 1.40541 84.3639 1.58199C84.6569 1.98667 84.7691 2.47227 84.9935 2.91373C85.0371 3.00202 85.1556 2.89166 85.1369 2.81809C85.006 2.29569 85.0247 1.85423 84.7441 1.38334C84.6444 1.22147 84.5259 1.04489 84.3888 0.897737C84.5883 0.838875 84.7878 0.772654 84.981 0.721151C85.1369 0.706435 85.3114 0.669645 85.4984 0.618142C85.648 0.809441 85.8351 0.971308 85.966 1.17732C86.1966 1.55256 86.3525 2.12646 86.4335 2.57528C86.4397 2.59735 86.4584 2.58264 86.4584 2.56792C86.5021 2.04553 86.4086 1.58936 86.2278 1.11847C86.1343 0.868306 85.9722 0.69172 85.7914 0.537209H85.7976C85.8351 0.529851 85.8787 0.529846 85.9161 0.522488C85.941 0.559277 85.966 0.596065 85.9971 0.632853C86.0782 0.728503 86.1218 0.846229 86.1966 0.949237C86.3275 1.12582 86.4335 1.34655 86.5332 1.55993C86.5644 1.62615 86.6517 1.53785 86.633 1.47163C86.5457 1.23618 86.4584 1.0081 86.34 0.787372C86.2901 0.691722 86.2527 0.588707 86.1966 0.4857C86.6392 0.463627 87.0881 0.522495 87.5618 0.713795C87.5805 0.713795 87.5992 0.728505 87.6179 0.735862C87.9795 1.40541 88.0668 2.39134 87.9795 3.12711C87.9733 3.15654 88.0107 3.14182 88.0169 3.11975C88.1478 2.63414 88.285 1.65557 88.1166 0.956593C88.2351 1.01545 88.3535 1.07431 88.472 1.14789C88.6465 2.00138 88.6715 3.01675 88.5405 3.98796C87.3748 3.13447 84.5883 3.78194 83.4413 3.93645C83.3353 3.74515 83.1483 3.56857 83.0361 3.4582C82.8179 3.23011 82.7368 2.84752 82.4999 2.66358C82.369 2.56057 82.2257 2.72243 82.2007 2.87694C82.182 3.01674 82.2132 3.14918 82.2319 3.28162C82.2506 3.45084 82.2257 3.61271 82.2381 3.78194C82.2381 3.85552 82.2319 3.96589 82.2444 4.06154C81.2968 4.15719 80.3493 4.26019 79.4017 4.4147C78.9404 4.53978 78.4417 4.62072 77.9368 4.69429C77.6251 4.76051 77.3134 4.84145 77.0017 4.92238C76.0915 5.1799 75.2063 5.51835 74.3149 5.84209C73.997 5.95981 73.6853 6.07018 73.3736 6.16583C73.0931 6.12168 72.825 6.08489 72.6068 6.09961C72.0645 6.1364 72.133 4.59864 72.158 4.23811C72.1705 3.97324 71.9086 4.12039 71.8525 4.26755C71.653 4.82673 71.4723 5.39327 71.3164 5.97453C71.2852 6.11433 71.2167 6.19526 71.1419 6.24676C70.8613 6.21733 70.5808 6.19526 70.3065 6.17318C70.2629 6.15847 70.2255 6.15111 70.1881 6.14375C69.253 5.94509 67.8753 5.52571 66.8966 5.82738C66.9091 5.60665 67.0587 5.19462 67.0836 5.06218C67.1148 4.84145 67.1335 4.61336 67.1397 4.37055C67.1086 3.98796 67.0587 3.60536 67.0213 3.22276C66.9091 2.77394 66.7221 2.36927 66.4353 2.09703C66.5662 2.11175 66.6971 2.14118 66.828 2.16325Z" fill="white"/>
<path d="M34.2186 4.92239C34.2124 4.91503 34.2124 4.90032 34.2124 4.89296C34.2062 4.84881 34.1937 4.80467 34.1812 4.76053C34.1625 4.67959 34.1438 4.59865 34.1251 4.52508C34.1064 4.4515 34.0815 4.39264 34.0565 4.32642C34.3495 4.43679 34.6363 4.53979 34.9293 4.63544C35.2659 5.32706 35.6961 6.28356 35.2659 7.05612C35.2472 7.08555 35.2784 7.10027 35.2971 7.07819C35.7771 6.38657 35.5838 5.48893 35.2784 4.75316C35.6774 4.87824 36.0763 4.98125 36.4753 5.06955C36.5501 5.44479 36.893 5.7023 36.9491 6.10698C37.0114 6.48957 37.1361 7.21062 36.9865 7.58587C36.974 7.60794 37.0052 7.6153 37.0176 7.60059C37.2545 7.28421 37.2109 6.74709 37.1922 6.35714C37.1797 5.93039 37.0924 5.49629 36.8743 5.15783C36.9615 5.17991 37.055 5.18726 37.1423 5.19462C37.2171 5.30499 37.2732 5.41536 37.3293 5.57723C37.4415 5.90832 37.5039 6.24678 37.5288 6.59994C37.5288 6.65145 37.5911 6.6073 37.5911 6.57051C37.6036 6.19527 37.5724 5.82739 37.4976 5.45951C37.4789 5.38593 37.4665 5.31235 37.4478 5.23878C38.1522 5.31971 38.8691 5.32707 39.6109 5.20934C40.465 5.0769 41.3128 4.87825 42.1419 4.61337C42.1668 4.66488 42.1917 4.72374 42.2167 4.76788C42.2977 4.96654 42.36 5.19463 42.4099 5.40064C42.491 5.71702 42.4099 6.07019 42.4972 6.37921C42.5097 6.40865 42.5533 6.3645 42.5471 6.34243C42.4972 5.90097 42.653 5.50365 42.5408 5.06219C42.5034 4.90768 42.4785 4.70902 42.4162 4.53243C42.6281 4.46621 42.8338 4.38528 43.0395 4.30435C43.1019 4.43678 43.1891 4.56186 43.2577 4.67959C43.4136 4.92975 43.5195 5.18726 43.5445 5.48893C43.5445 5.52572 43.5881 5.49629 43.5943 5.46686C43.6255 5.19463 43.5819 4.94447 43.5071 4.68695C43.4634 4.54715 43.4011 4.36321 43.3263 4.20134C43.613 4.09097 43.8936 3.96589 44.1741 3.83345C45.0406 3.43614 45.932 3.03883 46.8484 2.83281C46.9544 2.81074 47.0479 2.79603 47.1476 2.78131C47.1227 2.86225 47.1352 2.93582 47.2162 2.97261C47.6027 3.12712 47.7212 3.89232 47.8084 4.30435C47.8895 4.6943 47.8396 5.09897 47.9456 5.48893C47.9518 5.511 47.9767 5.50365 47.983 5.49629C48.0017 5.47422 48.0266 5.45214 48.0515 5.43743C48.0578 5.43007 48.064 5.40064 48.0453 5.408C48.0079 5.42271 48.064 4.82674 48.0703 4.71637C48.0952 4.39999 48.089 4.09833 48.064 3.78931C48.0329 3.46557 47.9019 3.04619 47.69 2.78867C48.0266 2.84017 48.3258 2.97996 48.6438 3.17126C48.731 3.39935 48.8308 3.62745 48.9181 3.84082C49.0739 4.24549 48.9742 4.70902 49.1362 5.09162C49.1736 5.19463 49.2921 5.05483 49.2734 4.97389C49.2111 4.7458 49.2734 4.4515 49.2671 4.21606C49.2671 4.12777 49.2484 4.03947 49.236 3.95854C49.2671 3.98061 49.3046 4.00268 49.3357 4.01739C49.5103 4.33377 49.6724 4.70166 49.8407 5.03276C49.9716 5.50365 50.0526 5.99661 50.1087 6.49694C49.5851 5.94511 48.6999 5.85682 48.0703 5.95247C46.6302 6.16584 45.1653 6.37185 43.7751 6.90896C43.2265 7.12234 42.5097 7.24742 41.9985 7.57115C41.0447 8.18184 41.132 6.65144 40.5585 6.48221C40.3652 6.42335 40.2156 6.54108 40.1034 6.71767C39.9725 6.93104 39.8478 7.56379 39.6171 7.58587C38.9564 7.63737 38.3641 7.99054 37.7221 8.10827C36.4192 8.329 34.9231 8.50558 33.5703 8.47615C33.6015 8.40257 33.6264 8.32163 33.6513 8.2407C34.1937 7.15912 34.4119 5.99661 34.2186 4.92239Z" fill="white"/>
<path d="M4.5393 6.68089C4.60163 6.63674 4.6702 6.59996 4.73254 6.56317C5.21255 6.58524 5.66762 6.58524 6.16633 6.73239C6.61517 6.87219 7.42557 7.23272 7.3757 7.92434C7.36946 7.95377 7.40687 7.94641 7.4131 7.92434C7.69362 6.80597 6.42192 6.23942 5.41203 6.15113C5.53048 6.07755 5.64892 6.01134 5.76736 5.94512C6.09153 6.00398 6.41568 6.02605 6.74608 6.06284C7.32582 6.1217 7.76843 6.27622 8.26714 6.60731C8.31078 6.63674 8.37935 6.53374 8.34195 6.48959C7.94298 6.08492 7.61259 5.83475 7.10764 5.63609C6.95803 5.57723 6.80218 5.51838 6.65257 5.46687C7.0266 5.27557 7.3944 5.09899 7.7809 4.92976C7.93051 4.83411 8.09259 4.75318 8.24844 4.66489C8.31078 4.6796 8.37311 4.69432 8.44169 4.72375C8.5913 4.78997 8.72844 4.86354 8.87806 4.9224C9.20845 5.04748 9.56378 5.1137 9.89417 5.26085C9.91287 5.26821 9.95028 5.22407 9.93158 5.202C9.61988 4.95184 9.28326 4.77525 8.97156 4.54716C8.89052 4.4883 8.80948 4.4368 8.72221 4.39265C8.94039 4.27493 9.16481 4.15721 9.383 4.03948C9.52638 4.09099 9.67599 4.12777 9.8256 4.1572C9.95028 4.18663 10.0874 4.194 10.2183 4.20871C10.3305 4.22343 10.4178 4.297 10.53 4.297C10.555 4.297 10.5861 4.25285 10.555 4.23814C10.4739 4.20135 10.4365 4.11306 10.3617 4.08363C10.2433 4.02477 10.1248 3.9659 10.0064 3.89969C9.94405 3.8629 9.88171 3.83347 9.81937 3.8114C10.0625 3.67896 10.3056 3.54652 10.5487 3.42144C10.5612 3.41408 10.5737 3.39936 10.5861 3.392C10.6111 3.39936 10.6298 3.40673 10.6547 3.40673C10.742 3.40673 10.8293 3.41408 10.9165 3.42879C11.0911 3.45822 11.2719 3.50973 11.4402 3.44351C11.4713 3.43616 11.515 3.34786 11.4589 3.34786C11.2843 3.35522 11.1222 3.22278 10.9664 3.13449C10.9539 3.12713 10.9477 3.12713 10.9352 3.11977C11.1783 2.95055 11.4464 2.79604 11.7207 2.6636C11.7955 2.67096 11.8703 2.67831 11.9389 2.68567C12.2319 2.72246 12.5311 2.70038 12.8241 2.69303C12.8615 2.68567 12.9238 2.59738 12.8677 2.58266C12.6932 2.53116 12.5249 2.4723 12.3503 2.4208C12.4376 2.39136 12.5124 2.36194 12.5997 2.33986C12.6121 2.33986 12.6246 2.33986 12.6371 2.33986C12.6433 2.33986 12.6495 2.33986 12.6558 2.33986C12.6745 2.32515 12.6994 2.31779 12.7243 2.30307C12.7929 2.26629 12.8553 2.29571 12.8927 2.34722C13.0859 2.35458 13.2792 2.36929 13.4599 2.38401C13.1607 2.65624 12.8303 2.91376 12.5934 3.16392C11.7768 4.01005 11.0412 4.86355 10.3368 5.8274C9.76326 6.60731 9.21468 7.41666 8.68481 8.23336C8.38558 8.69689 7.91804 10.5657 7.53154 9.3738C7.357 8.8514 6.37205 8.0862 5.96685 7.83604C5.25619 7.39458 4.60787 7.20328 3.81617 7.37987C3.75383 7.39458 3.68526 7.41665 3.62915 7.43872C3.8785 7.16649 4.17773 6.91634 4.5393 6.68089Z" fill="white"/>
<path d="M20.3732 65.763C19.6626 65.6894 18.9457 65.6526 18.2288 65.579C18.2537 65.4834 18.2662 65.3951 18.3036 65.2994C18.3597 65.1449 18.1727 65.1376 18.1228 65.2553C18.0854 65.3436 18.0355 65.4466 18.0106 65.5496C17.8049 65.5275 17.5929 65.4981 17.3934 65.4613C17.3997 65.454 17.3997 65.4466 17.4059 65.4319C17.4495 65.3436 17.462 65.2185 17.4932 65.1302C17.5243 65.0199 17.5555 64.9169 17.5867 64.8065C17.6054 64.7182 17.5243 64.7255 17.4932 64.7844C17.3872 64.9904 17.2625 65.2112 17.1254 65.4025C17.1254 65.4025 17.1191 65.4025 17.1191 65.4098C16.876 65.3583 16.6391 65.3068 16.396 65.2332C16.4334 65.1449 16.4708 65.064 16.4958 65.0051C16.6204 64.7476 16.7825 64.5048 16.8823 64.2399C16.9134 64.1737 16.8511 64.1664 16.8199 64.2105C16.7015 64.4018 16.5394 64.571 16.4147 64.755C16.315 64.8874 16.2215 65.0199 16.1217 65.1523C16.1217 65.1449 16.1155 65.1449 16.1155 65.1449C15.5482 64.9536 15.0059 64.6667 14.4698 64.3062C14.5633 64.1958 14.6817 64.1222 14.7814 64.0119C14.9124 63.8647 15.0183 63.6734 15.1305 63.4968C15.3238 63.1952 15.4983 62.8935 15.5669 62.5183C15.5731 62.4741 15.5233 62.4962 15.517 62.5256C15.3674 62.9597 15.0682 63.2393 14.7939 63.5557C14.6194 63.7543 14.4012 63.9236 14.2391 64.1443C14.1581 64.0928 14.0833 64.0266 14.0022 63.9677C14.0895 63.8868 14.1581 63.7764 14.2329 63.6734C14.3388 63.5262 14.4448 63.3791 14.5508 63.2246C14.5757 63.1878 14.557 63.1363 14.5196 63.1731C14.4012 63.2982 14.2765 63.4232 14.1581 63.5483C14.0583 63.644 13.9399 63.7323 13.8775 63.8647C13.3103 63.4232 12.7554 62.9303 12.238 62.4005C12.5435 62.3417 12.8926 62.0474 13.0734 61.8634C13.2604 61.6574 13.3913 61.422 13.5284 61.1791C13.6968 60.8848 13.8962 60.62 14.0459 60.3183C14.0708 60.2668 14.0209 60.23 13.996 60.2742C13.7279 60.6788 13.3788 61.1276 13.0422 61.4661C12.7243 61.7825 12.2879 61.8193 11.9575 62.1283C11.7954 61.9517 11.6333 61.7825 11.4775 61.6133C11.7643 61.4955 11.9949 61.2674 12.2443 61.0394C12.5871 60.7156 12.9736 60.3257 13.1918 59.8621C13.2043 59.8401 13.1793 59.8253 13.1606 59.8401C12.9425 60.1564 12.637 60.3772 12.3502 60.5979C12.0074 60.8554 11.6708 61.1056 11.2718 61.238C11.2469 61.2454 11.2219 61.2674 11.1907 61.2969C11.1471 61.2454 11.1035 61.1939 11.0598 61.1424C11.1783 61.0688 11.2967 60.9511 11.384 60.8701C11.6708 60.5979 11.9326 60.3477 12.1757 60.0093C12.2006 59.9725 12.1757 59.921 12.1383 59.9578C11.9076 60.1932 11.6521 60.4434 11.3653 60.5685C11.2032 60.6347 10.9975 60.7598 10.8354 60.8996C10.4614 60.4802 10.1061 60.0681 9.76319 59.6782C10.0998 59.4942 10.5113 59.0086 10.6546 58.8762C11.1346 58.4347 11.7269 57.802 11.9139 57.0956C11.9326 57.0368 11.864 57.0368 11.8453 57.0809C11.5648 57.7358 10.8915 58.2508 10.399 58.6702C10.1684 58.8688 9.75072 59.1411 9.51384 59.3986C9.42033 59.2882 9.33929 59.1852 9.24578 59.0822C9.38293 58.9939 9.50761 58.8762 9.61981 58.7511C9.81306 58.5304 10.0063 58.3464 10.1871 58.0889C10.212 58.0521 10.1871 58.0006 10.1497 58.0374C9.82553 58.3685 9.44527 58.626 9.07747 58.8762C8.62863 58.3465 8.18603 57.824 7.74966 57.2869C7.99901 57.2281 8.2546 57.0956 8.43538 56.9632C9.04007 56.5291 9.60734 56.0656 9.98761 55.3445C10.0063 55.3077 9.96891 55.2857 9.95021 55.3151C9.35176 56.198 8.37928 56.691 7.4442 56.9117C7.35069 56.8013 7.26342 56.6836 7.16991 56.5659C7.31329 56.4923 7.45043 56.3893 7.56888 56.3084C7.78706 56.1612 8.01771 56.095 8.22343 55.9184C8.40421 55.7639 8.56006 55.5726 8.71591 55.3887C8.72837 55.3739 8.72214 55.3592 8.70344 55.3666C8.17356 55.808 7.55017 56.0141 6.93302 56.2569C6.76471 56.0435 6.5964 55.8228 6.42185 55.6094C6.71484 55.477 6.98913 55.1826 7.16991 54.9546C7.18238 54.9398 7.17614 54.9104 7.15744 54.9251C6.97043 55.0428 6.75848 55.1532 6.55276 55.2047C6.43431 55.2342 6.27847 55.2415 6.16626 55.293C5.85457 54.8957 5.54911 54.4984 5.23118 54.0937C5.96054 54.182 7.0577 53.7553 7.45667 53.4683C8.44785 52.7399 9.10864 51.4449 9.32682 50.1059C9.33929 50.0617 9.28942 50.0838 9.27695 50.1132C8.95903 51.2684 8.32941 52.166 7.56888 52.9606C7.20731 53.3359 6.48418 53.4389 6.01041 53.5272C5.73612 53.5787 5.23742 53.6743 4.90079 53.6596C4.76988 53.483 4.63273 53.3064 4.50182 53.1299C4.47688 53.1004 4.45818 53.071 4.43325 53.0416C4.73247 53.0784 5.0878 53.0121 5.31846 52.9533C6.02912 52.762 6.59639 52.2617 7.13251 51.7245C7.15121 51.7098 7.15121 51.6657 7.12627 51.6804C6.266 52.2322 5.18754 52.6443 4.18389 52.6958C3.93454 52.3279 3.70389 51.9526 3.47323 51.5627C5.4743 51.7981 7.38186 50.5179 7.73719 48.0016C7.73719 47.9795 7.71225 47.9868 7.71225 48.0016C7.07017 50.4369 5.20001 51.055 3.29245 51.2757C3.17401 51.0844 3.03063 50.9299 2.88102 50.7754C3.53557 50.9152 4.33974 50.7386 4.89455 50.5473C5.57404 50.3119 6.30964 49.7306 6.64003 48.9875C6.6712 48.9286 6.60886 48.9139 6.57769 48.9581C6.12262 49.7233 5.37456 49.9366 4.67637 50.1794C4.28987 50.3119 3.91584 50.3339 3.51687 50.3413C3.20518 50.3487 2.93089 50.4958 2.62543 50.4958C2.51322 50.3781 2.40725 50.253 2.31374 50.1059C2.3075 50.0985 2.3075 50.0985 2.30127 50.0911C3.03063 50.1941 3.98441 49.9293 4.45195 49.7085C5.77976 49.0684 6.37198 48.0089 7.03277 46.5595C7.30705 45.9414 7.89304 45.007 8.19226 44.1241C8.68474 46.2872 9.93151 50.8637 10.0562 51.364C10.3242 52.4088 10.4115 53.8656 10.8915 54.8074C11.1596 55.3298 11.8515 55.7124 12.238 56.1097C12.7679 56.6468 13.2666 57.2649 13.7404 57.8682C14.6007 58.9571 15.0246 60.7524 15.7352 61.9958C16.3461 63.0774 17.3186 63.9456 18.2288 64.6446C19.0953 65.2994 20.0241 65.4687 20.9779 65.7115C20.7722 65.7335 20.5727 65.7483 20.3732 65.763Z" fill="white"/>
<path d="M66.0613 62.3049C66.0052 63.0259 65.7185 63.6219 65.3444 64.1811C65.3257 64.2032 65.3133 64.2252 65.2946 64.24C65.8057 63.0627 65.787 61.6721 64.8208 60.6568C64.8021 60.6347 64.7647 60.6788 64.7772 60.7009C65.1574 61.4072 65.2696 62.4005 65.1699 63.2246C65.0826 63.9456 64.64 64.4533 64.3782 65.064C63.8733 65.3289 63.3184 65.4172 62.7449 65.4466C62.7823 65.3583 62.8197 65.2774 62.8509 65.1964C63.013 64.8286 63.0878 64.4533 63.1626 64.056C63.1813 63.9824 63.0878 64.0192 63.0753 64.0634C62.9569 64.3871 62.8509 64.6961 62.6888 64.9904C62.6015 65.1302 62.5205 65.2995 62.4208 65.454C62.3647 65.4613 62.3086 65.4613 62.2525 65.4613C62.0093 65.4687 61.76 65.4613 61.5169 65.4466C61.7974 65.064 61.9782 64.4975 62.1153 64.056C62.3709 63.2246 61.9221 62.2534 61.5854 61.5544C61.573 61.5397 61.5543 61.5618 61.5605 61.5765C61.8036 62.3637 61.9906 63.2025 61.7974 64.0413C61.6789 64.5563 61.3797 64.9684 61.1678 65.4319C60.2389 65.3804 59.3163 65.2406 58.3875 65.1155C58.4498 64.9463 58.4997 64.7771 58.5371 64.5931C58.6056 64.2179 58.5932 63.8721 58.4872 63.5042C58.4872 63.4821 58.4623 63.5115 58.4623 63.5263C58.481 63.9456 58.3812 64.3356 58.2628 64.7329C58.2191 64.8727 58.163 64.9904 58.1132 65.1082C57.976 65.1155 57.8451 65.1155 57.7142 65.1155C57.8139 65.1008 57.9075 65.0787 58.0072 65.064C57.6643 65.0199 57.3152 64.9757 56.9661 64.9463C56.9537 64.9463 56.9412 64.9463 56.9225 64.9389C56.9973 64.7108 57.0472 64.4607 57.0285 64.262C56.9724 63.5778 56.6732 62.9524 56.4425 62.3343C56.4176 62.2681 56.3365 62.3564 56.3428 62.4079C56.4051 62.8273 56.4612 63.254 56.5111 63.6734C56.5547 64.0413 56.5173 64.4386 56.4113 64.7844C56.3989 64.8286 56.3864 64.858 56.3802 64.8948C55.5573 64.8286 54.722 64.7844 53.8929 64.7918C54.0736 64.24 54.111 63.5336 53.9552 63.0627C53.9365 63.0112 53.8742 63.0774 53.8742 63.1142C53.9116 63.5778 53.737 63.9677 53.6248 64.4018C53.5936 64.5269 53.5251 64.6593 53.469 64.7918C53.2071 64.8212 52.9453 64.8433 52.6773 64.8654C53.1448 63.6955 53.0139 62.3932 52.3282 61.3263C52.3032 61.2969 52.2596 61.3557 52.2721 61.3852C52.6835 62.4594 52.7645 63.8426 52.2783 64.8948C51.5988 64.9463 50.9131 64.9757 50.2398 64.9904H50.2336C50.3707 64.7991 50.4829 64.571 50.5266 64.4092C50.6824 63.7691 50.5577 63.2393 50.4331 62.5992C50.4206 62.5256 50.3396 62.5918 50.3396 62.6507C50.3583 63.1878 50.4331 63.7323 50.2398 64.2473C50.1338 64.5269 49.9593 64.755 49.7972 64.9904C49.4793 64.9831 49.1676 64.9757 48.8497 64.9536C49.6601 64.2032 49.4481 62.5918 48.9556 61.6795C48.9307 61.6353 48.8808 61.6942 48.8933 61.731C49.0866 62.4005 49.1115 63.1437 48.9432 63.8279C48.8497 64.2179 48.6627 64.549 48.5629 64.9389C48.4756 64.9316 48.3884 64.9169 48.3073 64.9169V64.9095C48.3634 64.7771 48.3946 64.6593 48.432 64.5269C48.5193 64.24 48.5255 63.9309 48.513 63.6366C48.5068 63.6072 48.4756 63.6366 48.4756 63.6513C48.3946 64.0413 48.2637 64.3871 48.0704 64.7108C48.0393 64.7623 48.0019 64.8286 47.9582 64.8874C47.578 64.858 47.2039 64.8212 46.8237 64.7771C47.0294 64.365 47.1603 63.8868 47.2289 63.438C47.3224 62.7537 46.967 62.0768 46.6865 61.5029C46.6741 61.4808 46.6429 61.5103 46.6491 61.5323C46.7738 62.1062 46.8985 62.7169 46.8548 63.3129C46.8174 63.7985 46.6055 64.2694 46.4559 64.7403C46.2127 64.7108 45.9634 64.6814 45.7265 64.652C45.8013 64.4754 45.8574 64.2841 45.8948 64.1222C45.9634 63.8206 45.9946 63.4821 45.9696 63.1731C45.9634 63.1216 45.9073 63.1657 45.9073 63.1952C45.8574 63.563 45.7203 63.8721 45.5956 64.2032C45.5457 64.3356 45.446 64.4754 45.3712 64.6152C44.8974 64.5637 44.4174 64.5195 43.9436 64.4901C44.0621 64.2915 44.1556 64.0854 44.2054 63.8868C44.4797 62.9229 44.3551 62.1062 43.7753 61.3337C43.7628 61.3116 43.7379 61.3557 43.7441 61.3705C44.1057 62.1209 44.1556 62.8052 43.9125 63.6219C43.8439 63.85 43.7317 64.1811 43.5945 64.468C43.5696 64.468 43.5509 64.468 43.5322 64.468C43.4387 64.4607 43.3452 64.468 43.2517 64.468C43.2891 64.3871 43.3265 64.2988 43.3576 64.2326C43.5073 63.8794 43.6756 63.5557 43.6444 63.151C43.6382 63.1142 43.5945 63.1437 43.5945 63.1731C43.5696 63.5998 43.3327 63.9162 43.1395 64.2473C43.0896 64.3356 43.021 64.4165 42.9462 64.4901C42.6844 64.5122 42.4163 64.549 42.1483 64.6005C42.6906 63.9456 43.0522 63.1069 43.0335 62.1062C43.0148 61.2307 42.622 60.6126 42.0859 60.4287C42.9213 60.1712 43.9561 60.3992 44.7665 60.3698C45.8948 60.3183 46.992 60.5905 48.1265 60.5243C50.6326 60.3919 53.0326 61.1056 55.5448 60.9658C55.6633 60.9584 55.7817 60.9511 55.9002 60.9437C56.162 61.0762 56.3864 61.2454 56.5734 61.4588C56.6046 61.5103 56.6295 61.5544 56.642 61.5618C56.6732 61.5912 56.6919 61.6206 56.7168 61.6501C56.8851 61.8855 57.016 62.1724 57.1158 62.5256C57.1781 62.7684 57.4524 62.4594 57.4711 62.327C57.5334 61.9076 57.4462 60.9069 57.7329 60.9143C58.5121 60.9437 59.3225 60.8039 60.0768 60.6126C60.2826 60.5611 60.4883 60.517 60.7002 60.4655C60.9745 60.4213 61.2488 60.3698 61.5293 60.3183C61.8722 60.2521 62.2088 60.1564 62.5454 60.0755C62.6327 60.0608 62.7075 60.0387 62.7948 60.024C62.8634 60.0093 63.0442 59.9651 63.281 59.8989C63.599 59.8253 63.9169 59.7591 64.2411 59.715C64.4031 59.6414 64.5714 59.5825 64.7398 59.5163C64.852 59.4943 64.9517 59.4795 65.0265 59.4722C65.1013 59.4869 65.1761 59.5016 65.2385 59.5163C65.2572 59.531 65.2821 59.5384 65.3008 59.5384C65.3133 59.5458 65.3257 59.5458 65.332 59.5531C65.4317 59.6488 65.4878 60.0314 65.5564 60.1712C65.6873 60.4581 65.7372 60.7818 65.8743 61.0614C65.9242 61.1644 65.9741 61.2748 66.0239 61.3925C66.0613 61.6868 66.0925 61.9959 66.0613 62.3049Z" fill="white"/>
<path d="M107.896 58.8688C107.591 59.7959 107.161 60.642 106.643 61.4146C106.637 61.3999 106.631 61.3925 106.625 61.3852C106.575 61.3484 106.544 61.2822 106.506 61.2307C106.456 61.1424 106.363 61.0835 106.294 61.0099C106.263 60.9731 106.213 61.0394 106.226 61.0761C106.263 61.1718 106.332 61.2674 106.35 61.3631C106.369 61.4367 106.382 61.5323 106.419 61.5985C106.438 61.628 106.456 61.6353 106.475 61.6427C106.301 61.8928 106.114 62.1356 105.927 62.3637C105.902 62.2607 105.87 62.1577 105.827 62.0768C105.702 61.8193 105.478 61.65 105.278 61.4955C105.253 61.4808 105.222 61.525 105.241 61.547C105.384 61.7604 105.528 61.9738 105.596 62.2387C105.627 62.3711 105.602 62.5697 105.615 62.7243C105.428 62.9303 105.235 63.1216 105.041 63.3202C105.016 63.2172 104.985 63.1216 104.954 63.0333C104.879 62.7978 104.742 62.5992 104.58 62.4447C104.561 62.43 104.536 62.4594 104.543 62.4815C104.667 62.6948 104.723 62.9156 104.755 63.1731C104.773 63.3055 104.742 63.4674 104.767 63.6072C104.699 63.6808 104.636 63.7543 104.561 63.8206C104.43 63.9603 104.293 64.0854 104.156 64.2105C104.175 64.0045 104.15 63.7911 104.056 63.6219C103.857 63.254 103.583 63.0554 103.265 62.842C103.246 62.8273 103.227 62.8714 103.234 62.8861C103.47 63.2467 103.639 63.5483 103.707 63.9971C103.739 64.1664 103.689 64.4018 103.739 64.5637C103.551 64.7255 103.358 64.8727 103.159 65.0199C103.09 65.0787 103.015 65.1449 102.941 65.2038C102.99 65.0051 103.022 64.7844 102.978 64.6078C102.922 64.3209 102.722 63.9677 102.542 63.7617C102.523 63.7396 102.486 63.7838 102.498 63.8132C102.623 64.0854 102.722 64.5122 102.716 64.8212C102.71 65.0493 102.598 65.27 102.61 65.4907C102.535 65.5496 102.461 65.6085 102.392 65.6673C102.274 65.7703 102.149 65.8586 102.024 65.9543C102.174 65.5202 102.224 65.0934 102.124 64.5931C101.987 63.9309 101.457 63.644 100.983 63.3864C100.971 63.3791 100.958 63.4012 100.964 63.4159C101.301 63.8132 101.525 64.1737 101.675 64.7108C101.8 65.1744 101.775 65.6673 101.75 66.1456C101.557 66.278 101.351 66.381 101.151 66.4472C101.214 65.8071 101.189 65.1008 100.809 64.6078C100.584 64.3209 99.5182 62.9008 99.1504 63.0112C100.26 62.6654 101.395 62.636 102.529 62.5035C103.408 62.4005 104.1 61.8708 104.829 61.3042C105.783 60.5464 106.831 59.8768 107.716 58.9939C107.809 58.9056 107.878 58.81 107.94 58.6996C107.928 58.7585 107.921 58.81 107.896 58.8688Z" fill="white"/>
<path d="M108.059 30.8508C108.009 31.3585 107.996 31.8736 107.984 32.3812C107.94 34.8166 107.978 37.2667 107.971 39.7021C107.965 41.4165 107.984 43.1308 107.953 44.8525C107.155 45.1689 106.369 45.5294 105.571 45.8605C105.147 46.0444 104.692 46.015 104.368 46.4123C104.275 46.53 104.175 46.8538 104.362 46.92C105.291 47.2584 106.295 47.2437 107.255 47.3467C107.616 47.3247 107.778 47.5086 107.784 48.0972C107.803 49.6791 107.947 51.2463 108.015 52.8208C108.052 53.7258 108.109 54.6235 108.134 55.5285C108.134 55.5947 108.134 55.6609 108.134 55.7271C108.14 55.7786 108.146 55.8375 108.152 55.889C108.109 55.9184 108.065 55.9552 108.028 56.0067C107.984 56.0509 107.94 56.1097 107.909 56.1686C107.971 56.0509 107.772 56.2275 107.766 56.2275C107.46 56.4261 107.13 56.588 106.787 56.6542C106.681 56.6763 106.569 56.8308 106.594 56.9559C106.619 57.103 106.725 57.1987 106.862 57.1545C106.893 57.1398 106.93 57.1398 106.968 57.1324C107.036 57.206 107.117 57.2649 107.161 57.309C107.392 57.5003 107.616 57.9418 107.915 57.8976C107.703 58.6776 106.98 59.0013 106.438 59.4133C105.397 60.2153 104.362 61.032 103.265 61.7163C102.754 62.0327 101.812 61.9517 101.208 62.0474C100.628 62.143 100.048 62.3638 99.4685 62.5256C99.2191 62.5992 98.7952 62.7096 98.7141 63.0554C98.7017 63.0922 98.6955 63.151 98.7329 63.1731C99.2191 63.5557 99.7116 63.7543 100.086 64.3356C100.547 65.0272 100.69 65.6673 100.659 66.5208C100.559 66.5135 100.46 66.4988 100.36 66.4693C100.248 66.462 100.135 66.4473 100.023 66.4252C99.6243 66.3222 99.2378 66.175 98.8264 66.0867C98.0222 65.9028 97.2554 66.2045 96.4887 66.4693C95.192 66.9255 93.8393 67.1168 92.4865 67.2419C91.7135 67.3081 90.9343 67.389 90.1551 67.4185C89.7624 67.4332 89.0766 67.6024 88.7213 67.3449C88.5654 67.2345 88.5405 66.9329 88.528 66.6827C88.4719 66.4767 88.4345 66.1971 88.4034 65.8954C88.2849 65.3362 88.1602 64.7844 88.073 64.2179C88.0106 64.2326 87.9483 64.2767 87.9047 64.3356C87.4745 64.9242 87.2501 65.6968 87.007 66.4031C86.9135 66.668 86.7389 66.8666 86.5145 67.0064C83.8651 66.8666 81.2157 66.7195 78.5352 66.8593C75.6614 67.0064 73.1429 66.1971 70.294 66.1014C69.9948 66.0867 69.7517 66.0647 69.5584 66.0205C68.6795 65.5643 68.5797 65.0051 68.5049 64.3871C68.5423 63.9309 68.5049 63.4453 68.4052 63.0112C68.3241 62.6433 68.1184 62.3932 68.1807 61.9959C68.2119 61.8119 68.2555 61.628 68.2368 61.444C68.1994 61.1203 67.8691 61.3337 67.788 61.4882C67.5761 61.8487 67.495 62.2681 67.2768 62.636C67.1522 62.842 67.0462 63.048 66.9527 63.2614C66.9527 63.2614 66.9464 63.2614 66.9402 63.254C66.9714 63.0333 66.9028 62.7758 66.8716 62.5771C66.828 62.3196 66.8342 62.0621 66.7657 61.8046C66.7532 61.7531 66.7345 61.7016 66.722 61.6501C66.7283 61.3263 66.6659 60.9952 66.5911 60.6641C66.4976 60.4508 66.4103 60.2374 66.3168 60.0314C66.2981 59.9357 66.267 59.8474 66.2296 59.7518C66.1111 59.428 66.0675 59.0381 65.9116 58.7364C65.8804 58.6776 65.8181 58.6408 65.7558 58.6628C65.3942 58.7953 65.0451 58.9792 64.696 59.1632C64.6648 59.1779 64.6337 59.1926 64.59 59.1999C63.8108 59.3471 63.0316 59.4722 62.2586 59.6193C62.1339 59.6341 62.0092 59.6488 61.8846 59.6635C61.3547 59.7297 60.831 59.8842 60.3136 60.0314C59.9832 60.0829 59.6466 60.1417 59.3224 60.1712C58.7115 60.2668 58.1006 60.3257 57.4959 60.3772C57.3588 60.7083 57.2653 61.0541 57.2403 61.422C57.2341 61.525 57.1593 61.5912 57.0907 61.5838C56.9037 61.1571 56.6356 60.8039 56.3925 60.3698C56.2491 60.1123 55.8689 60.2962 55.526 60.4508C54.9774 60.4508 54.4164 60.4434 53.8554 60.414C51.2434 60.2447 48.6189 60.0314 46.0132 59.7812C44.7664 59.6561 43.5009 59.4943 42.2541 59.7738C42.1108 59.8033 41.9861 59.8401 41.8552 59.8916C41.6869 60.0167 41.5248 60.1565 41.3814 60.311C41.1133 60.5979 40.8391 60.9216 40.6957 61.3263C40.4962 61.8781 40.5835 62.2975 40.677 62.7905C40.7331 62.7905 40.7892 62.7611 40.8391 62.7243C41.2879 62.3343 42.0048 62.246 42.5721 62.2607C42.5845 62.6213 42.4536 63.0259 42.1856 63.4895C41.8365 64.2326 40.9887 64.3724 40.3653 64.5343C39.4053 64.7844 38.4079 64.7108 37.4354 64.6593C36.2759 64.6152 35.1226 64.5343 33.9569 64.5563C33.5143 64.5711 33.2026 64.5858 32.7662 64.6446C32.7538 64.652 32.7413 64.6446 32.7288 64.6446C32.6789 64.549 32.6228 64.4607 32.5667 64.365C32.0992 63.5851 32.2239 62.5256 32.2301 61.6353C32.2301 61.2086 31.7875 61.4588 31.7501 61.7531C31.6254 62.7758 31.0769 63.5483 30.6966 64.446C30.5781 64.7256 30.5096 64.9095 30.4472 65.0346C29.7864 65.1744 29.0882 65.2332 28.415 65.2995C28.1033 65.3289 27.7978 65.373 27.4799 65.4245C26.1521 65.4393 24.8305 65.476 23.5089 65.5349C21.4268 65.4245 19.2388 64.755 17.6117 63.2246C15.6855 61.4146 15.2491 58.5525 13.5597 56.5953C13.3104 56.3084 12.9613 55.992 12.6059 55.6536C12.4688 55.5579 12.3254 55.4622 12.182 55.374C11.0412 54.6529 10.9041 53.0637 10.5612 51.7098C9.87551 49.0243 9.63862 45.8311 8.46043 43.3074C8.41679 43.2338 8.37315 43.1676 8.32952 43.094C8.32952 43.0646 8.32328 43.0351 8.32328 43.0057C8.28588 42.9321 8.24224 42.8659 8.20484 42.7923C7.38197 42.8512 6.51547 43.1087 5.73624 43.4104C4.86973 43.7341 4.28375 44.5876 3.56062 45.1836C3.46711 45.2645 3.37361 45.5 3.52322 45.5735C3.86608 45.7354 5.08791 45.6177 5.15025 45.9929C5.25623 46.611 5.53675 47.229 5.96065 47.619C5.63026 48.0752 5.22506 48.4577 4.68271 48.7006C3.69776 49.142 2.37619 49.4216 1.78397 48.627C1.76527 48.5387 1.7528 48.4504 1.7341 48.3547C1.69046 47.5822 1.64683 46.817 1.62189 46.0444C1.65306 44.617 1.88994 43.2412 2.00839 41.7843C2.05826 41.2178 2.53203 40.6071 2.07696 40.0626C2.06449 40.0406 2.05203 40.0259 2.04579 40.0111C2.5445 39.8272 3.06815 39.6653 3.55439 39.452C4.25881 39.1429 5.75494 39.062 6.27235 38.2968C6.37209 38.1423 6.42819 37.8701 6.21001 37.8259C5.53675 37.7008 1.76527 37.642 1.80267 37.2226C1.84631 36.7885 1.88995 36.3764 1.90865 35.9718C1.79644 35.0226 1.70917 34.0588 1.7341 33.1023C1.7715 31.8809 1.61566 30.7993 1.05461 29.7472C1.00474 29.6515 1.05461 29.5338 1.13565 29.497C1.96475 29.1806 2.84373 29.3057 3.67283 28.9673C4.27751 28.7245 4.87596 28.4964 5.44324 28.18C5.42454 28.1653 5.41207 28.1579 5.38714 28.1432C4.65154 27.8342 4.19024 27.7606 3.32373 27.7459C1.70917 27.7165 1.98969 27.2161 1.79644 26.2964C1.57825 25.2516 1.62812 24.0597 1.58449 22.9928C1.54708 21.9554 1.86501 20.9106 1.78397 19.8806C1.7528 19.4244 1.3289 15.0907 1.09825 15.1054C2.58814 15.0392 4.1092 14.5021 5.51181 14.2372C6.5217 14.0459 7.50665 14.0091 8.49783 13.7663C8.62251 13.7369 8.72849 13.5603 8.54147 13.5309C6.57157 13.2954 4.5331 12.9055 2.5445 12.8319C2.43229 12.8245 2.43852 12.1697 2.45723 11.5002C2.60684 10.7055 2.70035 9.88147 2.76892 9.06477C3.30503 8.21128 3.99075 7.66681 5.23129 8.226C5.74247 8.45408 6.21624 8.9029 6.67755 9.23399C7.24483 9.63131 7.32587 9.98448 7.55029 10.6467C7.57522 10.7202 7.65626 10.6982 7.6999 10.6687C8.1238 10.3818 8.30458 9.83732 8.529 9.34436C9.03394 8.25542 10.156 7.33572 10.848 6.37922C11.3654 5.66553 11.8828 4.94447 12.3628 4.19399C12.8241 3.46558 13.4475 2.97997 14.0023 2.39871C14.5821 2.45758 15.1618 2.50908 15.7727 2.47229C17.4683 2.37664 18.9271 1.74388 20.685 1.69974C21.2211 1.68502 27.9973 1.9499 27.9786 1.84689C28.1719 2.67095 28.334 3.78932 28.8638 4.69431C29.1631 5.34915 29.0197 6.20999 29.4124 6.82804C29.4872 6.9384 29.6244 6.76917 29.6493 6.6956C30.0919 5.42272 30.9085 4.72375 31.5506 3.6201C31.7563 3.55388 31.9932 3.61273 32.2737 3.83346C32.4047 3.93647 32.5293 4.04684 32.6478 4.1572C32.9782 4.52508 33.2649 4.92976 33.3148 5.02541C33.4644 5.33443 33.5392 5.65081 33.5704 5.96719C33.427 6.00397 33.2774 6.08492 33.1714 6.1217C32.947 6.19528 32.6166 6.1217 32.4795 6.40129C32.2862 6.77653 32.4608 7.24007 32.5605 7.63003C32.6478 7.96848 32.7974 8.66746 33.0717 8.88819C33.0654 8.89555 33.0654 8.91026 33.0592 8.91762C33.0717 8.91762 33.0842 8.91762 33.0966 8.91762C33.1029 8.92498 33.1029 8.92498 33.1029 8.92498C33.1465 8.95441 33.1964 8.94705 33.2338 8.91762C33.4706 8.91762 33.7075 8.92498 33.9444 8.95441C34.705 9.05006 35.4592 9.11627 36.2322 9.13099C36.2883 9.13099 36.3382 9.13835 36.3943 9.13835C36.9491 9.0427 37.4915 8.94705 38.0214 8.84404C38.4016 8.77047 38.7757 8.52031 39.1559 8.40258C39.3803 8.33636 39.7045 8.41729 39.9102 8.27014C39.9913 7.88754 40.1907 7.54174 40.2905 7.15178C40.3341 6.96784 40.5585 7.00462 40.5648 7.18857C40.5897 7.55645 40.7643 7.92433 40.945 8.24071C41.5248 8.58652 42.3165 8.09356 42.971 7.81397C44.1368 7.31365 45.29 6.96783 46.5243 6.80596C47.9207 6.62202 49.2298 6.02605 50.1088 7.74775C50.302 7.54909 50.5015 7.35043 50.6761 7.1297C51.0751 6.43072 51.181 5.48158 50.8382 4.74581C50.8319 4.7311 50.8319 4.72374 50.8319 4.71638C51.0002 4.54716 51.1686 4.38529 51.3431 4.22342C51.368 4.20135 51.3992 4.17927 51.4241 4.1572C51.4241 4.14984 51.4241 4.14985 51.4304 4.14249C51.499 4.08363 51.5738 4.01004 51.6423 3.94383C51.7919 3.81139 51.9353 3.66424 52.0912 3.5318C52.1161 3.50972 52.141 3.49501 52.1597 3.47294C53.2569 3.77461 57.6393 4.06891 58.0944 4.13513C59.3536 4.31907 60.6503 4.39265 61.9594 4.40001C62.296 5.10634 62.67 5.82739 62.8196 6.57788C62.8446 6.68824 62.8882 6.75446 62.9443 6.79125C63.6986 5.9304 63.5116 4.31907 63.7173 3.22278C63.8856 2.30307 64.4529 2.20006 65.1885 2.27364C67.0337 2.45022 66.6784 4.45151 66.3355 6.14377C67.3641 6.1732 68.3989 6.14378 69.415 6.34243C69.9823 6.4528 70.6307 6.90162 71.1917 6.85747C71.2166 6.85011 71.2353 6.85011 71.254 6.85011C71.3912 6.43072 71.572 6.04076 71.653 5.5993C71.6842 5.42272 71.8837 5.45215 71.9273 5.59195C72.027 5.90833 72.1392 6.22471 72.2639 6.53373C72.7751 6.48223 73.2738 6.46751 73.7912 6.313C74.3086 6.16585 74.8323 6.01869 75.3434 5.85682C76.4655 5.51101 77.5876 5.17256 78.7222 4.90032C79.7819 4.65016 80.8479 4.54716 81.9326 4.46623C82.076 4.45151 82.2069 4.43679 82.3441 4.42207C82.3565 4.28964 82.3565 4.14984 82.3565 4.0174C82.3503 4.0174 82.3441 4.0174 82.3441 4.0174C82.3378 3.98797 82.3503 3.9659 82.3565 3.93647C82.3503 3.73046 82.3441 3.52444 82.369 3.31842C82.3877 3.16391 82.5622 3.16391 82.6246 3.27428C82.8116 3.62745 82.9924 3.98062 83.1794 4.32643C83.329 4.31171 83.4786 4.297 83.6282 4.297C84.102 4.24549 84.582 4.11306 85.0558 4.07627C85.8288 4.01005 86.6018 3.95855 87.3748 4.03212C87.8236 4.07627 88.1104 4.23078 88.3909 4.62074C88.3971 4.62809 88.4096 4.63545 88.4158 4.6428C88.4158 4.65016 88.4158 4.65017 88.4158 4.65017C88.4158 4.65753 88.4221 4.66488 88.4221 4.66488C88.4844 4.76789 88.5841 4.84882 88.6777 4.92976C88.7649 4.70167 88.8335 4.45887 88.9021 4.21607C88.9145 3.9659 88.927 3.71574 88.9395 3.46558C88.9395 3.45086 88.9395 3.42879 88.9395 3.41408C89.1514 3.33314 89.4444 3.31842 89.7623 3.35521C90.2922 3.32578 90.8283 3.50237 91.3582 3.59066C92.019 3.70103 92.7359 3.78196 93.3032 4.23078C93.5027 4.38529 93.646 4.57659 93.7582 4.77525C93.7707 4.78996 93.7769 4.80467 93.7894 4.82675C93.7956 4.8341 93.8019 4.84146 93.8081 4.85618C93.833 4.90768 93.8642 4.96655 93.8892 5.03277C94.0325 5.3565 94.126 5.72438 94.257 6.10698C94.5063 6.82804 94.4128 7.6521 94.2196 8.38051C94.1884 8.49087 94.0575 8.55709 93.9827 8.45408C93.5962 7.9464 93.1785 7.48287 92.898 6.89426C92.1811 7.44609 91.6076 8.226 91.2522 9.15306C90.9779 9.87411 90.7847 10.9998 91.3894 11.5664C91.5078 11.6767 91.62 11.7871 91.726 11.9122C92.0128 12.0814 92.2995 12.258 92.5676 12.4714C92.9104 12.751 93.2284 13.0747 93.5401 13.3911C94.737 14.3476 95.9276 15.2967 97.1183 16.2459C99.1755 17.9087 101.177 19.6598 103.221 21.3447C103.271 21.3889 103.321 21.433 103.365 21.4698C103.583 21.6243 103.789 21.7788 104 21.9407C104.755 22.522 105.503 23.1179 106.22 23.7654C106.775 24.2731 107.379 24.766 107.772 25.465C107.784 25.4797 107.791 25.5018 107.791 25.5165C107.816 25.5533 107.841 25.5901 107.865 25.6342C107.915 25.7299 107.865 25.8403 107.778 25.8697C106.301 26.3994 104.73 26.3774 103.227 26.7379C103.739 26.8409 104.25 26.9145 104.767 26.9881C105.815 27.1352 106.955 27.0837 107.94 27.5472C108.034 27.5914 108.084 27.7312 107.996 27.8268C107.915 27.9151 107.46 28.386 107.111 28.7392C107.261 28.9158 107.448 29.0556 107.554 29.1733C107.772 29.4087 107.922 29.6515 108.034 29.9753C108.127 30.2696 108.084 30.5712 108.059 30.8508Z" fill="white"/>
<path d="M35.4354 20.1477H33.6626C33.5945 19.7689 33.4676 19.4356 33.282 19.1477C33.0964 18.8598 32.8691 18.6155 32.6001 18.4148C32.3312 18.214 32.0301 18.0625 31.6967 17.9602C31.3672 17.858 31.0168 17.8068 30.6456 17.8068C29.9751 17.8068 29.3748 17.9754 28.8445 18.3125C28.3179 18.6496 27.9013 19.1439 27.5945 19.7955C27.2914 20.447 27.1399 21.2424 27.1399 22.1818C27.1399 23.1288 27.2914 23.928 27.5945 24.5795C27.9013 25.2311 28.3198 25.7235 28.8501 26.0568C29.3804 26.3902 29.977 26.5568 30.6399 26.5568C31.0073 26.5568 31.3558 26.5076 31.6854 26.4091C32.0187 26.3068 32.3198 26.1572 32.5888 25.9602C32.8577 25.7633 33.085 25.5227 33.2706 25.2386C33.46 24.9508 33.5907 24.6212 33.6626 24.25L35.4354 24.2557C35.3407 24.8277 35.157 25.3542 34.8842 25.8352C34.6153 26.3125 34.2687 26.7254 33.8445 27.0739C33.424 27.4186 32.9429 27.6856 32.4013 27.875C31.8596 28.0644 31.2687 28.1591 30.6286 28.1591C29.621 28.1591 28.7232 27.9205 27.9354 27.4432C27.1475 26.9621 26.5263 26.2746 26.0717 25.3807C25.621 24.4867 25.3956 23.4205 25.3956 22.1818C25.3956 20.9394 25.6229 19.8731 26.0774 18.983C26.532 18.089 27.1532 17.4034 27.9411 16.9261C28.7289 16.4451 29.6248 16.2045 30.6286 16.2045C31.246 16.2045 31.8217 16.2936 32.3558 16.4716C32.8937 16.6458 33.3767 16.9034 33.8047 17.2443C34.2327 17.5814 34.5869 17.9943 34.8672 18.483C35.1475 18.9678 35.3369 19.5227 35.4354 20.1477ZM39.0987 22.8182V28H37.3999V16.3636H39.076V20.6932H39.1839C39.3885 20.2235 39.701 19.8504 40.1214 19.5739C40.5419 19.2973 41.0911 19.1591 41.7692 19.1591C42.3677 19.1591 42.8904 19.2822 43.3374 19.5284C43.7881 19.7746 44.1366 20.142 44.3828 20.6307C44.6328 21.1155 44.7578 21.7216 44.7578 22.4489V28H43.0589V22.6534C43.0589 22.0133 42.8942 21.517 42.5646 21.1648C42.2351 20.8087 41.7768 20.6307 41.1896 20.6307C40.7881 20.6307 40.4283 20.7159 40.1101 20.8864C39.7957 21.0568 39.5476 21.3068 39.3658 21.6364C39.1877 21.9621 39.0987 22.3561 39.0987 22.8182ZM47.0249 28V19.2727H48.7237V28H47.0249ZM47.8828 17.9261C47.5874 17.9261 47.3336 17.8277 47.1214 17.6307C46.9131 17.4299 46.8089 17.1913 46.8089 16.9148C46.8089 16.6345 46.9131 16.3958 47.1214 16.1989C47.3336 15.9981 47.5874 15.8977 47.8828 15.8977C48.1783 15.8977 48.4302 15.9981 48.6385 16.1989C48.8506 16.3958 48.9567 16.6345 48.9567 16.9148C48.9567 17.1913 48.8506 17.4299 48.6385 17.6307C48.4302 17.8277 48.1783 17.9261 47.8828 17.9261ZM57.549 21.4034L56.0092 21.6761C55.9448 21.4792 55.8426 21.2917 55.7024 21.1136C55.5661 20.9356 55.3804 20.7898 55.1456 20.6761C54.9107 20.5625 54.6172 20.5057 54.2649 20.5057C53.7839 20.5057 53.3823 20.6136 53.0604 20.8295C52.7384 21.0417 52.5774 21.3163 52.5774 21.6534C52.5774 21.9451 52.6854 22.1799 52.9013 22.358C53.1172 22.536 53.4657 22.6818 53.9467 22.7955L55.3331 23.1136C56.1361 23.2992 56.7346 23.5852 57.1286 23.9716C57.5225 24.358 57.7195 24.8598 57.7195 25.4773C57.7195 26 57.5679 26.4659 57.2649 26.875C56.9657 27.2803 56.5471 27.5985 56.0092 27.8295C55.4751 28.0606 54.8558 28.1761 54.1513 28.1761C53.174 28.1761 52.3767 27.9678 51.7592 27.5511C51.1418 27.1307 50.763 26.5341 50.6229 25.7614L52.2649 25.5114C52.3672 25.9394 52.5774 26.2633 52.8956 26.483C53.2138 26.6989 53.6286 26.8068 54.1399 26.8068C54.6967 26.8068 55.1418 26.6913 55.4751 26.4602C55.8085 26.2254 55.9751 25.9394 55.9751 25.6023C55.9751 25.3295 55.8729 25.1004 55.6683 24.9148C55.4676 24.7292 55.1589 24.589 54.7422 24.4943L53.2649 24.1705C52.4505 23.9848 51.8482 23.6894 51.4581 23.2841C51.0717 22.8788 50.8786 22.3655 50.8786 21.7443C50.8786 21.2292 51.0225 20.7784 51.3104 20.392C51.5982 20.0057 51.996 19.7045 52.5036 19.4886C53.0111 19.2689 53.5926 19.1591 54.2479 19.1591C55.1911 19.1591 55.9335 19.3636 56.4751 19.7727C57.0168 20.178 57.3748 20.7216 57.549 21.4034ZM63.6612 19.2727V20.6364H58.8942V19.2727H63.6612ZM60.1726 17.1818H61.8714V25.4375C61.8714 25.767 61.9207 26.0152 62.0192 26.1818C62.1177 26.3447 62.2446 26.4564 62.3999 26.517C62.5589 26.5739 62.7313 26.6023 62.9169 26.6023C63.0533 26.6023 63.1726 26.5928 63.2749 26.5739C63.3771 26.5549 63.4567 26.5398 63.5135 26.5284L63.8203 27.9318C63.7218 27.9697 63.5817 28.0076 63.3999 28.0455C63.218 28.0871 62.9908 28.1098 62.718 28.1136C62.2711 28.1212 61.8544 28.0417 61.468 27.875C61.0817 27.7083 60.7692 27.4508 60.5305 27.1023C60.2919 26.7538 60.1726 26.3163 60.1726 25.7898V17.1818ZM69.1229 28.1761C68.3047 28.1761 67.5907 27.9886 66.9808 27.6136C66.371 27.2386 65.8975 26.714 65.5604 26.0398C65.2232 25.3655 65.0547 24.5777 65.0547 23.6761C65.0547 22.7708 65.2232 21.9792 65.5604 21.3011C65.8975 20.6231 66.371 20.0966 66.9808 19.7216C67.5907 19.3466 68.3047 19.1591 69.1229 19.1591C69.9411 19.1591 70.6551 19.3466 71.2649 19.7216C71.8748 20.0966 72.3482 20.6231 72.6854 21.3011C73.0225 21.9792 73.1911 22.7708 73.1911 23.6761C73.1911 24.5777 73.0225 25.3655 72.6854 26.0398C72.3482 26.714 71.8748 27.2386 71.2649 27.6136C70.6551 27.9886 69.9411 28.1761 69.1229 28.1761ZM69.1286 26.75C69.6589 26.75 70.0982 26.6098 70.4467 26.3295C70.7952 26.0492 71.0528 25.6761 71.2195 25.2102C71.3899 24.7443 71.4751 24.2311 71.4751 23.6705C71.4751 23.1136 71.3899 22.6023 71.2195 22.1364C71.0528 21.6667 70.7952 21.2898 70.4467 21.0057C70.0982 20.7216 69.6589 20.5795 69.1286 20.5795C68.5945 20.5795 68.1513 20.7216 67.799 21.0057C67.4505 21.2898 67.1911 21.6667 67.0206 22.1364C66.8539 22.6023 66.7706 23.1136 66.7706 23.6705C66.7706 24.2311 66.8539 24.7443 67.0206 25.2102C67.1911 25.6761 67.4505 26.0492 67.799 26.3295C68.1513 26.6098 68.5945 26.75 69.1286 26.75ZM76.7862 22.8182V28H75.0874V19.2727H76.718V20.6932H76.826C77.0268 20.2311 77.3411 19.8598 77.7692 19.5795C78.201 19.2992 78.7446 19.1591 79.3999 19.1591C79.9946 19.1591 80.5154 19.2841 80.9624 19.5341C81.4093 19.7803 81.7559 20.1477 82.0021 20.6364C82.2483 21.125 82.3714 21.7292 82.3714 22.4489V28H80.6726V22.6534C80.6726 22.0208 80.5078 21.5265 80.1783 21.1705C79.8487 20.8106 79.3961 20.6307 78.8203 20.6307C78.4264 20.6307 78.076 20.7159 77.7692 20.8864C77.4661 21.0568 77.2256 21.3068 77.0476 21.6364C76.8733 21.9621 76.7862 22.3561 76.7862 22.8182Z" fill="#1C1C1C"/>
</svg>
