<svg width="109" height="68" viewBox="0 0 237 196" fill="none" xmlns="http://www.w3.org/2000/svg">
<g filter="url(#filter0_d_6_10287)">
<path d="M172.501 52.4007C172.345 51.8636 172.557 51.5693 172.9 51.3265C172.408 51.0543 171.934 50.7673 171.392 50.6717C171.217 50.6422 171.217 50.3626 171.398 50.3406C171.803 50.2964 172.208 50.2596 172.607 50.2008C172.37 49.5607 172.14 48.9205 171.915 48.2657C171.915 48.2878 171.915 48.3025 171.915 48.3172C171.878 48.2804 171.841 48.251 171.803 48.2142C171.784 48.1627 171.766 48.1112 171.747 48.0671C171.685 47.7507 171.616 47.4343 171.529 47.1253C171.398 46.728 171.261 46.3306 171.13 45.9407C170.793 45.0504 170.388 44.1675 170.033 43.314C169.627 42.3281 169.172 41.3716 168.692 40.4151C168.038 39.2452 167.34 38.1048 166.71 36.9055C166.043 35.8754 165.226 34.963 164.491 34.0065C164.379 33.8594 164.266 33.7122 164.154 33.5577C164.036 33.4106 163.911 33.2634 163.786 33.1163C162.926 32.0715 162.01 31.1665 161.037 30.2689C159.94 29.2609 158.806 28.6428 157.571 27.9291C157.135 27.6789 156.686 27.4876 156.225 27.3331C155.614 27.1418 154.984 26.98 154.361 26.8549C154.086 26.8255 153.806 26.8181 153.544 26.8475C153.426 26.877 153.307 26.9064 153.189 26.9285C153.183 26.9285 153.176 26.9211 153.17 26.9285C153.126 26.9432 153.033 26.9285 153.039 26.9064C153.014 26.899 153.008 25.2656 152.821 24.861C152.622 24.4489 152.26 24.5225 151.961 24.2061C151.736 24.081 151.499 24.0075 151.25 24.0001C150.122 23.9928 149.025 24.3606 147.921 24.4857C147.391 24.6034 146.868 24.7064 146.338 24.8168C144.63 25.1405 142.89 25.2951 141.176 25.5894C139.562 25.8616 137.398 26.4576 135.765 26.0308C134.363 25.6556 132.81 25.4569 131.37 25.3539C130.809 25.3098 130.323 25.2656 129.874 25.273C129.7 25.2951 129.525 25.3319 129.357 25.376C128.684 25.5452 127.929 25.7512 127.624 26.5679C127.543 26.796 127.474 27.0315 127.399 27.2596C127.356 27.9365 126.957 29.4448 126.926 29.2903C126.745 28.5619 126.277 27.3994 125.673 26.7445C125.168 27.083 124.65 27.4141 124.095 27.4214C122.948 27.4509 121.808 27.2522 120.661 27.2448C119.551 27.2375 118.522 26.8843 117.425 26.8107C117.126 26.7887 116.771 26.796 116.478 26.6709C116.359 26.8181 116.228 26.9653 116.091 27.083C115.636 27.4656 115.162 27.8261 114.72 28.2381C114.664 28.297 114.564 28.2528 114.526 28.1793C114.489 28.1057 114.458 28.0321 114.427 27.9585C113.803 27.2448 113.105 26.4649 112.257 26.2074C111.447 25.9499 110.624 26.2516 109.839 26.5606C109.103 26.877 108.349 27.1786 107.601 27.4361C106.398 27.9144 105.188 28.3558 103.929 28.5324C102.115 28.79 100.32 28.6649 98.5553 28.0983C97.9756 27.9144 97.2712 27.7599 96.6228 27.495C96.3298 27.2448 96.0493 26.8843 95.7376 26.7077C95.6691 26.6709 95.588 26.7445 95.5568 26.8107C95.3449 27.2154 94.9896 27.4729 94.6966 27.782C94.4348 28.0542 94.2477 28.3853 94.0296 28.709C93.7927 29.0475 93.5745 29.3786 93.4623 29.7685C93.456 29.7465 93.4498 29.7317 93.4498 29.717C93.4311 29.1799 93.3625 28.5913 93.2503 28.0174C93.2441 28.01 93.2441 28.01 93.2441 28.01C92.976 27.2669 92.7204 26.5164 92.4524 25.766C92.3589 25.582 92.2841 25.3981 92.1968 25.2068C90.8004 24.9713 88.9552 25.2509 87.5713 25.1847C86.0066 25.1111 84.6414 25.0964 83.2575 25.2068C82.871 25.2656 82.4907 25.3318 82.1104 25.4054C81.5182 25.5231 80.9198 25.6703 80.3151 25.7218C79.7291 25.7733 79.193 25.6482 78.6132 25.5379C77.0797 25.2362 75.6522 25.7218 74.2682 26.4944C73.0776 27.1639 71.8807 27.8261 70.69 28.503C69.437 29.2241 68.2214 30.004 67.0744 30.9237C66.1954 31.63 65.7653 32.2922 65.8027 33.6019C65.8338 34.4848 65.8962 35.3971 65.7902 36.2801C65.7528 36.6038 65.7092 37.0526 65.5034 37.3175C65.5221 37.3469 65.5284 37.369 65.5471 37.3911C65.6219 37.5014 65.7653 37.5162 65.9149 37.5088C67.7601 37.3984 69.6427 37.6412 71.4879 37.7222C69.9669 37.6559 68.4708 38.0312 67.0183 38.274C65.7341 38.4947 63.3964 38.1783 64.1445 39.672C65.5471 42.4826 64.5372 45.7052 64.9112 48.6189C65.0234 49.4797 64.6743 51.275 65.173 52.0328C65.2479 52.1432 65.5034 52.2609 65.6531 52.2609C66.6318 52.283 67.5107 52.1873 68.4271 52.3713C67.0245 52.673 65.3289 52.7539 64.4936 53.6442C64.905 54.8067 65.2666 55.9324 65.2853 57.2274C65.304 58.7504 65.0484 60.2808 65.2105 61.7965C65.3975 61.8112 65.5845 61.8038 65.7777 61.8333C66.2203 61.8995 66.6567 62.0025 67.0993 62.054C67.9409 62.157 69.7425 62.2821 69.6365 62.3704C69.3186 62.65 68.9071 62.6426 68.5331 62.7015C67.891 62.7898 67.2489 63.0178 66.638 63.2533C66.158 63.4299 65.6905 63.6433 65.2229 63.864C65.7154 65.2178 65.5221 66.9836 65.3663 68.3374C65.173 70.015 65.011 71.7073 65.1543 73.3701C66.2702 74.9741 67.3362 76.6295 68.5331 78.1599C69.9419 79.9552 71.3757 81.7358 72.8594 83.4501C74.2745 85.0835 75.6896 86.739 77.273 88.159C77.753 88.5931 78.2579 88.9978 78.7628 89.4025C79.6543 89.9249 80.5333 90.1603 81.4247 90.2559C82.4097 90.5208 83.4445 90.6533 84.3484 90.6459C85.8258 90.6459 87.2721 90.2854 88.7495 90.175C88.843 90.1677 88.9303 90.1677 89.0238 90.1603C90.3516 90.1309 92.3402 90.359 93.7864 89.7188C93.9921 89.7041 94.1854 89.7262 94.3724 89.7703C94.4659 89.7924 94.5594 89.7556 94.6155 89.6673C94.8836 89.2627 95.0706 88.7771 95.2639 88.2988C95.3013 88.2252 95.3324 88.1517 95.3636 88.0707C95.4509 87.8721 95.5381 87.6808 95.6441 87.5042C95.7065 87.4968 95.7626 87.5483 95.7813 87.6219C95.9683 88.5858 96.3922 89.4025 96.8597 90.2044C97.2649 89.5202 98.0379 89.7703 98.7049 89.7924C99.9642 89.8366 101.236 89.9322 102.495 89.8366C103.717 89.7336 104.964 89.3289 106.192 89.3583C106.728 89.373 107.264 89.4098 107.806 89.454C108.455 89.4613 109.109 89.4981 109.776 89.5864C112.376 89.6673 114.975 89.5864 117.575 89.557C117.612 89.557 117.656 89.557 117.687 89.557C118.323 89.6453 118.946 89.7483 119.582 89.7924C121.421 89.9249 123.26 90.0205 125.105 90.1824C126.502 90.3001 127.705 90.4031 128.814 89.4319C129.17 89.2627 129.5 88.9978 129.806 88.7035C130.024 88.549 130.311 88.343 130.529 88.2915C130.547 88.4239 130.579 88.5563 130.622 88.674C130.703 88.9021 130.978 88.6814 131.015 88.5343C131.133 88.0634 131.333 87.6513 131.638 87.3129C131.682 87.3202 131.738 87.3497 131.757 87.4012C131.769 87.46 131.776 87.5189 131.788 87.5704C131.931 88.6299 132.031 89.7041 132.175 90.7636C132.492 90.9549 132.997 91.0064 133.802 90.8299C133.976 90.8225 134.113 90.8151 134.138 90.8078C135.46 90.8298 136.918 91.2345 138.109 91.5803C139.78 92.0659 141.556 91.882 143.314 91.7496C145.802 91.5656 148.27 91.676 150.739 91.7643C151.057 90.9549 151.481 90.2045 151.799 89.3877C151.842 89.2774 151.998 89.2847 152.042 89.3951C152.241 89.866 152.235 90.4031 152.272 90.9181C152.304 91.2419 152.329 91.5877 152.378 91.9335C152.827 92.1027 153.469 91.8894 153.937 91.9409C155.215 92.0807 156.574 91.7348 157.858 91.7496C159.367 91.7643 160.669 90.9181 162.147 90.874C162.639 90.8593 163.132 90.9549 163.624 91.08C163.655 91.1021 163.693 91.1094 163.724 91.1315C163.78 91.1609 163.849 91.1904 163.924 91.2124C164.123 91.3302 164.31 91.4773 164.453 91.676C164.497 91.7348 164.603 91.7054 164.647 91.6539C165.289 90.9696 166.18 90.6312 166.891 90.0647C166.959 90.0131 167.016 89.9616 167.078 89.9101C167.171 89.8439 167.259 89.7777 167.346 89.7115C167.969 89.2112 168.543 88.6593 169.029 88.1075C169.889 87.151 170.65 86.0842 171.329 84.9437C171.703 84.3183 172.096 83.634 172.283 82.8909C172.37 82.5525 172.57 82.1257 172.532 81.7652C172.52 81.6254 172.514 81.493 172.514 81.3679C172.383 81.206 172.19 81.1104 171.99 81.0368C172.289 80.9117 172.557 80.7646 172.726 80.5144C172.545 79.1017 172.402 77.689 172.327 76.269C172.277 75.2095 172.233 74.1353 172.271 73.0758C172.296 72.3915 172.364 71.6852 172.314 71.0009C171.934 70.92 171.541 70.8538 171.155 70.7949C170.588 70.714 170.026 70.4712 169.459 70.5374C169.291 70.5595 169.285 70.2652 169.428 70.2063C170.095 69.9561 170.799 69.8605 171.466 69.603C171.803 69.4705 172.121 69.2939 172.451 69.1321C172.358 67.7856 172.576 66.3435 172.726 65.0265C172.825 64.1509 172.863 63.2312 172.963 62.3189C172.963 59.4715 172.925 56.624 173 53.7766C172.838 53.3572 172.645 52.901 172.501 52.4007Z" fill="#065986"/>
<path d="M158.887 30.2173C158.799 29.7611 158.824 29.3491 158.656 28.9444C158.681 28.9444 158.7 28.9518 158.724 28.9665C158.961 29.1578 159.198 29.3491 159.435 29.5478C159.441 29.5625 159.435 29.5698 159.441 29.5772C159.865 30.4086 159.977 31.3872 159.959 32.351C159.94 33.6239 159.167 34.2567 158.363 34.9262C158.35 34.9336 158.357 34.963 158.369 34.9557C159.229 34.4185 160.115 33.9109 160.345 32.7042C160.464 32.1082 160.495 31.0267 160.239 30.2541C160.613 30.5926 160.981 30.9457 161.343 31.3063C161.43 31.6226 161.53 31.9317 161.598 32.2701C161.773 33.1751 161.442 33.8447 161.025 34.5436C160.95 34.6614 161.087 34.6981 161.149 34.6025C161.511 34.0286 161.885 33.4253 161.841 32.6748C161.829 32.351 161.804 32.0126 161.71 31.7036C161.71 31.6962 161.704 31.6815 161.704 31.6741C161.854 31.8213 162.003 31.9758 162.147 32.1303C162.247 32.8514 162.278 33.6313 162.259 34.3523C162.222 35.2868 161.043 36.0814 160.464 36.5523C160.445 36.567 160.445 36.6038 160.47 36.5891C161.162 36.155 162.147 35.6178 162.471 34.7055C162.664 34.1684 162.72 33.3443 162.614 32.6306C163.088 33.1604 163.549 33.7196 163.992 34.2788C163.967 34.5804 164.029 34.8968 164.048 35.2058C164.086 36.0446 163.693 36.7215 163.25 37.3175C163.225 37.3469 163.25 37.3837 163.275 37.3616C163.68 36.9349 164.023 36.4861 164.254 35.8974C164.354 35.6399 164.41 35.2132 164.397 34.8011C164.509 34.9483 164.628 35.0881 164.734 35.2426C164.69 35.7871 164.653 36.3389 164.603 36.8907C164.534 37.5456 164.198 37.9944 163.799 38.4064C163.687 38.5241 163.456 38.8479 163.313 38.8773C163.269 38.8847 163.219 39.0024 163.288 39.0024C163.475 39.0097 163.574 38.8773 163.718 38.7449C164.036 38.4579 164.366 38.2666 164.603 37.8619C164.946 37.288 165.139 36.464 165.083 35.7061C165.407 36.155 165.731 36.6185 166.037 37.082C166.13 37.2145 166.211 37.3469 166.299 37.4867C166.18 37.8914 166.186 38.3991 166.087 38.8111C165.925 39.488 165.544 40.5107 164.952 40.8197C164.94 40.8271 164.933 40.8565 164.952 40.8492C165.476 40.7094 165.981 39.9442 166.224 39.4144C166.386 39.0686 166.573 38.5315 166.617 38.0238C166.885 38.4653 167.14 38.9214 167.389 39.3776C167.296 39.8044 167.252 40.2164 166.997 40.6137C166.816 40.8933 166.542 41.114 166.299 41.32C166.006 41.5702 165.806 41.8792 165.413 41.9454C165.401 41.9454 165.388 41.9749 165.401 41.9749C165.725 41.997 165.956 41.8204 166.23 41.6291C166.535 41.423 166.841 41.2685 167.097 40.9669C167.333 40.6799 167.552 40.3047 167.676 39.9074C167.969 40.4666 168.25 41.0331 168.53 41.6144C168.505 41.8204 168.399 42.0337 168.318 42.2177C168.206 42.4899 168.007 42.9093 167.751 43.0197C167.726 43.0344 167.701 43.1153 167.745 43.1153C168.032 43.0859 168.3 42.7769 168.462 42.5194C168.518 42.4163 168.63 42.2398 168.73 42.0411C169.01 42.6224 169.297 43.2183 169.553 43.829C169.44 43.9762 169.422 44.1895 169.328 44.3661C169.253 44.4986 169.073 44.5721 168.96 44.6604C168.792 44.7782 168.667 44.9695 168.462 44.9989C168.406 45.0062 168.35 45.146 168.431 45.1534C168.58 45.1755 168.699 45.1166 168.83 45.043C168.992 44.9474 169.154 44.8812 169.316 44.7929C169.515 44.6825 169.627 44.4618 169.709 44.2263C169.827 44.528 169.933 44.837 170.02 45.146C169.989 45.1975 169.964 45.2417 169.927 45.2858C169.871 45.3668 169.746 45.6022 169.652 45.5949C169.596 45.5875 169.534 45.6979 169.596 45.7346C169.721 45.8156 169.821 45.6979 169.927 45.6316C169.989 45.5949 170.045 45.5286 170.107 45.4551C170.157 45.6611 170.207 45.8744 170.251 46.0805C170.419 46.5219 170.587 46.9634 170.768 47.3975C170.444 47.1841 170.101 47.0075 169.758 46.8383C169.403 46.5219 169.041 46.2129 168.705 45.8965C167.028 44.2999 165.307 42.7916 163.562 41.2906C162.003 39.9589 160.389 38.7743 158.805 37.4941C158.731 37.4352 158.612 37.3469 158.469 37.2439C158.681 37.0894 158.874 36.8981 159.042 36.6994C159.31 36.3757 159.647 36.052 159.834 35.6546C159.847 35.6252 159.822 35.6105 159.809 35.6326C159.597 35.9416 159.273 36.177 159.005 36.4051C158.749 36.6185 158.456 36.8539 158.17 37.0305C157.877 36.8171 157.521 36.5596 157.16 36.2727C157.172 36.258 157.185 36.2433 157.197 36.2359C157.303 36.1255 157.415 35.971 157.546 35.8974C157.577 35.8827 157.59 35.8165 157.546 35.8239C157.415 35.8459 157.328 35.9563 157.21 36.0004C157.135 36.0299 157.048 36.0667 156.966 36.1255C156.879 36.0593 156.798 35.9931 156.711 35.9195C156.374 35.662 156.05 35.4045 155.72 35.1543C155.664 35.1102 155.645 35.0366 155.664 34.9704C155.95 34.963 156.362 34.757 156.524 34.7055C157.203 34.4995 157.783 34.161 158.319 33.646C158.843 33.1457 159.08 32.3584 159.123 31.5932C159.161 31.1517 158.968 30.6661 158.887 30.2173Z" fill="#F0F9FF"/>
<path d="M130.828 26.1632C130.99 26.4134 131.146 26.693 131.271 26.8843C131.545 27.3258 131.614 28.1498 131.607 28.6648C131.607 28.7311 131.682 28.6943 131.688 28.6428C131.782 28.0174 131.869 27.3331 131.651 26.7298C131.57 26.5238 131.408 26.3619 131.246 26.2295C131.564 26.2883 131.875 26.3545 132.187 26.4281C132.281 26.6783 132.38 26.9211 132.43 27.208C132.536 27.7525 132.424 28.5986 132.187 29.0769C132.168 29.121 132.212 29.1284 132.231 29.099C132.592 28.4956 132.823 27.3478 132.605 26.5164C133.278 26.6636 133.945 26.8034 134.587 26.8916C135.223 26.9799 135.853 26.9873 136.482 26.9505C136.507 27.0094 136.526 27.0682 136.538 27.1344C136.563 27.2301 136.557 27.3331 136.557 27.4361C136.557 27.5097 136.588 27.5833 136.607 27.6568C136.613 27.6936 136.657 27.6495 136.663 27.6348C136.713 27.414 136.769 27.2007 136.738 26.9726C136.738 26.9579 136.731 26.9505 136.731 26.9431C137.112 26.9137 137.486 26.8622 137.866 26.8107C137.922 26.9137 137.972 27.0241 138.022 27.1418C138.103 27.3699 138.128 27.6348 138.153 27.8849C138.159 27.9364 138.215 27.8923 138.215 27.8555C138.24 27.517 138.265 27.0977 138.159 26.7666C138.196 26.7518 138.24 26.7519 138.277 26.7445C138.365 26.9064 138.433 27.0756 138.471 27.2742C138.514 27.5023 138.577 27.8334 138.533 28.0615C138.521 28.1057 138.577 28.0836 138.583 28.0542C138.676 27.804 138.664 27.4435 138.658 27.1786C138.652 27.0094 138.639 26.8401 138.583 26.693C139.425 26.5458 140.272 26.3619 141.114 26.2147C142.273 26.0087 143.433 25.8248 144.592 25.6556C144.86 26.281 145.21 26.7813 145.272 27.5171C145.278 27.6053 145.39 27.5318 145.39 27.4655C145.397 27.0535 145.34 26.6709 145.222 26.281C145.16 26.0749 145.091 25.7954 144.973 25.5967C145.69 25.4863 146.406 25.3833 147.123 25.273C147.385 25.1994 147.641 25.1185 147.896 25.0449C148.04 25.2435 148.233 25.4054 148.364 25.582C148.657 25.9867 148.769 26.4723 148.993 26.9137C149.037 27.002 149.156 26.8916 149.137 26.8181C149.006 26.2957 149.025 25.8542 148.744 25.3833C148.644 25.2215 148.526 25.0449 148.389 24.8977C148.588 24.8389 148.788 24.7726 148.981 24.7211C149.137 24.7064 149.311 24.6696 149.498 24.6181C149.648 24.8094 149.835 24.9713 149.966 25.1773C150.197 25.5525 150.352 26.1264 150.434 26.5753C150.44 26.5973 150.458 26.5826 150.458 26.5679C150.502 26.0455 150.409 25.5893 150.228 25.1185C150.134 24.8683 149.972 24.6917 149.791 24.5372H149.798C149.835 24.5298 149.879 24.5298 149.916 24.5225C149.941 24.5593 149.966 24.596 149.997 24.6328C150.078 24.7285 150.122 24.8462 150.197 24.9492C150.328 25.1258 150.434 25.3465 150.533 25.5599C150.564 25.6261 150.652 25.5378 150.633 25.4716C150.546 25.2362 150.458 25.0081 150.34 24.7874C150.29 24.6917 150.253 24.5887 150.197 24.4857C150.639 24.4636 151.088 24.5225 151.562 24.7138C151.581 24.7138 151.599 24.7285 151.618 24.7358C151.98 25.4054 152.067 26.3913 151.979 27.1271C151.973 27.1565 152.011 27.1418 152.017 27.1197C152.148 26.6341 152.285 25.6556 152.117 24.9566C152.235 25.0154 152.354 25.0743 152.472 25.1479C152.647 26.0014 152.671 27.0167 152.541 27.9879C151.375 27.1345 148.588 27.7819 147.441 27.9364C147.335 27.7451 147.148 27.5686 147.036 27.4582C146.818 27.2301 146.737 26.8475 146.5 26.6636C146.369 26.5606 146.226 26.7224 146.201 26.8769C146.182 27.0167 146.213 27.1492 146.232 27.2816C146.251 27.4508 146.226 27.6127 146.238 27.7819C146.238 27.8555 146.232 27.9659 146.244 28.0615C145.297 28.1572 144.349 28.2602 143.402 28.4147C142.94 28.5398 142.442 28.6207 141.937 28.6943C141.625 28.7605 141.313 28.8414 141.002 28.9224C140.092 29.1799 139.206 29.5183 138.315 29.8421C137.997 29.9598 137.685 30.0702 137.374 30.1658C137.093 30.1217 136.825 30.0849 136.607 30.0996C136.064 30.1364 136.133 28.5986 136.158 28.2381C136.17 27.9732 135.909 28.1204 135.853 28.2675C135.653 28.8267 135.472 29.3933 135.316 29.9745C135.285 30.1143 135.217 30.1952 135.142 30.2467C134.861 30.2173 134.581 30.1952 134.307 30.1732C134.263 30.1585 134.225 30.1511 134.188 30.1437C133.253 29.9451 131.875 29.5257 130.897 29.8274C130.909 29.6066 131.059 29.1946 131.084 29.0622C131.115 28.8414 131.133 28.6133 131.14 28.3705C131.109 27.9879 131.059 27.6053 131.021 27.2227C130.909 26.7739 130.722 26.3693 130.435 26.097C130.566 26.1117 130.697 26.1412 130.828 26.1632Z" fill="#F0F9FF"/>
<path d="M98.2188 28.9224C98.2125 28.915 98.2125 28.9003 98.2125 28.893C98.2063 28.8488 98.1938 28.8047 98.1813 28.7605C98.1626 28.6796 98.144 28.5987 98.1252 28.5251C98.1065 28.4515 98.0816 28.3927 98.0567 28.3264C98.3497 28.4368 98.6364 28.5398 98.9294 28.6355C99.266 29.3271 99.6962 30.2836 99.266 31.0561C99.2473 31.0856 99.2785 31.1003 99.2972 31.0782C99.7772 30.3866 99.584 29.4889 99.2785 28.7532C99.6775 28.8783 100.076 28.9813 100.475 29.0696C100.55 29.4448 100.893 29.7023 100.949 30.107C101.012 30.4896 101.136 31.2106 100.987 31.5859C100.974 31.608 101.005 31.6153 101.018 31.6006C101.255 31.2842 101.211 30.7471 101.192 30.3572C101.18 29.9304 101.093 29.4963 100.874 29.1578C100.962 29.1799 101.055 29.1873 101.142 29.1946C101.217 29.305 101.273 29.4154 101.329 29.5772C101.442 29.9083 101.504 30.2468 101.529 30.6C101.529 30.6515 101.591 30.6073 101.591 30.5705C101.604 30.1953 101.573 29.8274 101.498 29.4595C101.479 29.3859 101.467 29.3124 101.448 29.2388C102.152 29.3197 102.869 29.3271 103.611 29.2094C104.465 29.0769 105.313 28.8783 106.142 28.6134C106.167 28.6649 106.192 28.7238 106.217 28.7679C106.298 28.9666 106.36 29.1946 106.41 29.4007C106.491 29.717 106.41 30.0702 106.497 30.3792C106.51 30.4087 106.553 30.3645 106.547 30.3424C106.497 29.901 106.653 29.5037 106.541 29.0622C106.504 28.9077 106.479 28.709 106.416 28.5324C106.628 28.4662 106.834 28.3853 107.04 28.3044C107.102 28.4368 107.189 28.5619 107.258 28.6796C107.414 28.9298 107.52 29.1873 107.545 29.4889C107.545 29.5257 107.588 29.4963 107.594 29.4669C107.626 29.1946 107.582 28.9445 107.507 28.687C107.464 28.5472 107.401 28.3632 107.326 28.2014C107.613 28.091 107.894 27.9659 108.174 27.8335C109.041 27.4362 109.932 27.0388 110.849 26.8328C110.955 26.8108 111.048 26.796 111.148 26.7813C111.123 26.8623 111.135 26.9358 111.216 26.9726C111.603 27.1271 111.721 27.8923 111.809 28.3044C111.89 28.6943 111.84 29.099 111.946 29.4889C111.952 29.511 111.977 29.5037 111.983 29.4963C112.002 29.4742 112.027 29.4522 112.052 29.4374C112.058 29.4301 112.064 29.4007 112.045 29.408C112.008 29.4227 112.064 28.8268 112.07 28.7164C112.095 28.4 112.089 28.0983 112.064 27.7893C112.033 27.4656 111.902 27.0462 111.69 26.7887C112.027 26.8402 112.326 26.98 112.644 27.1713C112.731 27.3994 112.831 27.6275 112.918 27.8408C113.074 28.2455 112.974 28.709 113.136 29.0916C113.174 29.1946 113.292 29.0548 113.274 28.9739C113.211 28.7458 113.274 28.4515 113.267 28.2161C113.267 28.1278 113.249 28.0395 113.236 27.9586C113.267 27.9806 113.305 28.0027 113.336 28.0174C113.51 28.3338 113.672 28.7017 113.841 29.0328C113.972 29.5037 114.053 29.9966 114.109 30.497C113.585 29.9451 112.7 29.8568 112.07 29.9525C110.63 30.1659 109.165 30.3719 107.775 30.909C107.227 31.1224 106.51 31.2474 105.999 31.5712C105.045 32.1819 105.132 30.6515 104.559 30.4822C104.365 30.4234 104.216 30.5411 104.104 30.7177C103.973 30.9311 103.848 31.5638 103.617 31.5859C102.956 31.6374 102.364 31.9906 101.722 32.1083C100.419 32.329 98.9232 32.5056 97.5704 32.4762C97.6016 32.4026 97.6265 32.3217 97.6515 32.2407C98.1938 31.1591 98.412 29.9966 98.2188 28.9224Z" fill="#F0F9FF"/>
<path d="M68.5393 30.6809C68.6016 30.6367 68.6702 30.6 68.7325 30.5632C69.2125 30.5852 69.6676 30.5852 70.1663 30.7324C70.6152 30.8722 71.4256 31.2327 71.3757 31.9243C71.3695 31.9538 71.4069 31.9464 71.4131 31.9243C71.6936 30.806 70.4219 30.2394 69.412 30.1511C69.5305 30.0776 69.6489 30.0113 69.7674 29.9451C70.0915 30.004 70.4157 30.0261 70.7461 30.0628C71.3258 30.1217 71.7684 30.2762 72.2671 30.6073C72.3108 30.6367 72.3793 30.5337 72.3419 30.4896C71.943 30.0849 71.6126 29.8348 71.1076 29.6361C70.958 29.5772 70.8022 29.5184 70.6526 29.4669C71.0266 29.2756 71.3944 29.099 71.7809 28.9298C71.9305 28.8341 72.0926 28.7532 72.2484 28.6649C72.3108 28.6796 72.3731 28.6943 72.4417 28.7238C72.5913 28.79 72.7284 28.8635 72.8781 28.9224C73.2084 29.0475 73.5638 29.1137 73.8942 29.2609C73.9129 29.2682 73.9503 29.2241 73.9316 29.202C73.6199 28.9518 73.2833 28.7753 72.9716 28.5472C72.8905 28.4883 72.8095 28.4368 72.7222 28.3927C72.9404 28.2749 73.1648 28.1572 73.383 28.0395C73.5264 28.091 73.676 28.1278 73.8256 28.1572C73.9503 28.1866 74.0874 28.194 74.2183 28.2087C74.3305 28.2234 74.4178 28.297 74.53 28.297C74.555 28.297 74.5861 28.2529 74.555 28.2381C74.4739 28.2013 74.4365 28.1131 74.3617 28.0836C74.2433 28.0248 74.1248 27.9659 74.0064 27.8997C73.944 27.8629 73.8817 27.8335 73.8194 27.8114C74.0625 27.679 74.3056 27.5465 74.5487 27.4214C74.5612 27.4141 74.5737 27.3994 74.5861 27.392C74.6111 27.3994 74.6298 27.4067 74.6547 27.4067C74.742 27.4067 74.8293 27.4141 74.9165 27.4288C75.0911 27.4582 75.2719 27.5097 75.4402 27.4435C75.4713 27.4362 75.515 27.3479 75.4589 27.3479C75.2843 27.3552 75.1222 27.2228 74.9664 27.1345C74.9539 27.1271 74.9477 27.1271 74.9352 27.1198C75.1783 26.9505 75.4464 26.796 75.7207 26.6636C75.7955 26.671 75.8703 26.6783 75.9389 26.6857C76.2319 26.7225 76.5311 26.7004 76.8241 26.693C76.8615 26.6857 76.9238 26.5974 76.8677 26.5827C76.6932 26.5312 76.5249 26.4723 76.3503 26.4208C76.4376 26.3914 76.5124 26.3619 76.5997 26.3399C76.6121 26.3399 76.6246 26.3399 76.6371 26.3399C76.6433 26.3399 76.6495 26.3399 76.6558 26.3399C76.6745 26.3251 76.6994 26.3178 76.7243 26.3031C76.7929 26.2663 76.8553 26.2957 76.8927 26.3472C77.0859 26.3546 77.2792 26.3693 77.4599 26.384C77.1607 26.6562 76.8303 26.9138 76.5934 27.1639C75.7768 28.0101 75.0412 28.8635 74.3368 29.8274C73.7633 30.6073 73.2147 31.4167 72.6848 32.2334C72.3856 32.6969 71.918 34.5657 71.5315 33.3738C71.357 32.8514 70.372 32.0862 69.9668 31.836C69.2562 31.3946 68.6079 31.2033 67.8162 31.3799C67.7538 31.3946 67.6853 31.4167 67.6292 31.4387C67.8785 31.1665 68.1777 30.9163 68.5393 30.6809Z" fill="#F0F9FF"/>
<path d="M84.3733 89.763C83.6627 89.6894 82.9458 89.6526 82.2289 89.579C82.2538 89.4834 82.2663 89.3951 82.3037 89.2994C82.3598 89.1449 82.1728 89.1376 82.1229 89.2553C82.0855 89.3436 82.0356 89.4466 82.0107 89.5496C81.805 89.5275 81.593 89.4981 81.3936 89.4613C81.3998 89.4539 81.3998 89.4466 81.406 89.4319C81.4497 89.3436 81.4621 89.2185 81.4933 89.1302C81.5245 89.0198 81.5556 88.9168 81.5868 88.8065C81.6055 88.7182 81.5245 88.7255 81.4933 88.7844C81.3873 88.9904 81.2626 89.2111 81.1255 89.4024C81.1255 89.4024 81.1193 89.4024 81.1193 89.4098C80.8761 89.3583 80.6393 89.3068 80.3961 89.2332C80.4335 89.1449 80.4709 89.064 80.4959 89.0051C80.6206 88.7476 80.7826 88.5048 80.8824 88.2399C80.9135 88.1737 80.8512 88.1664 80.82 88.2105C80.7016 88.4018 80.5395 88.571 80.4148 88.755C80.3151 88.8874 80.2216 89.0198 80.1218 89.1523C80.1218 89.1449 80.1156 89.1449 80.1156 89.1449C79.5483 88.9536 79.006 88.6667 78.4699 88.3061C78.5634 88.1958 78.6818 88.1222 78.7816 88.0118C78.9125 87.8647 79.0185 87.6734 79.1307 87.4968C79.3239 87.1951 79.4985 86.8935 79.567 86.5182C79.5733 86.4741 79.5234 86.4962 79.5172 86.5256C79.3675 86.9597 79.0683 87.2393 78.794 87.5557C78.6195 87.7543 78.4013 87.9235 78.2392 88.1443C78.1582 88.0928 78.0834 88.0266 78.0023 87.9677C78.0896 87.8868 78.1582 87.7764 78.233 87.6734C78.339 87.5262 78.4449 87.3791 78.5509 87.2246C78.5758 87.1878 78.5571 87.1363 78.5197 87.1731C78.4013 87.2981 78.2766 87.4232 78.1582 87.5483C78.0584 87.644 77.94 87.7322 77.8777 87.8647C77.3104 87.4232 76.7556 86.9303 76.2382 86.4005C76.5436 86.3416 76.8927 86.0473 77.0735 85.8634C77.2605 85.6574 77.3914 85.4219 77.5286 85.1791C77.6969 84.8848 77.8964 84.62 78.046 84.3183C78.0709 84.2668 78.021 84.23 77.9961 84.2741C77.728 84.6788 77.3789 85.1276 77.0423 85.4661C76.7244 85.7825 76.288 85.8193 75.9576 86.1283C75.7956 85.9517 75.6335 85.7825 75.4776 85.6132C75.7644 85.4955 75.995 85.2674 76.2444 85.0393C76.5872 84.7156 76.9737 84.3256 77.1919 83.8621C77.2044 83.84 77.1795 83.8253 77.1608 83.84C76.9426 84.1564 76.6371 84.3771 76.3504 84.5979C76.0075 84.8554 75.6709 85.1056 75.2719 85.238C75.247 85.2454 75.222 85.2674 75.1909 85.2969C75.1472 85.2454 75.1036 85.1938 75.06 85.1423C75.1784 85.0688 75.2968 84.951 75.3841 84.8701C75.6709 84.5979 75.9327 84.3477 76.1758 84.0093C76.2008 83.9725 76.1758 83.921 76.1384 83.9578C75.9078 84.1932 75.6522 84.4434 75.3654 84.5685C75.2033 84.6347 74.9976 84.7598 74.8355 84.8995C74.4615 84.4802 74.1062 84.0681 73.7633 83.6782C74.0999 83.4942 74.5114 83.0086 74.6548 82.8762C75.1348 82.4347 75.727 81.802 75.914 81.0956C75.9327 81.0368 75.8641 81.0368 75.8454 81.0809C75.5649 81.7357 74.8916 82.2508 74.3992 82.6702C74.1685 82.8688 73.7508 83.1411 73.514 83.3986C73.4205 83.2882 73.3394 83.1852 73.2459 83.0822C73.3831 82.9939 73.5077 82.8762 73.6199 82.7511C73.8132 82.5304 74.0064 82.3464 74.1872 82.0889C74.2122 82.0521 74.1872 82.0006 74.1498 82.0374C73.8257 82.3685 73.4454 82.626 73.0776 82.8762C72.6288 82.3464 72.1862 81.824 71.7498 81.2869C71.9991 81.2281 72.2547 81.0956 72.4355 80.9632C73.0402 80.5291 73.6075 80.0656 73.9877 79.3445C74.0064 79.3077 73.969 79.2856 73.9503 79.3151C73.3519 80.198 72.3794 80.691 71.4443 80.9117C71.3508 80.8013 71.2635 80.6836 71.17 80.5659C71.3134 80.4923 71.4506 80.3893 71.569 80.3084C71.7872 80.1612 72.0178 80.095 72.2236 79.9184C72.4043 79.7639 72.5602 79.5726 72.716 79.3886C72.7285 79.3739 72.7223 79.3592 72.7036 79.3666C72.1737 79.808 71.5503 80.014 70.9331 80.2568C70.7648 80.0435 70.5965 79.8228 70.422 79.6094C70.715 79.4769 70.9893 79.1826 71.17 78.9545C71.1825 78.9398 71.1763 78.9104 71.1576 78.9251C70.9705 79.0428 70.7586 79.1532 70.5529 79.2047C70.4344 79.2341 70.2786 79.2415 70.1664 79.293C69.8547 78.8957 69.5492 78.4984 69.2313 78.0937C69.9607 78.182 71.0578 77.7552 71.4568 77.4683C72.448 76.7399 73.1088 75.4449 73.3269 74.1058C73.3394 74.0617 73.2895 74.0838 73.2771 74.1132C72.9591 75.2683 72.3295 76.166 71.569 76.9606C71.2074 77.3359 70.4843 77.4389 70.0105 77.5272C69.7362 77.5787 69.2375 77.6743 68.9009 77.6596C68.77 77.483 68.6329 77.3064 68.5019 77.1298C68.477 77.1004 68.4583 77.071 68.4334 77.0415C68.7326 77.0783 69.0879 77.0121 69.3186 76.9533C70.0292 76.762 70.5965 76.2616 71.1326 75.7245C71.1513 75.7098 71.1513 75.6657 71.1264 75.6804C70.2661 76.2322 69.1877 76.6442 68.184 76.6957C67.9347 76.3279 67.704 75.9526 67.4734 75.5627C69.4744 75.7981 71.382 74.5179 71.7373 72.0015C71.7373 71.9795 71.7124 71.9868 71.7124 72.0015C71.0703 74.4369 69.2001 75.055 67.2926 75.2757C67.1741 75.0844 67.0308 74.9299 66.8811 74.7754C67.5357 74.9152 68.3399 74.7386 68.8947 74.5473C69.5742 74.3119 70.3098 73.7306 70.6402 72.9875C70.6713 72.9286 70.609 72.9139 70.5778 72.958C70.1227 73.7232 69.3747 73.9366 68.6765 74.1794C68.29 74.3119 67.916 74.3339 67.517 74.3413C67.2053 74.3486 66.931 74.4958 66.6256 74.4958C66.5133 74.3781 66.4074 74.253 66.3139 74.1058C66.3076 74.0985 66.3076 74.0985 66.3014 74.0911C67.0308 74.1941 67.9845 73.9293 68.4521 73.7085C69.7799 73.0684 70.3721 72.0089 71.0329 70.5594C71.3072 69.9414 71.8932 69.007 72.1924 68.1241C72.6849 70.2872 73.9316 74.8637 74.0563 75.364C74.3244 76.4088 74.4116 77.8656 74.8916 78.8074C75.1597 79.3298 75.8517 79.7124 76.2382 80.1097C76.768 80.6468 77.2667 81.2649 77.7405 81.8682C78.6008 82.9571 79.0247 84.7524 79.7353 85.9958C80.3463 87.0774 81.3187 87.9456 82.2289 88.6446C83.0954 89.2994 84.0242 89.4687 84.978 89.7115C84.7723 89.7335 84.5728 89.7483 84.3733 89.763Z" fill="#F0F9FF"/>
<path d="M130.061 86.3049C130.005 87.0259 129.718 87.6219 129.344 88.1811C129.326 88.2032 129.313 88.2252 129.294 88.24C129.806 87.0627 129.787 85.6721 128.821 84.6568C128.802 84.6347 128.765 84.6788 128.777 84.7009C129.157 85.4072 129.27 86.4005 129.17 87.2246C129.083 87.9456 128.64 88.4533 128.378 89.064C127.873 89.3289 127.318 89.4172 126.745 89.4466C126.782 89.3583 126.82 89.2774 126.851 89.1964C127.013 88.8286 127.088 88.4533 127.162 88.056C127.181 87.9824 127.088 88.0192 127.075 88.0634C126.957 88.3871 126.851 88.6961 126.689 88.9904C126.601 89.1302 126.52 89.2995 126.421 89.454C126.365 89.4613 126.308 89.4613 126.252 89.4613C126.009 89.4687 125.76 89.4613 125.517 89.4466C125.797 89.064 125.978 88.4975 126.115 88.056C126.371 87.2246 125.922 86.2534 125.585 85.5544C125.573 85.5397 125.554 85.5618 125.56 85.5765C125.803 86.3637 125.991 87.2025 125.797 88.0413C125.679 88.5563 125.38 88.9684 125.168 89.4319C124.239 89.3804 123.316 89.2406 122.387 89.1155C122.45 88.9463 122.5 88.7771 122.537 88.5931C122.606 88.2179 122.593 87.8721 122.487 87.5042C122.487 87.4821 122.462 87.5115 122.462 87.5263C122.481 87.9456 122.381 88.3356 122.263 88.7329C122.219 88.8727 122.163 88.9904 122.113 89.1082C121.976 89.1155 121.845 89.1155 121.714 89.1155C121.814 89.1008 121.907 89.0787 122.007 89.064C121.664 89.0199 121.315 88.9757 120.966 88.9463C120.954 88.9463 120.941 88.9463 120.922 88.9389C120.997 88.7108 121.047 88.4607 121.028 88.262C120.972 87.5778 120.673 86.9524 120.442 86.3343C120.417 86.2681 120.336 86.3564 120.343 86.4079C120.405 86.8273 120.461 87.254 120.511 87.6734C120.555 88.0413 120.517 88.4386 120.411 88.7844C120.399 88.8286 120.386 88.858 120.38 88.8948C119.557 88.8286 118.722 88.7844 117.893 88.7918C118.074 88.24 118.111 87.5336 117.955 87.0627C117.936 87.0112 117.874 87.0774 117.874 87.1142C117.911 87.5778 117.737 87.9677 117.625 88.4018C117.594 88.5269 117.525 88.6593 117.469 88.7918C117.207 88.8212 116.945 88.8433 116.677 88.8654C117.145 87.6955 117.014 86.3932 116.328 85.3263C116.303 85.2969 116.259 85.3557 116.272 85.3852C116.683 86.4594 116.764 87.8426 116.278 88.8948C115.599 88.9463 114.913 88.9757 114.24 88.9904H114.233C114.371 88.7991 114.483 88.571 114.526 88.4092C114.682 87.7691 114.558 87.2393 114.433 86.5992C114.42 86.5256 114.339 86.5918 114.339 86.6507C114.358 87.1878 114.433 87.7323 114.24 88.2473C114.134 88.5269 113.959 88.755 113.797 88.9904C113.479 88.9831 113.167 88.9757 112.85 88.9536C113.66 88.2032 113.448 86.5918 112.956 85.6795C112.931 85.6353 112.881 85.6942 112.893 85.731C113.086 86.4005 113.111 87.1437 112.943 87.8279C112.85 88.2179 112.663 88.549 112.563 88.9389C112.476 88.9316 112.388 88.9169 112.307 88.9169V88.9095C112.363 88.7771 112.394 88.6593 112.432 88.5269C112.519 88.24 112.525 87.9309 112.513 87.6366C112.507 87.6072 112.476 87.6366 112.476 87.6513C112.394 88.0413 112.264 88.3871 112.07 88.7108C112.039 88.7623 112.002 88.8286 111.958 88.8874C111.578 88.858 111.204 88.8212 110.824 88.7771C111.029 88.365 111.16 87.8868 111.229 87.438C111.322 86.7537 110.967 86.0768 110.686 85.5029C110.674 85.4808 110.643 85.5103 110.649 85.5323C110.774 86.1062 110.898 86.7169 110.855 87.3129C110.817 87.7985 110.605 88.2694 110.456 88.7403C110.213 88.7108 109.963 88.6814 109.726 88.652C109.801 88.4754 109.857 88.2841 109.895 88.1222C109.963 87.8206 109.994 87.4821 109.97 87.1731C109.963 87.1216 109.907 87.1657 109.907 87.1952C109.857 87.563 109.72 87.8721 109.595 88.2032C109.546 88.3356 109.446 88.4754 109.371 88.6152C108.897 88.5637 108.417 88.5195 107.944 88.4901C108.062 88.2915 108.155 88.0854 108.205 87.8868C108.48 86.9229 108.355 86.1062 107.775 85.3337C107.763 85.3116 107.738 85.3557 107.744 85.3705C108.106 86.1209 108.155 86.8052 107.912 87.6219C107.844 87.85 107.732 88.1811 107.594 88.468C107.569 88.468 107.551 88.468 107.532 88.468C107.439 88.4607 107.345 88.468 107.252 88.468C107.289 88.3871 107.326 88.2988 107.358 88.2326C107.507 87.8794 107.675 87.5557 107.644 87.151C107.638 87.1142 107.594 87.1437 107.594 87.1731C107.569 87.5998 107.333 87.9162 107.139 88.2473C107.089 88.3356 107.021 88.4165 106.946 88.4901C106.684 88.5122 106.416 88.549 106.148 88.6005C106.69 87.9456 107.052 87.1069 107.033 86.1062C107.015 85.2307 106.622 84.6126 106.086 84.4287C106.921 84.1712 107.956 84.3992 108.766 84.3698C109.895 84.3183 110.992 84.5905 112.126 84.5243C114.632 84.3919 117.032 85.1056 119.545 84.9658C119.663 84.9584 119.782 84.9511 119.9 84.9437C120.162 85.0762 120.386 85.2454 120.573 85.4588C120.604 85.5103 120.629 85.5544 120.642 85.5618C120.673 85.5912 120.692 85.6206 120.717 85.6501C120.885 85.8855 121.016 86.1724 121.116 86.5256C121.178 86.7684 121.452 86.4594 121.471 86.327C121.533 85.9076 121.446 84.9069 121.733 84.9143C122.512 84.9437 123.322 84.8039 124.077 84.6126C124.282 84.5611 124.488 84.517 124.7 84.4655C124.974 84.4213 125.249 84.3698 125.529 84.3183C125.872 84.2521 126.209 84.1564 126.545 84.0755C126.633 84.0608 126.707 84.0387 126.795 84.024C126.863 84.0093 127.044 83.9651 127.281 83.8989C127.599 83.8253 127.917 83.7591 128.241 83.715C128.403 83.6414 128.571 83.5825 128.74 83.5163C128.852 83.4943 128.952 83.4795 129.026 83.4722C129.101 83.4869 129.176 83.5016 129.238 83.5163C129.257 83.531 129.282 83.5384 129.301 83.5384C129.313 83.5458 129.326 83.5458 129.332 83.5531C129.432 83.6488 129.488 84.0314 129.556 84.1712C129.687 84.4581 129.737 84.7818 129.874 85.0614C129.924 85.1644 129.974 85.2748 130.024 85.3925C130.061 85.6868 130.092 85.9959 130.061 86.3049Z" fill="#F0F9FF"/>
<path d="M171.897 82.8689C171.591 83.7959 171.161 84.6421 170.644 85.4146C170.637 85.3999 170.631 85.3925 170.625 85.3852C170.575 85.3484 170.544 85.2822 170.506 85.2307C170.457 85.1424 170.363 85.0835 170.295 85.0099C170.263 84.9732 170.213 85.0394 170.226 85.0762C170.263 85.1718 170.332 85.2675 170.351 85.3631C170.369 85.4367 170.382 85.5323 170.419 85.5986C170.438 85.628 170.457 85.6353 170.475 85.6427C170.301 85.8929 170.114 86.1357 169.927 86.3637C169.902 86.2607 169.871 86.1577 169.827 86.0768C169.702 85.8193 169.478 85.6501 169.278 85.4955C169.253 85.4808 169.222 85.525 169.241 85.547C169.384 85.7604 169.528 85.9738 169.596 86.2387C169.627 86.3711 169.603 86.5698 169.615 86.7243C169.428 86.9303 169.235 87.1216 169.042 87.3202C169.017 87.2172 168.985 87.1216 168.954 87.0333C168.879 86.7979 168.742 86.5992 168.58 86.4447C168.562 86.43 168.537 86.4594 168.543 86.4815C168.667 86.6948 168.724 86.9156 168.755 87.1731C168.773 87.3055 168.742 87.4674 168.767 87.6072C168.699 87.6808 168.636 87.7543 168.562 87.8206C168.431 87.9604 168.293 88.0854 168.156 88.2105C168.175 88.0045 168.15 87.7911 168.057 87.6219C167.857 87.254 167.583 87.0554 167.265 86.842C167.246 86.8273 167.227 86.8714 167.234 86.8861C167.471 87.2467 167.639 87.5483 167.707 87.9972C167.739 88.1664 167.689 88.4018 167.739 88.5637C167.552 88.7256 167.358 88.8727 167.159 89.0199C167.09 89.0787 167.016 89.145 166.941 89.2038C166.991 89.0052 167.022 88.7844 166.978 88.6078C166.922 88.3209 166.723 87.9677 166.542 87.7617C166.523 87.7396 166.486 87.7838 166.498 87.8132C166.623 88.0854 166.723 88.5122 166.716 88.8212C166.71 89.0493 166.598 89.27 166.61 89.4908C166.535 89.5496 166.461 89.6085 166.392 89.6673C166.274 89.7703 166.149 89.8586 166.024 89.9543C166.174 89.5202 166.224 89.0934 166.124 88.5931C165.987 87.9309 165.457 87.644 164.983 87.3865C164.971 87.3791 164.958 87.4012 164.965 87.4159C165.301 87.8132 165.526 88.1737 165.675 88.7108C165.8 89.1744 165.775 89.6673 165.75 90.1456C165.557 90.278 165.351 90.381 165.152 90.4473C165.214 89.8071 165.189 89.1008 164.809 88.6078C164.584 88.3209 163.518 86.9009 163.151 87.0112C164.26 86.6654 165.395 86.636 166.529 86.5035C167.408 86.4005 168.1 85.8708 168.83 85.3042C169.783 84.5464 170.831 83.8769 171.716 82.9939C171.809 82.9056 171.878 82.81 171.94 82.6996C171.928 82.7585 171.922 82.81 171.897 82.8689Z" fill="#F0F9FF"/>
<path d="M172.059 54.8508C172.009 55.3585 171.996 55.8736 171.984 56.3812C171.94 58.8166 171.978 61.2667 171.971 63.7021C171.965 65.4165 171.984 67.1308 171.953 68.8525C171.155 69.1689 170.369 69.5294 169.571 69.8605C169.147 70.0444 168.692 70.015 168.368 70.4123C168.275 70.53 168.175 70.8538 168.362 70.92C169.291 71.2584 170.295 71.2437 171.255 71.3467C171.616 71.3247 171.778 71.5086 171.784 72.0972C171.803 73.6791 171.947 75.2463 172.015 76.8208C172.052 77.7258 172.109 78.6235 172.134 79.5285C172.134 79.5947 172.134 79.6609 172.134 79.7271C172.14 79.7786 172.146 79.8375 172.152 79.889C172.109 79.9184 172.065 79.9552 172.028 80.0067C171.984 80.0509 171.94 80.1097 171.909 80.1686C171.971 80.0509 171.772 80.2275 171.766 80.2275C171.46 80.4261 171.13 80.588 170.787 80.6542C170.681 80.6763 170.569 80.8308 170.594 80.9559C170.619 81.103 170.725 81.1987 170.862 81.1545C170.893 81.1398 170.93 81.1398 170.968 81.1324C171.036 81.206 171.117 81.2649 171.161 81.309C171.392 81.5003 171.616 81.9418 171.915 81.8976C171.703 82.6776 170.98 83.0013 170.438 83.4133C169.397 84.2153 168.362 85.032 167.265 85.7163C166.754 86.0327 165.812 85.9517 165.208 86.0474C164.628 86.143 164.048 86.3638 163.468 86.5256C163.219 86.5992 162.795 86.7096 162.714 87.0554C162.702 87.0922 162.695 87.151 162.733 87.1731C163.219 87.5557 163.712 87.7543 164.086 88.3356C164.547 89.0272 164.69 89.6673 164.659 90.5208C164.559 90.5135 164.46 90.4988 164.36 90.4693C164.248 90.462 164.135 90.4473 164.023 90.4252C163.624 90.3222 163.238 90.175 162.826 90.0867C162.022 89.9028 161.255 90.2045 160.489 90.4693C159.192 90.9255 157.839 91.1168 156.487 91.2419C155.714 91.3081 154.934 91.389 154.155 91.4185C153.762 91.4332 153.077 91.6024 152.721 91.3449C152.565 91.2345 152.541 90.9329 152.528 90.6827C152.472 90.4767 152.435 90.1971 152.403 89.8954C152.285 89.3362 152.16 88.7844 152.073 88.2179C152.011 88.2326 151.948 88.2767 151.905 88.3356C151.475 88.9242 151.25 89.6968 151.007 90.4031C150.913 90.668 150.739 90.8666 150.515 91.0064C147.865 90.8666 145.216 90.7195 142.535 90.8593C139.661 91.0064 137.143 90.1971 134.294 90.1014C133.995 90.0867 133.752 90.0647 133.558 90.0205C132.679 89.5643 132.58 89.0051 132.505 88.3871C132.542 87.9309 132.505 87.4453 132.405 87.0112C132.324 86.6433 132.118 86.3932 132.181 85.9959C132.212 85.8119 132.256 85.628 132.237 85.444C132.199 85.1203 131.869 85.3337 131.788 85.4882C131.576 85.8487 131.495 86.2681 131.277 86.636C131.152 86.842 131.046 87.048 130.953 87.2614C130.953 87.2614 130.946 87.2614 130.94 87.254C130.971 87.0333 130.903 86.7758 130.872 86.5771C130.828 86.3196 130.834 86.0621 130.766 85.8046C130.753 85.7531 130.734 85.7016 130.722 85.6501C130.728 85.3263 130.666 84.9952 130.591 84.6641C130.498 84.4508 130.41 84.2374 130.317 84.0314C130.298 83.9357 130.267 83.8474 130.23 83.7518C130.111 83.428 130.067 83.0381 129.912 82.7364C129.88 82.6776 129.818 82.6408 129.756 82.6628C129.394 82.7953 129.045 82.9792 128.696 83.1632C128.665 83.1779 128.634 83.1926 128.59 83.1999C127.811 83.3471 127.032 83.4722 126.259 83.6193C126.134 83.6341 126.009 83.6488 125.885 83.6635C125.355 83.7297 124.831 83.8842 124.314 84.0314C123.983 84.0829 123.647 84.1417 123.322 84.1712C122.712 84.2668 122.101 84.3257 121.496 84.3772C121.359 84.7083 121.265 85.0541 121.24 85.422C121.234 85.525 121.159 85.5912 121.091 85.5838C120.904 85.1571 120.636 84.8039 120.393 84.3698C120.249 84.1123 119.869 84.2962 119.526 84.4508C118.977 84.4508 118.416 84.4434 117.855 84.414C115.243 84.2447 112.619 84.0314 110.013 83.7812C108.766 83.6561 107.501 83.4943 106.254 83.7738C106.111 83.8033 105.986 83.8401 105.855 83.8916C105.687 84.0167 105.525 84.1565 105.381 84.311C105.113 84.5979 104.839 84.9216 104.696 85.3263C104.496 85.8781 104.583 86.2975 104.677 86.7905C104.733 86.7905 104.789 86.7611 104.839 86.7243C105.288 86.3343 106.005 86.246 106.572 86.2607C106.585 86.6213 106.454 87.0259 106.186 87.4895C105.836 88.2326 104.989 88.3724 104.365 88.5343C103.405 88.7844 102.408 88.7108 101.435 88.6593C100.276 88.6152 99.1226 88.5343 97.9569 88.5563C97.5143 88.5711 97.2026 88.5858 96.7662 88.6446C96.7538 88.652 96.7413 88.6446 96.7288 88.6446C96.6789 88.549 96.6228 88.4607 96.5667 88.365C96.0992 87.5851 96.2239 86.5256 96.2301 85.6353C96.2301 85.2086 95.7875 85.4588 95.7501 85.7531C95.6254 86.7758 95.0769 87.5483 94.6966 88.446C94.5781 88.7256 94.5096 88.9095 94.4472 89.0346C93.7864 89.1744 93.0882 89.2332 92.415 89.2995C92.1033 89.3289 91.7978 89.373 91.4799 89.4245C90.1521 89.4393 88.8305 89.476 87.5089 89.5349C85.4268 89.4245 83.2388 88.755 81.6117 87.2246C79.6855 85.4146 79.2491 82.5525 77.5597 80.5953C77.3104 80.3084 76.9613 79.992 76.6059 79.6536C76.4688 79.5579 76.3254 79.4622 76.182 79.374C75.0412 78.6529 74.9041 77.0637 74.5612 75.7098C73.8755 73.0243 73.6386 69.8311 72.4604 67.3074C72.4168 67.2338 72.3732 67.1676 72.3295 67.094C72.3295 67.0646 72.3233 67.0351 72.3233 67.0057C72.2859 66.9321 72.2422 66.8659 72.2048 66.7923C71.382 66.8512 70.5155 67.1087 69.7362 67.4104C68.8697 67.7341 68.2837 68.5876 67.5606 69.1836C67.4671 69.2645 67.3736 69.5 67.5232 69.5735C67.8661 69.7354 69.0879 69.6177 69.1503 69.9929C69.2562 70.611 69.5368 71.229 69.9607 71.619C69.6303 72.0752 69.2251 72.4577 68.6827 72.7006C67.6978 73.142 66.3762 73.4216 65.784 72.627C65.7653 72.5387 65.7528 72.4504 65.7341 72.3547C65.6905 71.5822 65.6468 70.817 65.6219 70.0444C65.6531 68.617 65.8899 67.2412 66.0084 65.7843C66.0583 65.2178 66.532 64.6071 66.077 64.0626C66.0645 64.0406 66.052 64.0259 66.0458 64.0111C66.5445 63.8272 67.0681 63.6653 67.5544 63.452C68.2588 63.1429 69.7549 63.062 70.2723 62.2968C70.3721 62.1423 70.4282 61.8701 70.21 61.8259C69.5368 61.7008 65.7653 61.642 65.8027 61.2226C65.8463 60.7885 65.8899 60.3764 65.9086 59.9718C65.7964 59.0226 65.7092 58.0588 65.7341 57.1023C65.7715 55.8809 65.6157 54.7993 65.0546 53.7472C65.0047 53.6515 65.0546 53.5338 65.1356 53.497C65.9648 53.1806 66.8437 53.3057 67.6728 52.9673C68.2775 52.7245 68.876 52.4964 69.4432 52.18C69.4245 52.1653 69.4121 52.1579 69.3871 52.1432C68.6515 51.8342 68.1902 51.7606 67.3237 51.7459C65.7092 51.7165 65.9897 51.2161 65.7964 50.2964C65.5783 49.2516 65.6281 48.0597 65.5845 46.9928C65.5471 45.9554 65.865 44.9106 65.784 43.8806C65.7528 43.4244 65.3289 39.0907 65.0982 39.1054C66.5881 39.0392 68.1092 38.5021 69.5118 38.2372C70.5217 38.0459 71.5066 38.0091 72.4978 37.7663C72.6225 37.7369 72.7285 37.5603 72.5415 37.5309C70.5716 37.2954 68.5331 36.9055 66.5445 36.8319C66.4323 36.8245 66.4385 36.1697 66.4572 35.5002C66.6068 34.7055 66.7003 33.8815 66.7689 33.0648C67.305 32.2113 67.9908 31.6668 69.2313 32.226C69.7425 32.4541 70.2162 32.9029 70.6775 33.234C71.2448 33.6313 71.3259 33.9845 71.5503 34.6467C71.5752 34.7202 71.6563 34.6982 71.6999 34.6687C72.1238 34.3818 72.3046 33.8373 72.529 33.3444C73.0339 32.2554 74.156 31.3357 74.848 30.3792C75.3654 29.6655 75.8828 28.9445 76.3628 28.194C76.8241 27.4656 77.4475 26.98 78.0023 26.3987C78.5821 26.4576 79.1618 26.5091 79.7727 26.4723C81.4683 26.3766 82.9271 25.7439 84.685 25.6997C85.2211 25.685 91.9973 25.9499 91.9786 25.8469C92.1719 26.6709 92.334 27.7893 92.8638 28.6943C93.1631 29.3491 93.0197 30.21 93.4124 30.828C93.4872 30.9384 93.6244 30.7692 93.6493 30.6956C94.0919 29.4227 94.9085 28.7237 95.5506 27.6201C95.7563 27.5539 95.9932 27.6127 96.2737 27.8335C96.4047 27.9365 96.5293 28.0468 96.6478 28.1572C96.9782 28.5251 97.2649 28.9298 97.3148 29.0254C97.4644 29.3344 97.5392 29.6508 97.5704 29.9672C97.427 30.004 97.2774 30.0849 97.1714 30.1217C96.947 30.1953 96.6166 30.1217 96.4795 30.4013C96.2862 30.7765 96.4608 31.2401 96.5605 31.63C96.6478 31.9685 96.7974 32.6675 97.0717 32.8882C97.0654 32.8955 97.0654 32.9103 97.0592 32.9176C97.0717 32.9176 97.0842 32.9176 97.0966 32.9176C97.1029 32.925 97.1029 32.925 97.1029 32.925C97.1465 32.9544 97.1964 32.9471 97.2338 32.9176C97.4706 32.9176 97.7075 32.925 97.9444 32.9544C98.705 33.0501 99.4592 33.1163 100.232 33.131C100.288 33.131 100.338 33.1384 100.394 33.1384C100.949 33.0427 101.491 32.9471 102.021 32.844C102.402 32.7705 102.776 32.5203 103.156 32.4026C103.38 32.3364 103.704 32.4173 103.91 32.2701C103.991 31.8875 104.191 31.5417 104.29 31.1518C104.334 30.9678 104.559 31.0046 104.565 31.1886C104.59 31.5565 104.764 31.9243 104.945 32.2407C105.525 32.5865 106.316 32.0936 106.971 31.814C108.137 31.3136 109.29 30.9678 110.524 30.806C111.921 30.622 113.23 30.0261 114.109 31.7477C114.302 31.5491 114.502 31.3504 114.676 31.1297C115.075 30.4307 115.181 29.4816 114.838 28.7458C114.832 28.7311 114.832 28.7237 114.832 28.7164C115 28.5472 115.169 28.3853 115.343 28.2234C115.368 28.2013 115.399 28.1793 115.424 28.1572C115.424 28.1498 115.424 28.1498 115.43 28.1425C115.499 28.0836 115.574 28.01 115.642 27.9438C115.792 27.8114 115.935 27.6642 116.091 27.5318C116.116 27.5097 116.141 27.495 116.16 27.4729C117.257 27.7746 121.639 28.0689 122.094 28.1351C123.354 28.3191 124.65 28.3926 125.959 28.4C126.296 29.1063 126.67 29.8274 126.82 30.5779C126.845 30.6882 126.888 30.7545 126.944 30.7913C127.699 29.9304 127.512 28.3191 127.717 27.2228C127.886 26.3031 128.453 26.2001 129.188 26.2736C131.034 26.4502 130.678 28.4515 130.336 30.1438C131.364 30.1732 132.399 30.1438 133.415 30.3424C133.982 30.4528 134.631 30.9016 135.192 30.8575C135.217 30.8501 135.235 30.8501 135.254 30.8501C135.391 30.4307 135.572 30.0408 135.653 29.5993C135.684 29.4227 135.884 29.4522 135.927 29.5919C136.027 29.9083 136.139 30.2247 136.264 30.5337C136.775 30.4822 137.274 30.4675 137.791 30.313C138.309 30.1658 138.832 30.0187 139.343 29.8568C140.466 29.511 141.588 29.1726 142.722 28.9003C143.782 28.6502 144.848 28.5472 145.933 28.4662C146.076 28.4515 146.207 28.4368 146.344 28.4221C146.357 28.2896 146.357 28.1498 146.357 28.0174C146.35 28.0174 146.344 28.0174 146.344 28.0174C146.338 27.988 146.35 27.9659 146.357 27.9365C146.35 27.7305 146.344 27.5244 146.369 27.3184C146.388 27.1639 146.562 27.1639 146.625 27.2743C146.812 27.6274 146.992 27.9806 147.179 28.3264C147.329 28.3117 147.479 28.297 147.628 28.297C148.102 28.2455 148.582 28.1131 149.056 28.0763C149.829 28.01 150.602 27.9585 151.375 28.0321C151.824 28.0763 152.11 28.2308 152.391 28.6207C152.397 28.6281 152.41 28.6354 152.416 28.6428C152.416 28.6502 152.416 28.6502 152.416 28.6502C152.416 28.6575 152.422 28.6649 152.422 28.6649C152.484 28.7679 152.584 28.8488 152.678 28.9298C152.765 28.7017 152.834 28.4589 152.902 28.2161C152.915 27.9659 152.927 27.7157 152.939 27.4656C152.939 27.4509 152.939 27.4288 152.939 27.4141C153.151 27.3331 153.444 27.3184 153.762 27.3552C154.292 27.3258 154.828 27.5024 155.358 27.5907C156.019 27.701 156.736 27.782 157.303 28.2308C157.503 28.3853 157.646 28.5766 157.758 28.7752C157.771 28.79 157.777 28.8047 157.789 28.8267C157.796 28.8341 157.802 28.8415 157.808 28.8562C157.833 28.9077 157.864 28.9665 157.889 29.0328C158.033 29.3565 158.126 29.7244 158.257 30.107C158.506 30.828 158.413 31.6521 158.22 32.3805C158.188 32.4909 158.057 32.5571 157.983 32.4541C157.596 31.9464 157.179 31.4829 156.898 30.8943C156.181 31.4461 155.608 32.226 155.252 33.1531C154.978 33.8741 154.785 34.9998 155.389 35.5664C155.508 35.6767 155.62 35.7871 155.726 35.9122C156.013 36.0814 156.3 36.258 156.568 36.4714C156.91 36.751 157.228 37.0747 157.54 37.3911C158.737 38.3476 159.928 39.2967 161.118 40.2459C163.175 41.9087 165.177 43.6598 167.221 45.3447C167.271 45.3889 167.321 45.433 167.365 45.4698C167.583 45.6243 167.789 45.7788 168 45.9407C168.755 46.522 169.503 47.1179 170.22 47.7654C170.775 48.2731 171.379 48.766 171.772 49.465C171.784 49.4797 171.791 49.5018 171.791 49.5165C171.816 49.5533 171.841 49.5901 171.865 49.6342C171.915 49.7299 171.865 49.8403 171.778 49.8697C170.301 50.3994 168.73 50.3774 167.227 50.7379C167.739 50.8409 168.25 50.9145 168.767 50.9881C169.815 51.1352 170.955 51.0837 171.94 51.5472C172.034 51.5914 172.084 51.7312 171.996 51.8268C171.915 51.9151 171.46 52.386 171.111 52.7392C171.261 52.9158 171.448 53.0556 171.554 53.1733C171.772 53.4087 171.922 53.6515 172.034 53.9753C172.127 54.2696 172.084 54.5712 172.059 54.8508Z" fill="#F0F9FF"/>
<path d="M94.3175 46.0398C94.2076 45.6951 94.0599 45.3864 93.8743 45.1136C93.6925 44.8371 93.4747 44.6023 93.2209 44.4091C92.9671 44.2121 92.6773 44.0625 92.3516 43.9602C92.0296 43.858 91.6754 43.8068 91.2891 43.8068C90.6338 43.8068 90.0429 43.9754 89.5163 44.3125C88.9898 44.6496 88.5732 45.1439 88.2663 45.7955C87.9633 46.4432 87.8118 47.2367 87.8118 48.1761C87.8118 49.1193 87.9652 49.9167 88.272 50.5682C88.5788 51.2197 88.9993 51.714 89.5334 52.0511C90.0675 52.3883 90.6754 52.5568 91.3572 52.5568C91.9898 52.5568 92.541 52.428 93.0107 52.1705C93.4841 51.9129 93.8497 51.5492 94.1072 51.0795C94.3686 50.6061 94.4993 50.0492 94.4993 49.4091L94.9538 49.4943H91.6243V48.0455H96.1982V49.3693C96.1982 50.3466 95.9898 51.1951 95.5732 51.9148C95.1603 52.6307 94.5883 53.1837 93.8572 53.5739C93.13 53.964 92.2966 54.1591 91.3572 54.1591C90.3042 54.1591 89.38 53.9167 88.5845 53.4318C87.7929 52.947 87.1754 52.2595 86.7322 51.3693C86.2891 50.4754 86.0675 49.4148 86.0675 48.1875C86.0675 47.2595 86.1963 46.4261 86.4538 45.6875C86.7114 44.9489 87.0732 44.322 87.5391 43.8068C88.0088 43.2879 88.5599 42.892 89.1925 42.6193C89.8288 42.3428 90.5239 42.2045 91.2777 42.2045C91.9065 42.2045 92.4917 42.2973 93.0334 42.483C93.5788 42.6686 94.0637 42.9318 94.4879 43.2727C94.916 43.6136 95.2701 44.0189 95.5504 44.4886C95.8307 44.9545 96.0201 45.4716 96.1186 46.0398H94.3175ZM97.9553 46V44.9091C97.9553 44.5871 98.0159 44.2481 98.1371 43.892C98.2583 43.536 98.4268 43.1951 98.6428 42.8693C98.8587 42.5436 99.1125 42.2652 99.4041 42.0341L100.245 42.6364C100.014 42.9735 99.817 43.3258 99.6541 43.6932C99.4912 44.0606 99.4098 44.4602 99.4098 44.892V46H97.9553ZM104.252 54.1932C103.699 54.1932 103.199 54.0909 102.752 53.8864C102.305 53.678 101.951 53.3769 101.69 52.983C101.432 52.589 101.303 52.1061 101.303 51.5341C101.303 51.0417 101.398 50.6364 101.587 50.3182C101.777 50 102.032 49.7481 102.354 49.5625C102.676 49.3769 103.036 49.2367 103.434 49.142C103.832 49.0473 104.237 48.9754 104.65 48.9261C105.173 48.8655 105.597 48.8163 105.923 48.7784C106.248 48.7367 106.485 48.6705 106.633 48.5795C106.781 48.4886 106.854 48.3409 106.854 48.1364V48.0966C106.854 47.6004 106.714 47.2159 106.434 46.9432C106.157 46.6705 105.745 46.5341 105.195 46.5341C104.623 46.5341 104.173 46.661 103.843 46.9148C103.517 47.1648 103.292 47.4432 103.167 47.75L101.57 47.3864C101.76 46.8561 102.036 46.428 102.4 46.1023C102.767 45.7727 103.19 45.5341 103.667 45.3864C104.144 45.2348 104.646 45.1591 105.173 45.1591C105.521 45.1591 105.89 45.2008 106.281 45.2841C106.674 45.3636 107.042 45.5114 107.383 45.7273C107.728 45.9432 108.01 46.2519 108.229 46.6534C108.449 47.0511 108.559 47.5682 108.559 48.2045V54H106.9V52.8068H106.832C106.722 53.0265 106.557 53.2424 106.337 53.4545C106.118 53.6667 105.835 53.8428 105.491 53.983C105.146 54.1231 104.733 54.1932 104.252 54.1932ZM104.621 52.8295C105.091 52.8295 105.493 52.7367 105.826 52.5511C106.163 52.3655 106.419 52.1231 106.593 51.8239C106.771 51.5208 106.86 51.197 106.86 50.8523V49.7273C106.799 49.7879 106.682 49.8447 106.508 49.8977C106.337 49.947 106.142 49.9905 105.923 50.0284C105.703 50.0625 105.489 50.0947 105.281 50.125C105.072 50.1515 104.898 50.1742 104.758 50.1932C104.428 50.2348 104.127 50.3049 103.854 50.4034C103.585 50.5019 103.37 50.6439 103.207 50.8295C103.048 51.0114 102.968 51.2538 102.968 51.5568C102.968 51.9773 103.123 52.2955 103.434 52.5114C103.745 52.7235 104.14 52.8295 104.621 52.8295ZM110.64 54V52.8352L115.367 46.8295V46.75H110.793V45.2727H117.487V46.5114L112.941 52.4432V52.5227H117.646V54H110.64ZM122.19 54.1932C121.637 54.1932 121.137 54.0909 120.69 53.8864C120.243 53.678 119.888 53.3769 119.627 52.983C119.37 52.589 119.241 52.1061 119.241 51.5341C119.241 51.0417 119.335 50.6364 119.525 50.3182C119.714 50 119.97 49.7481 120.292 49.5625C120.614 49.3769 120.974 49.2367 121.371 49.142C121.769 49.0473 122.174 48.9754 122.587 48.9261C123.11 48.8655 123.534 48.8163 123.86 48.7784C124.186 48.7367 124.423 48.6705 124.57 48.5795C124.718 48.4886 124.792 48.3409 124.792 48.1364V48.0966C124.792 47.6004 124.652 47.2159 124.371 46.9432C124.095 46.6705 123.682 46.5341 123.133 46.5341C122.561 46.5341 122.11 46.661 121.781 46.9148C121.455 47.1648 121.229 47.4432 121.104 47.75L119.508 47.3864C119.697 46.8561 119.974 46.428 120.337 46.1023C120.705 45.7727 121.127 45.5341 121.604 45.3864C122.082 45.2348 122.584 45.1591 123.11 45.1591C123.459 45.1591 123.828 45.2008 124.218 45.2841C124.612 45.3636 124.979 45.5114 125.32 45.7273C125.665 45.9432 125.947 46.2519 126.167 46.6534C126.387 47.0511 126.496 47.5682 126.496 48.2045V54H124.837V52.8068H124.769C124.659 53.0265 124.495 53.2424 124.275 53.4545C124.055 53.6667 123.773 53.8428 123.428 53.983C123.084 54.1231 122.671 54.1932 122.19 54.1932ZM122.559 52.8295C123.029 52.8295 123.43 52.7367 123.763 52.5511C124.101 52.3655 124.356 52.1231 124.531 51.8239C124.709 51.5208 124.798 51.197 124.798 50.8523V49.7273C124.737 49.7879 124.62 49.8447 124.445 49.8977C124.275 49.947 124.08 49.9905 123.86 50.0284C123.64 50.0625 123.426 50.0947 123.218 50.125C123.01 50.1515 122.835 50.1742 122.695 50.1932C122.366 50.2348 122.065 50.3049 121.792 50.4034C121.523 50.5019 121.307 50.6439 121.144 50.8295C120.985 51.0114 120.906 51.2538 120.906 51.5568C120.906 51.9773 121.061 52.2955 121.371 52.5114C121.682 52.7235 122.078 52.8295 122.559 52.8295ZM130.458 42.3636V54H128.759V42.3636H130.458ZM134.442 42.3636V54H132.744V42.3636H134.442ZM139.268 54.1932C138.715 54.1932 138.215 54.0909 137.768 53.8864C137.321 53.678 136.967 53.3769 136.705 52.983C136.448 52.589 136.319 52.1061 136.319 51.5341C136.319 51.0417 136.414 50.6364 136.603 50.3182C136.792 50 137.048 49.7481 137.37 49.5625C137.692 49.3769 138.052 49.2367 138.45 49.142C138.847 49.0473 139.253 48.9754 139.665 48.9261C140.188 48.8655 140.612 48.8163 140.938 48.7784C141.264 48.7367 141.501 48.6705 141.648 48.5795C141.796 48.4886 141.87 48.3409 141.87 48.1364V48.0966C141.87 47.6004 141.73 47.2159 141.45 46.9432C141.173 46.6705 140.76 46.5341 140.211 46.5341C139.639 46.5341 139.188 46.661 138.859 46.9148C138.533 47.1648 138.308 47.4432 138.183 47.75L136.586 47.3864C136.775 46.8561 137.052 46.428 137.415 46.1023C137.783 45.7727 138.205 45.5341 138.683 45.3864C139.16 45.2348 139.662 45.1591 140.188 45.1591C140.537 45.1591 140.906 45.2008 141.296 45.2841C141.69 45.3636 142.058 45.5114 142.398 45.7273C142.743 45.9432 143.025 46.2519 143.245 46.6534C143.465 47.0511 143.575 47.5682 143.575 48.2045V54H141.915V52.8068H141.847C141.737 53.0265 141.573 53.2424 141.353 53.4545C141.133 53.6667 140.851 53.8428 140.506 53.983C140.162 54.1231 139.749 54.1932 139.268 54.1932ZM139.637 52.8295C140.107 52.8295 140.508 52.7367 140.842 52.5511C141.179 52.3655 141.434 52.1231 141.609 51.8239C141.787 51.5208 141.876 51.197 141.876 50.8523V49.7273C141.815 49.7879 141.698 49.8447 141.523 49.8977C141.353 49.947 141.158 49.9905 140.938 50.0284C140.719 50.0625 140.504 50.0947 140.296 50.125C140.088 50.1515 139.914 50.1742 139.773 50.1932C139.444 50.2348 139.143 50.3049 138.87 50.4034C138.601 50.5019 138.385 50.6439 138.222 50.8295C138.063 51.0114 137.984 51.2538 137.984 51.5568C137.984 51.9773 138.139 52.2955 138.45 52.5114C138.76 52.7235 139.156 52.8295 139.637 52.8295ZM145.837 54V45.2727H147.479V46.6591H147.57C147.729 46.1894 148.01 45.8201 148.411 45.5511C148.817 45.2784 149.275 45.142 149.786 45.142C149.892 45.142 150.017 45.1458 150.161 45.1534C150.309 45.161 150.424 45.1705 150.508 45.1818V46.8068C150.44 46.7879 150.318 46.767 150.144 46.7443C149.97 46.7178 149.796 46.7045 149.621 46.7045C149.22 46.7045 148.862 46.7898 148.548 46.9602C148.237 47.1269 147.991 47.3598 147.809 47.6591C147.627 47.9545 147.536 48.2917 147.536 48.6705V54H145.837Z" fill="#0B4A6F"/>
</g>
<defs>
<filter id="filter0_d_6_10287" x="0" y="0" width="237" height="196" filterUnits="userSpaceOnUse" color-interpolation-filters="sRGB">
<feFlood flood-opacity="0" result="BackgroundImageFix"/>
<feColorMatrix in="SourceAlpha" type="matrix" values="0 0 0 0 0 0 0 0 0 0 0 0 0 0 0 0 0 0 127 0" result="hardAlpha"/>
<feOffset dy="40"/>
<feGaussianBlur stdDeviation="32"/>
<feComposite in2="hardAlpha" operator="out"/>
<feColorMatrix type="matrix" values="0 0 0 0 0 0 0 0 0 0.08 0 0 0 0 0.125 0 0 0 0.12 0"/>
<feBlend mode="normal" in2="BackgroundImageFix" result="effect1_dropShadow_6_10287"/>
<feBlend mode="normal" in="SourceGraphic" in2="effect1_dropShadow_6_10287" result="shape"/>
</filter>
</defs>
</svg>
